SplineFontDB: 1.0
FontName: DejaVuSans-Oblique
FullName: DejaVu Sans Oblique
FamilyName: DejaVu Sans
Weight: Book
Copyright: Copyright (c) 2003 by Bitstream, Inc. All Rights Reserved.\nCopyright (c) 2006 by Tavmjong Bah. All Rights Reserved.\nDejaVu changes are in public domain\n
Version: 2.10
ItalicAngle: -11
UnderlinePosition: -85
UnderlineWidth: 90
Ascent: 1556
Descent: 492
Order2: 1
NeedsXUIDChange: 1
FSType: 0
PfmFamily: 17
TTFWeight: 400
TTFWidth: 5
LineGap: 0
VLineGap: 0
Panose: 2 11 6 3 3 3 4 11 2 4
OS2TypoAscent: 1556
OS2TypoAOffset: 0
OS2TypoDescent: -492
OS2TypoDOffset: 0
OS2TypoLinegap: 410
OS2WinAscent: 1901
OS2WinAOffset: 0
OS2WinDescent: 483
OS2WinDOffset: 0
HheadAscent: 1901
HheadAOffset: 0
HheadDescent: -483
HheadDOffset: 0
OS2Vendor: 'PfEd'
ScriptLang: 10
 4 cyrl 1 dflt grek 1 dflt lao  1 dflt latn 1 dflt 
 1 DFLT 1 dflt 
 1 latn 1 dflt 
 1 armn 1 dflt 
 1 latn 1 DNK  
 1 grek 1 dflt 
 1 hebr 1 dflt 
 2 arab 1 dflt hebr 1 dflt 
 1 cyrl 2 MKD  SRB  
 1 lao  1 dflt 
ChainSub: class 0 0 'ccmp' 4 4 4 2
  Class: 19 i j uni0268 uni029D
  Class: 181 gravecomb acutecomb uni0302 tildecomb uni0304 uni0305 uni0306 uni0307 uni0308 uni030A uni030B uni030C uni030D uni030E uni030F uni0310 uni0311 uni0312 uni0313 uni0314 uni033D uni033E

StartChar: .notdef
Encoding: 0 -1 0
AltUni: 0
Width: 1229
Flags: W
Fore
102 -362 m 1,0,-1
 102 1444 l 1,1,-1
 1126 1444 l 1,2,-1
 1126 -362 l 1,3,-1
 102 -362 l 1,0,-1
217 -248 m 1,4,-1
 1012 -248 l 1,5,-1
 1012 1329 l 1,6,-1
 217 1329 l 1,7,-1
 217 -248 l 1,4,-1
EndSplineSet
EndChar
StartChar: exclam
Encoding: 33 33 33
Width: 821
Flags: W
Fore
453 1493 m 1,0,-1
 655 1493 l 1,1,-1
 528 838 l 1,2,-1
 438 481 l 1,3,-1
 276 481 l 1,4,-1
 326 838 l 1,5,-1
 453 1493 l 1,0,-1
213 254 m 1,6,-1
 416 254 l 1,7,-1
 367 0 l 1,8,-1
 162 0 l 1,9,-1
 213 254 l 1,6,-1
EndSplineSet
EndChar
StartChar: quotedbl
Encoding: 34 34 34
Width: 942
Flags: W
Fore
367 1493 m 1,0,-1
 367 938 l 1,1,-1
 197 938 l 1,2,-1
 197 1493 l 1,3,-1
 367 1493 l 1,0,-1
745 1493 m 1,4,-1
 745 938 l 1,5,-1
 575 938 l 1,6,-1
 575 1493 l 1,7,-1
 745 1493 l 1,4,-1
EndSplineSet
EndChar
StartChar: numbersign
Encoding: 35 35 35
Width: 1716
Flags: W
Fore
897 1470 m 1,0,-1
 793 1055 l 1,1,-1
 1085 1055 l 1,2,-1
 1190 1470 l 1,3,-1
 1350 1470 l 1,4,-1
 1247 1055 l 1,5,-1
 1583 1055 l 1,6,-1
 1544 901 l 1,7,-1
 1208 901 l 1,8,-1
 1126 567 l 1,9,-1
 1466 567 l 1,10,-1
 1430 414 l 1,11,-1
 1087 414 l 1,12,-1
 983 0 l 1,13,-1
 823 0 l 1,14,-1
 926 414 l 1,15,-1
 633 414 l 1,16,-1
 530 0 l 1,17,-1
 369 0 l 1,18,-1
 473 414 l 1,19,-1
 143 414 l 1,20,-1
 180 567 l 1,21,-1
 510 567 l 1,22,-1
 594 901 l 1,23,-1
 258 901 l 1,24,-1
 297 1055 l 1,25,-1
 633 1055 l 1,26,-1
 735 1470 l 1,27,-1
 897 1470 l 1,0,-1
1047 901 m 1,28,-1
 756 901 l 1,29,-1
 672 567 l 1,30,-1
 965 567 l 1,31,-1
 1047 901 l 1,28,-1
EndSplineSet
EndChar
StartChar: dollar
Encoding: 36 36 36
Width: 1303
Flags: W
Fore
600 145 m 1,0,1
 739 151 739 151 820 215.5 c 128,-1,2
 901 280 901 280 901 383 c 0,3,4
 901 467 901 467 850 513 c 128,-1,5
 799 559 799 559 684 578 c 1,6,-1
 600 145 l 1,0,1
700 1180 m 1,7,8
 568 1166 568 1166 493 1102 c 128,-1,9
 418 1038 418 1038 418 938 c 0,10,11
 418 868 418 868 465.5 828.5 c 128,-1,12
 513 789 513 789 621 770 c 1,13,-1
 700 1180 l 1,7,8
1167 1262 m 1,14,-1
 1133 1081 l 1,15,16
 1047 1127 1047 1127 963.5 1152 c 128,-1,17
 880 1177 880 1177 801 1179 c 1,18,-1
 717 752 l 1,19,20
 901 723 901 723 997.5 637 c 128,-1,21
 1094 551 1094 551 1094 416 c 0,22,23
 1094 241 1094 241 951 126.5 c 128,-1,24
 808 12 808 12 571 0 c 1,25,-1
 512 -301 l 1,26,-1
 412 -301 l 1,27,-1
 471 0 l 1,28,29
 355 3 355 3 253 26.5 c 128,-1,30
 151 50 151 50 68 92 c 1,31,-1
 102 276 l 1,32,33
 194 214 194 214 294 180 c 128,-1,34
 394 146 394 146 500 142 c 1,35,-1
 588 598 l 1,36,37
 399 634 399 634 313 708.5 c 128,-1,38
 227 783 227 783 227 909 c 0,39,40
 227 1075 227 1075 364.5 1190 c 128,-1,41
 502 1305 502 1305 727 1323 c 1,42,-1
 774 1556 l 1,43,-1
 874 1556 l 1,44,-1
 830 1323 l 1,45,46
 920 1320 920 1320 1005.5 1304.5 c 128,-1,47
 1091 1289 1091 1289 1167 1262 c 1,14,-1
EndSplineSet
EndChar
StartChar: percent
Encoding: 37 37 37
Width: 1946
Flags: W
Fore
481 707 m 0,0,1
 345 707 345 707 265.5 795.5 c 128,-1,2
 186 884 186 884 186 1036 c 0,3,4
 186 1252 186 1252 302 1386 c 128,-1,5
 418 1520 418 1520 604 1520 c 0,6,7
 740 1520 740 1520 819.5 1430.5 c 128,-1,8
 899 1341 899 1341 899 1188 c 0,9,10
 899 974 899 974 783 840.5 c 128,-1,11
 667 707 667 707 481 707 c 0,0,1
739 1182 m 0,12,13
 739 1287 739 1287 700 1340 c 128,-1,14
 661 1393 661 1393 584 1393 c 0,15,16
 472 1393 472 1393 409 1296 c 128,-1,17
 346 1199 346 1199 346 1026 c 0,18,19
 346 934 346 934 386.5 884 c 128,-1,20
 427 834 427 834 502 834 c 0,21,22
 609 834 609 834 674 929 c 128,-1,23
 739 1024 739 1024 739 1182 c 0,12,13
1599 446 m 0,24,25
 1599 553 1599 553 1561 606 c 128,-1,26
 1523 659 1523 659 1446 659 c 0,27,28
 1335 659 1335 659 1271.5 561.5 c 128,-1,29
 1208 464 1208 464 1208 291 c 0,30,31
 1208 198 1208 198 1248.5 148 c 128,-1,32
 1289 98 1289 98 1364 98 c 0,33,34
 1471 98 1471 98 1535 193 c 128,-1,35
 1599 288 1599 288 1599 446 c 0,24,25
1343 -29 m 0,36,37
 1207 -29 1207 -29 1128 60 c 128,-1,38
 1049 149 1049 149 1049 301 c 0,39,40
 1049 517 1049 517 1164.5 650.5 c 128,-1,41
 1280 784 1280 784 1466 784 c 0,42,43
 1602 784 1602 784 1680.5 696 c 128,-1,44
 1759 608 1759 608 1759 455 c 0,45,46
 1759 240 1759 240 1643.5 105.5 c 128,-1,47
 1528 -29 1528 -29 1343 -29 c 0,36,37
1683 1520 m 1,48,-1
 449 -29 l 1,49,-1
 289 -29 l 1,50,-1
 1524 1520 l 1,51,-1
 1683 1520 l 1,48,-1
EndSplineSet
EndChar
StartChar: ampersand
Encoding: 38 38 38
Width: 1597
Flags: W
Fore
967 260 m 1,0,-1
 541 803 l 1,1,2
 420 715 420 715 357.5 616 c 128,-1,3
 295 517 295 517 295 414 c 0,4,5
 295 287 295 287 380.5 210 c 128,-1,6
 466 133 466 133 608 133 c 0,7,8
 702 133 702 133 793.5 165.5 c 128,-1,9
 885 198 885 198 967 260 c 1,0,-1
1507 801 m 1,10,11
 1462 642 1462 642 1388.5 510 c 128,-1,12
 1315 378 1315 378 1212 270 c 1,13,-1
 1421 0 l 1,14,-1
 1169 0 l 1,15,-1
 1063 139 l 1,16,17
 957 56 957 56 835 13.5 c 128,-1,18
 713 -29 713 -29 580 -29 c 0,19,20
 359 -29 359 -29 227.5 80 c 128,-1,21
 96 189 96 189 96 369 c 0,22,23
 96 523 96 523 188.5 660 c 128,-1,24
 281 797 281 797 463 913 c 1,25,26
 432 959 432 959 417.5 1006.5 c 128,-1,27
 403 1054 403 1054 403 1108 c 0,28,29
 403 1176 403 1176 426 1237 c 128,-1,30
 449 1298 449 1298 492 1348 c 0,31,32
 561 1430 561 1430 665 1475 c 128,-1,33
 769 1520 769 1520 889 1520 c 0,34,35
 967 1520 967 1520 1046 1502 c 128,-1,36
 1125 1484 1125 1484 1206 1448 c 1,37,-1
 1171 1266 l 1,38,39
 1096 1313 1096 1313 1021.5 1337.5 c 128,-1,40
 947 1362 947 1362 877 1362 c 0,41,42
 753 1362 753 1362 675.5 1297.5 c 128,-1,43
 598 1233 598 1233 598 1133 c 0,44,45
 598 1089 598 1089 617 1046 c 128,-1,46
 636 1003 636 1003 705 915 c 2,47,-1
 1112 395 l 1,48,49
 1187 474 1187 474 1240 576.5 c 128,-1,50
 1293 679 1293 679 1321 801 c 1,51,-1
 1507 801 l 1,10,11
EndSplineSet
EndChar
StartChar: quotesingle
Encoding: 39 39 39
Width: 563
Flags: W
Fore
367 1493 m 1,0,-1
 367 938 l 1,1,-1
 197 938 l 1,2,-1
 197 1493 l 1,3,-1
 367 1493 l 1,0,-1
EndSplineSet
EndChar
StartChar: parenleft
Encoding: 40 40 40
Width: 799
Flags: W
Fore
874 1554 m 1,0,1
 609 1223 609 1223 478.5 925.5 c 128,-1,2
 348 628 348 628 348 352 c 0,3,4
 348 194 348 194 386 38.5 c 128,-1,5
 424 -117 424 -117 500 -270 c 1,6,-1
 340 -270 l 1,7,8
 248 -98 248 -98 203 64.5 c 128,-1,9
 158 227 158 227 158 383 c 0,10,11
 158 680 158 680 295.5 971.5 c 128,-1,12
 433 1263 433 1263 711 1554 c 1,13,-1
 874 1554 l 1,0,1
EndSplineSet
EndChar
StartChar: parenright
Encoding: 41 41 41
Width: 799
Flags: W
Fore
-127 -270 m 1,0,1
 139 61 139 61 269 358.5 c 128,-1,2
 399 656 399 656 399 932 c 0,3,4
 399 1090 399 1090 361.5 1245.5 c 128,-1,5
 324 1401 324 1401 248 1554 c 1,6,-1
 408 1554 l 1,7,8
 500 1381 500 1381 545 1220 c 128,-1,9
 590 1059 590 1059 590 903 c 0,10,11
 590 605 590 605 451.5 311.5 c 128,-1,12
 313 18 313 18 37 -270 c 1,13,-1
 -127 -270 l 1,0,1
EndSplineSet
EndChar
StartChar: asterisk
Encoding: 42 42 42
Width: 1024
Flags: W
Fore
963 1247 m 1,0,-1
 604 1053 l 1,1,-1
 963 858 l 1,2,-1
 905 760 l 1,3,-1
 569 963 l 1,4,-1
 569 586 l 1,5,-1
 455 586 l 1,6,-1
 455 963 l 1,7,-1
 119 760 l 1,8,-1
 61 858 l 1,9,-1
 420 1053 l 1,10,-1
 61 1247 l 1,11,-1
 119 1346 l 1,12,-1
 455 1143 l 1,13,-1
 455 1520 l 1,14,-1
 569 1520 l 1,15,-1
 569 1143 l 1,16,-1
 905 1346 l 1,17,-1
 963 1247 l 1,0,-1
EndSplineSet
EndChar
StartChar: plus
Encoding: 43 43 43
Width: 1716
Flags: W
Fore
942 1284 m 1,0,-1
 942 727 l 1,1,-1
 1499 727 l 1,2,-1
 1499 557 l 1,3,-1
 942 557 l 1,4,-1
 942 0 l 1,5,-1
 774 0 l 1,6,-1
 774 557 l 1,7,-1
 217 557 l 1,8,-1
 217 727 l 1,9,-1
 774 727 l 1,10,-1
 774 1284 l 1,11,-1
 942 1284 l 1,0,-1
EndSplineSet
EndChar
StartChar: comma
Encoding: 44 44 44
Width: 651
Flags: W
Fore
184 254 m 1,0,-1
 395 254 l 1,1,-1
 362 82 l 1,2,-1
 135 -238 l 1,3,-1
 6 -238 l 1,4,-1
 150 82 l 1,5,-1
 184 254 l 1,0,-1
EndSplineSet
EndChar
StartChar: hyphen
Encoding: 45 45 45
Width: 739
Flags: W
Fore
125 643 m 1,0,-1
 664 643 l 1,1,-1
 633 479 l 1,2,-1
 92 479 l 1,3,-1
 125 643 l 1,0,-1
EndSplineSet
KernsSLIFO: 356 -149 0 0 221 -149 0 0 376 -149 0 0 89 -149 0 0 88 -73 0 0 87 -36 0 0 86 -83 0 0 84 -149 0 0
EndChar
StartChar: period
Encoding: 46 46 46
Width: 651
Flags: W
Fore
168 254 m 1,0,-1
 379 254 l 1,1,-1
 330 0 l 1,2,-1
 119 0 l 1,3,-1
 168 254 l 1,0,-1
EndSplineSet
EndChar
StartChar: slash
Encoding: 47 47 47
Width: 690
Flags: W
Fore
696 1493 m 1,0,-1
 874 1493 l 1,1,-1
 27 -190 l 1,2,-1
 -150 -190 l 1,3,-1
 696 1493 l 1,0,-1
EndSplineSet
EndChar
StartChar: zero
Encoding: 48 48 48
Width: 1303
Flags: W
AnchorPoint: "below" 506 0 basechar 0
AnchorPoint: "above" 802 1520 basechar 0
Fore
782 1520 m 0,0,1
 985 1520 985 1520 1092.5 1385 c 128,-1,2
 1200 1250 1200 1250 1200 997 c 0,3,4
 1200 805 1200 805 1149.5 615.5 c 128,-1,5
 1099 426 1099 426 1008 276 c 1,6,7
 915 126 915 126 789.5 48.5 c 128,-1,8
 664 -29 664 -29 512 -29 c 0,9,10
 316 -29 316 -29 209 107 c 128,-1,11
 102 243 102 243 102 494 c 0,12,13
 102 684 102 684 153.5 874.5 c 128,-1,14
 205 1065 205 1065 297 1214 c 0,15,16
 389 1364 389 1364 512.5 1442 c 128,-1,17
 636 1520 636 1520 782 1520 c 0,0,1
770 1360 m 0,18,19
 694 1360 694 1360 625.5 1319.5 c 128,-1,20
 557 1279 557 1279 502 1200 c 0,21,22
 410 1068 410 1068 355.5 870.5 c 128,-1,23
 301 673 301 673 301 465 c 0,24,25
 301 300 301 300 359.5 215.5 c 128,-1,26
 418 131 418 131 532 131 c 0,27,28
 612 131 612 131 680 171.5 c 128,-1,29
 748 212 748 212 803 291 c 0,30,31
 894 422 894 422 947.5 619.5 c 128,-1,32
 1001 817 1001 817 1001 1026 c 0,33,34
 1001 1191 1001 1191 942.5 1275.5 c 128,-1,35
 884 1360 884 1360 770 1360 c 0,18,19
EndSplineSet
EndChar
StartChar: one
Encoding: 49 49 49
Width: 1303
Flags: W
AnchorPoint: "below" 506 0 basechar 0
AnchorPoint: "above" 802 1520 basechar 0
Fore
133 170 m 1,0,-1
 463 170 l 1,1,-1
 686 1319 l 1,2,-1
 313 1247 l 1,3,-1
 348 1421 l 1,4,-1
 719 1493 l 1,5,-1
 922 1493 l 1,6,-1
 664 170 l 1,7,-1
 993 170 l 1,8,-1
 961 0 l 1,9,-1
 100 0 l 1,10,-1
 133 170 l 1,0,-1
EndSplineSet
EndChar
StartChar: two
Encoding: 50 50 50
Width: 1303
Flags: W
AnchorPoint: "below" 506 0 basechar 0
AnchorPoint: "above" 802 1520 basechar 0
Fore
944 721 m 2,0,-1
 299 168 l 1,1,-1
 1012 168 l 1,2,-1
 977 0 l 1,3,-1
 8 0 l 1,4,-1
 41 170 l 1,5,-1
 715 748 l 1,6,7
 850 865 850 865 906.5 953.5 c 128,-1,8
 963 1042 963 1042 963 1135 c 0,9,10
 963 1232 963 1232 895 1293 c 128,-1,11
 827 1354 827 1354 717 1354 c 0,12,13
 622 1354 622 1354 506 1320 c 128,-1,14
 390 1286 390 1286 258 1221 c 1,15,-1
 295 1421 l 1,16,17
 419 1470 419 1470 532 1495 c 128,-1,18
 645 1520 645 1520 741 1520 c 0,19,20
 937 1520 937 1520 1056.5 1416 c 128,-1,21
 1176 1312 1176 1312 1176 1143 c 0,22,23
 1176 1029 1176 1029 1119 925.5 c 128,-1,24
 1062 822 1062 822 944 721 c 2,0,-1
EndSplineSet
EndChar
StartChar: three
Encoding: 51 51 51
Width: 1303
Flags: W
AnchorPoint: "below" 506 0 basechar 0
AnchorPoint: "above" 802 1520 basechar 0
Fore
324 1456 m 1,0,1
 434 1488 434 1488 537.5 1504 c 128,-1,2
 641 1520 641 1520 741 1520 c 0,3,4
 939 1520 939 1520 1055 1432 c 128,-1,5
 1171 1344 1171 1344 1171 1196 c 0,6,7
 1171 1051 1171 1051 1079.5 947 c 128,-1,8
 988 843 988 843 827 805 c 1,9,10
 953 769 953 769 1012 693 c 128,-1,11
 1071 617 1071 617 1071 492 c 0,12,13
 1071 372 1071 372 1013.5 267 c 128,-1,14
 956 162 956 162 848 86 c 0,15,16
 766 28 766 28 652 -0.5 c 128,-1,17
 538 -29 538 -29 389 -29 c 0,18,19
 295 -29 295 -29 199 -10.5 c 128,-1,20
 103 8 103 8 4 45 c 1,21,-1
 41 236 l 1,22,23
 135 184 135 184 230.5 158.5 c 128,-1,24
 326 133 326 133 426 133 c 0,25,26
 623 133 623 133 745.5 234.5 c 128,-1,27
 868 336 868 336 868 498 c 0,28,29
 868 602 868 602 790 658.5 c 128,-1,30
 712 715 712 715 567 715 c 2,31,-1
 393 715 l 1,32,-1
 424 879 l 1,33,-1
 608 879 l 2,34,35
 774 879 774 879 869.5 955 c 128,-1,36
 965 1031 965 1031 965 1161 c 0,37,38
 965 1255 965 1255 895 1306.5 c 128,-1,39
 825 1358 825 1358 698 1358 c 0,40,41
 602 1358 602 1358 501.5 1337.5 c 128,-1,42
 401 1317 401 1317 293 1276 c 1,43,-1
 324 1456 l 1,0,1
EndSplineSet
EndChar
StartChar: four
Encoding: 52 52 52
Width: 1303
Flags: W
AnchorPoint: "below" 506 0 basechar 0
AnchorPoint: "above" 802 1520 basechar 0
Fore
881 1493 m 1,0,-1
 1135 1493 l 1,1,-1
 944 520 l 1,2,-1
 1157 520 l 1,3,-1
 1124 352 l 1,4,-1
 911 352 l 1,5,-1
 844 0 l 1,6,-1
 643 0 l 1,7,-1
 711 352 l 1,8,-1
 37 352 l 1,9,-1
 76 547 l 1,10,-1
 881 1493 l 1,0,-1
899 1317 m 1,11,-1
 233 520 l 1,12,-1
 743 520 l 1,13,-1
 899 1317 l 1,11,-1
EndSplineSet
EndChar
StartChar: five
Encoding: 53 53 53
Width: 1303
Flags: W
AnchorPoint: "below" 506 0 basechar 0
AnchorPoint: "above" 802 1520 basechar 0
Fore
1190 1493 m 1,0,-1
 1159 1325 l 1,1,-1
 541 1325 l 1,2,-1
 469 956 l 1,3,4
 515 971 515 971 562.5 978 c 128,-1,5
 610 985 610 985 659 985 c 0,6,7
 866 985 866 985 986 874 c 128,-1,8
 1106 763 1106 763 1106 573 c 0,9,10
 1106 440 1106 440 1044.5 318 c 128,-1,11
 983 196 983 196 870 104 c 0,12,13
 790 40 790 40 674.5 5.5 c 128,-1,14
 559 -29 559 -29 422 -29 c 0,15,16
 332 -29 332 -29 238 -13 c 128,-1,17
 144 3 144 3 41 35 c 1,18,-1
 78 223 l 1,19,20
 170 178 170 178 262.5 155.5 c 128,-1,21
 355 133 355 133 449 133 c 0,22,23
 644 133 644 133 771.5 250 c 128,-1,24
 899 367 899 367 899 543 c 0,25,26
 899 673 899 673 815.5 745 c 128,-1,27
 732 817 732 817 582 817 c 0,28,29
 503 817 503 817 417.5 798.5 c 128,-1,30
 332 780 332 780 242 743 c 1,31,-1
 387 1493 l 1,32,-1
 1190 1493 l 1,0,-1
EndSplineSet
EndChar
StartChar: six
Encoding: 54 54 54
Width: 1303
Flags: W
AnchorPoint: "below" 506 0 basechar 0
AnchorPoint: "above" 802 1520 basechar 0
Fore
940 553 m 0,0,1
 940 680 940 680 875 753.5 c 128,-1,2
 810 827 810 827 698 827 c 0,3,4
 543 827 543 827 437.5 707.5 c 128,-1,5
 332 588 332 588 332 412 c 0,6,7
 332 280 332 280 396.5 205.5 c 128,-1,8
 461 131 461 131 575 131 c 0,9,10
 731 131 731 131 835.5 253.5 c 128,-1,11
 940 376 940 376 940 553 c 0,0,1
1212 1458 m 1,12,-1
 1178 1274 l 1,13,14
 1120 1312 1120 1312 1045 1332 c 128,-1,15
 970 1352 970 1352 885 1352 c 0,16,17
 678 1352 678 1352 552.5 1222 c 128,-1,18
 427 1092 427 1092 365 815 c 1,19,20
 438 900 438 900 534.5 943.5 c 128,-1,21
 631 987 631 987 743 987 c 0,22,23
 926 987 926 987 1034.5 881.5 c 128,-1,24
 1143 776 1143 776 1143 598 c 0,25,26
 1143 452 1143 452 1089.5 326.5 c 128,-1,27
 1036 201 1036 201 934 106 c 0,28,29
 864 41 864 41 771 6 c 128,-1,30
 678 -29 678 -29 573 -29 c 0,31,32
 367 -29 367 -29 248 102 c 128,-1,33
 129 233 129 233 129 461 c 0,34,35
 129 673 129 673 183.5 869.5 c 128,-1,36
 238 1066 238 1066 336 1210 c 0,37,38
 439 1362 439 1362 585.5 1441 c 128,-1,39
 732 1520 732 1520 909 1520 c 0,40,41
 987 1520 987 1520 1063 1504.5 c 128,-1,42
 1139 1489 1139 1489 1212 1458 c 1,12,-1
EndSplineSet
EndChar
StartChar: seven
Encoding: 55 55 55
Width: 1303
Flags: W
AnchorPoint: "below" 506 0 basechar 0
AnchorPoint: "above" 802 1520 basechar 0
Fore
262 1493 m 1,0,-1
 1284 1493 l 1,1,-1
 1266 1407 l 1,2,-1
 412 0 l 1,3,-1
 190 0 l 1,4,-1
 997 1323 l 1,5,-1
 229 1323 l 1,6,-1
 262 1493 l 1,0,-1
EndSplineSet
EndChar
StartChar: eight
Encoding: 56 56 56
Width: 1303
Flags: W
AnchorPoint: "below" 506 0 basechar 0
AnchorPoint: "above" 802 1520 basechar 0
Fore
911 453 m 0,0,1
 911 566 911 566 832 637.5 c 128,-1,2
 753 709 753 709 625 709 c 0,3,4
 469 709 469 709 367.5 615.5 c 128,-1,5
 266 522 266 522 266 379 c 0,6,7
 266 265 266 265 343.5 198 c 128,-1,8
 421 131 421 131 553 131 c 0,9,10
 710 131 710 131 810.5 222 c 128,-1,11
 911 313 911 313 911 453 c 0,0,1
1014 1149 m 0,12,13
 1014 1244 1014 1244 944 1302 c 128,-1,14
 874 1360 874 1360 758 1360 c 0,15,16
 621 1360 621 1360 532.5 1283 c 128,-1,17
 444 1206 444 1206 444 1090 c 0,18,19
 444 990 444 990 513.5 929 c 128,-1,20
 583 868 583 868 698 868 c 0,21,22
 836 868 836 868 925 947.5 c 128,-1,23
 1014 1027 1014 1027 1014 1149 c 0,12,13
877 786 m 1,24,25
 990 743 990 743 1050 656 c 128,-1,26
 1110 569 1110 569 1110 446 c 0,27,28
 1110 239 1110 239 950 105 c 128,-1,29
 790 -29 790 -29 537 -29 c 0,30,31
 322 -29 322 -29 195 76.5 c 128,-1,32
 68 182 68 182 68 358 c 0,33,34
 68 518 68 518 177 642.5 c 128,-1,35
 286 767 286 767 461 801 c 1,36,37
 356 837 356 837 301 912.5 c 128,-1,38
 246 988 246 988 246 1096 c 0,39,40
 246 1277 246 1277 396.5 1398.5 c 128,-1,41
 547 1520 547 1520 778 1520 c 0,42,43
 971 1520 971 1520 1092.5 1421.5 c 128,-1,44
 1214 1323 1214 1323 1214 1171 c 0,45,46
 1214 1039 1214 1039 1123.5 935.5 c 128,-1,47
 1033 832 1033 832 877 786 c 1,24,25
EndSplineSet
EndChar
StartChar: nine
Encoding: 57 57 57
Width: 1303
Flags: W
AnchorPoint: "below" 506 0 basechar 0
AnchorPoint: "above" 802 1520 basechar 0
Fore
90 33 m 1,0,-1
 127 217 l 1,1,2
 185 179 185 179 259 159 c 128,-1,3
 333 139 333 139 418 139 c 0,4,5
 625 139 625 139 751.5 270 c 128,-1,6
 878 401 878 401 940 678 c 1,7,8
 866 593 866 593 768.5 548.5 c 128,-1,9
 671 504 671 504 559 504 c 0,10,11
 377 504 377 504 269.5 609.5 c 128,-1,12
 162 715 162 715 162 893 c 0,13,14
 162 1039 162 1039 215 1164.5 c 128,-1,15
 268 1290 268 1290 371 1384 c 1,16,17
 441 1450 441 1450 533 1485 c 128,-1,18
 625 1520 625 1520 729 1520 c 0,19,20
 936 1520 936 1520 1056 1388.5 c 128,-1,21
 1176 1257 1176 1257 1176 1030 c 0,22,23
 1176 819 1176 819 1120.5 622 c 128,-1,24
 1065 425 1065 425 967 281 c 0,25,26
 863 129 863 129 717 50 c 128,-1,27
 571 -29 571 -29 393 -29 c 0,28,29
 316 -29 316 -29 239.5 -13.5 c 128,-1,30
 163 2 163 2 90 33 c 1,0,-1
362 940 m 0,31,32
 362 813 362 813 428 738.5 c 128,-1,33
 494 664 494 664 606 664 c 0,34,35
 761 664 761 664 866 783 c 128,-1,36
 971 902 971 902 971 1079 c 0,37,38
 971 1211 971 1211 906 1285.5 c 128,-1,39
 841 1360 841 1360 727 1360 c 0,40,41
 572 1360 572 1360 467 1238.5 c 128,-1,42
 362 1117 362 1117 362 940 c 0,31,32
EndSplineSet
EndChar
StartChar: colon
Encoding: 58 58 58
Width: 690
Flags: W
Fore
313 1059 m 1,0,-1
 524 1059 l 1,1,-1
 475 805 l 1,2,-1
 264 805 l 1,3,-1
 313 1059 l 1,0,-1
156 254 m 1,4,-1
 367 254 l 1,5,-1
 317 0 l 1,6,-1
 106 0 l 1,7,-1
 156 254 l 1,4,-1
EndSplineSet
EndChar
StartChar: semicolon
Encoding: 59 59 59
Width: 690
Flags: W
Fore
180 254 m 1,0,-1
 391 254 l 1,1,-1
 356 82 l 1,2,-1
 131 -238 l 1,3,-1
 2 -238 l 1,4,-1
 145 82 l 1,5,-1
 180 254 l 1,0,-1
336 1059 m 1,6,-1
 547 1059 l 1,7,-1
 498 805 l 1,8,-1
 287 805 l 1,9,-1
 336 1059 l 1,6,-1
EndSplineSet
EndChar
StartChar: less
Encoding: 60 60 60
Width: 1716
Flags: W
Fore
1499 1008 m 1,0,-1
 467 641 l 1,1,-1
 1499 276 l 1,2,-1
 1499 94 l 1,3,-1
 217 559 l 1,4,-1
 217 725 l 1,5,-1
 1499 1190 l 1,6,-1
 1499 1008 l 1,0,-1
EndSplineSet
EndChar
StartChar: equal
Encoding: 61 61 61
Width: 1716
Flags: W
Fore
217 930 m 1,0,-1
 1499 930 l 1,1,-1
 1499 762 l 1,2,-1
 217 762 l 1,3,-1
 217 930 l 1,0,-1
217 522 m 1,4,-1
 1499 522 l 1,5,-1
 1499 352 l 1,6,-1
 217 352 l 1,7,-1
 217 522 l 1,4,-1
EndSplineSet
EndChar
StartChar: greater
Encoding: 62 62 62
Width: 1716
Flags: W
Fore
217 1008 m 1,0,-1
 217 1190 l 1,1,-1
 1499 725 l 1,2,-1
 1499 559 l 1,3,-1
 217 94 l 1,4,-1
 217 276 l 1,5,-1
 1247 641 l 1,6,-1
 217 1008 l 1,0,-1
EndSplineSet
EndChar
StartChar: question
Encoding: 63 63 63
Width: 1087
Flags: W
Fore
510 254 m 1,0,-1
 461 0 l 1,1,-1
 258 0 l 1,2,-1
 307 254 l 1,3,-1
 510 254 l 1,0,-1
289 1407 m 1,4,5
 391 1464 391 1464 492.5 1492 c 128,-1,6
 594 1520 594 1520 700 1520 c 0,7,8
 861 1520 861 1520 954 1445 c 128,-1,9
 1047 1370 1047 1370 1047 1241 c 0,10,11
 1047 1138 1047 1138 993.5 1048 c 128,-1,12
 940 958 940 958 819 860 c 2,13,-1
 715 776 l 1,14,15
 631 710 631 710 603 663 c 128,-1,16
 575 616 575 616 557 524 c 1,17,-1
 532 401 l 1,18,-1
 342 401 l 1,19,-1
 373 555 l 1,20,21
 391 649 391 649 430 714.5 c 128,-1,22
 469 780 469 780 580 872 c 2,23,-1
 686 961 l 2,24,25
 770 1031 770 1031 804 1084 c 128,-1,26
 838 1137 838 1137 838 1194 c 0,27,28
 838 1270 838 1270 783.5 1313 c 128,-1,29
 729 1356 729 1356 633 1356 c 0,30,31
 553 1356 553 1356 454.5 1320.5 c 128,-1,32
 356 1285 356 1285 252 1219 c 1,33,-1
 289 1407 l 1,4,5
EndSplineSet
EndChar
StartChar: at
Encoding: 64 64 64
Width: 2048
Flags: W
Fore
1253 238 m 1,0,1
 1184 164 1184 164 1103.5 126 c 128,-1,2
 1023 88 1023 88 936 88 c 0,3,4
 789 88 789 88 692.5 187 c 128,-1,5
 596 286 596 286 596 438 c 0,6,7
 596 658 596 658 744.5 822.5 c 128,-1,8
 893 987 893 987 1092 987 c 0,9,10
 1184 987 1184 987 1256.5 947 c 128,-1,11
 1329 907 1329 907 1368 836 c 1,12,-1
 1395 967 l 1,13,-1
 1538 967 l 1,14,-1
 1395 229 l 1,15,16
 1572 257 1572 257 1686 409 c 128,-1,17
 1800 561 1800 561 1800 770 c 0,18,19
 1800 1003 1800 1003 1635 1150.5 c 128,-1,20
 1470 1298 1470 1298 1208 1298 c 0,21,22
 1030 1298 1030 1298 864 1235.5 c 128,-1,23
 698 1173 698 1173 571 1059 c 1,24,25
 426 925 426 925 345 749 c 128,-1,26
 264 573 264 573 264 389 c 0,27,28
 264 128 264 128 438.5 -42.5 c 128,-1,29
 613 -213 613 -213 883 -213 c 0,30,31
 1012 -213 1012 -213 1137 -169.5 c 128,-1,32
 1262 -126 1262 -126 1399 -33 c 1,33,-1
 1481 -147 l 1,34,35
 1346 -249 1346 -249 1189.5 -301.5 c 128,-1,36
 1033 -354 1033 -354 868 -354 c 0,37,38
 546 -354 546 -354 332.5 -140 c 128,-1,39
 119 74 119 74 119 401 c 0,40,41
 119 626 119 626 223.5 836.5 c 128,-1,42
 328 1047 328 1047 516 1200 c 0,43,44
 655 1314 655 1314 835 1377 c 128,-1,45
 1015 1440 1015 1440 1204 1440 c 0,46,47
 1525 1440 1525 1440 1735.5 1251 c 128,-1,48
 1946 1062 1946 1062 1946 778 c 0,49,50
 1946 483 1946 483 1742.5 286.5 c 128,-1,51
 1539 90 1539 90 1223 84 c 1,52,-1
 1253 238 l 1,0,1
1094 846 m 0,53,54
 953 846 953 846 854.5 734.5 c 128,-1,55
 756 623 756 623 756 467 c 0,56,57
 756 355 756 355 813 292 c 128,-1,58
 870 229 870 229 971 229 c 0,59,60
 1113 229 1113 229 1209 343 c 128,-1,61
 1305 457 1305 457 1305 623 c 0,62,63
 1305 725 1305 725 1247.5 785.5 c 128,-1,64
 1190 846 1190 846 1094 846 c 0,53,54
EndSplineSet
EndChar
StartChar: A
Encoding: 65 65 65
Width: 1401
Flags: W
AnchorPoint: "below" 554.896 0 basechar 0
AnchorPoint: "above" 861 1520 basechar 0
Fore
754 1493 m 1,0,-1
 983 1493 l 1,1,-1
 1260 0 l 1,2,-1
 1049 0 l 1,3,-1
 987 383 l 1,4,-1
 315 383 l 1,5,-1
 104 0 l 1,6,-1
 -109 0 l 1,7,-1
 754 1493 l 1,0,-1
827 1294 m 1,8,-1
 408 551 l 1,9,-1
 956 551 l 1,10,-1
 827 1294 l 1,8,-1
EndSplineSet
KernsSLIFO: 354 -149 0 0 538 -149 0 0 7812 -36 0 0 7810 -36 0 0 7808 -36 0 0 372 -36 0 0 356 -149 0 0 8217 -272 0 0 8221 -272 0 0 87 -36 0 0 86 -102 0 0 84 -149 0 0 59 38 0 0 58 38 0 0 46 38 0 0 44 38 0 0
EndChar
StartChar: B
Encoding: 66 66 66
Width: 1405
Flags: W
AnchorPoint: "above" 850.354 1520 basechar 0
AnchorPoint: "below" 554.896 0 basechar 0
Fore
346 1493 m 1,0,-1
 862 1493 l 2,1,2
 1072 1493 1072 1493 1176 1415 c 128,-1,3
 1280 1337 1280 1337 1280 1180 c 0,4,5
 1280 1036 1280 1036 1190.5 931.5 c 128,-1,6
 1101 827 1101 827 956 805 c 1,7,8
 1080 777 1080 777 1142 698 c 128,-1,9
 1204 619 1204 619 1204 487 c 0,10,11
 1204 262 1204 262 1037.5 131 c 128,-1,12
 871 0 871 0 582 0 c 2,13,-1
 55 0 l 1,14,-1
 346 1493 l 1,0,-1
395 713 m 1,15,-1
 289 166 l 1,16,-1
 614 166 l 2,17,18
 797 166 797 166 896 250 c 128,-1,19
 995 334 995 334 995 487 c 0,20,21
 995 605 995 605 929.5 659 c 128,-1,22
 864 713 864 713 719 713 c 2,23,-1
 395 713 l 1,15,-1
514 1327 m 1,24,-1
 426 877 l 1,25,-1
 727 877 l 2,26,27
 888 877 888 877 978.5 947 c 128,-1,28
 1069 1017 1069 1017 1069 1141 c 0,29,30
 1069 1238 1069 1238 1008 1282.5 c 128,-1,31
 947 1327 947 1327 813 1327 c 2,32,-1
 514 1327 l 1,24,-1
EndSplineSet
KernsSLIFO: 7922 -36 0 0 562 -36 0 0 374 -36 0 0 221 -36 0 0 376 -36 0 0 89 -36 0 0 45 -36 0 0
EndChar
StartChar: C
Encoding: 67 67 67
Width: 1430
Flags: W
AnchorPoint: "below" 699.09 0 basechar 0
AnchorPoint: "above" 979 1520 basechar 0
Fore
1423 1378 m 1,0,-1
 1382 1165 l 1,1,2
 1286 1262 1286 1262 1178.5 1309 c 128,-1,3
 1071 1356 1071 1356 946 1356 c 0,4,5
 775 1356 775 1356 645.5 1274 c 128,-1,6
 516 1192 516 1192 422 1024 c 0,7,8
 362 916 362 916 330.5 795.5 c 128,-1,9
 299 675 299 675 299 553 c 0,10,11
 299 349 299 349 404.5 242 c 128,-1,12
 510 135 510 135 711 135 c 0,13,14
 850 135 850 135 978 179.5 c 128,-1,15
 1106 224 1106 224 1227 313 c 1,16,-1
 1180 74 l 1,17,18
 1061 23 1061 23 939.5 -3 c 128,-1,19
 818 -29 818 -29 696 -29 c 0,20,21
 409 -29 409 -29 247.5 127 c 128,-1,22
 86 283 86 283 86 561 c 0,23,24
 86 739 86 739 147.5 911 c 128,-1,25
 209 1083 209 1083 324 1225 c 0,26,27
 446 1376 446 1376 602.5 1448 c 128,-1,28
 759 1520 759 1520 967 1520 c 0,29,30
 1095 1520 1095 1520 1209.5 1484.5 c 128,-1,31
 1324 1449 1324 1449 1423 1378 c 1,0,-1
EndSplineSet
KernsSLIFO: 536 38 0 0 348 38 0 0 346 38 0 0 350 38 0 0 352 38 0 0 8217 -45 0 0 8221 -45 0 0 83 38 0 0
EndChar
StartChar: D
Encoding: 68 68 68
Width: 1577
Flags: W
AnchorPoint: "below" 602.896 0 basechar 0
AnchorPoint: "above" 867 1520 basechar 0
Fore
346 1493 m 1,0,-1
 780 1493 l 2,1,2
 1126 1493 1126 1493 1302.5 1346.5 c 128,-1,3
 1479 1200 1479 1200 1479 911 c 0,4,5
 1479 720 1479 720 1412 543.5 c 128,-1,6
 1345 367 1345 367 1227 246 c 0,7,8
 1108 122 1108 122 925 61 c 128,-1,9
 742 0 742 0 492 0 c 2,10,-1
 55 0 l 1,11,-1
 346 1493 l 1,0,-1
516 1327 m 1,12,-1
 291 166 l 1,13,-1
 555 166 l 2,14,15
 894 166 894 166 1080 361 c 128,-1,16
 1266 556 1266 556 1266 911 c 0,17,18
 1266 1126 1266 1126 1146 1226.5 c 128,-1,19
 1026 1327 1026 1327 770 1327 c 2,20,-1
 516 1327 l 1,12,-1
EndSplineSet
EndChar
StartChar: E
Encoding: 69 69 69
Width: 1294
Flags: W
AnchorPoint: "below" 602.896 0 basechar 0
AnchorPoint: "above" 804 1520 basechar 0
Fore
346 1493 m 1,0,-1
 1290 1493 l 1,1,-1
 1257 1323 l 1,2,-1
 514 1323 l 1,3,-1
 428 881 l 1,4,-1
 1141 881 l 1,5,-1
 1108 711 l 1,6,-1
 395 711 l 1,7,-1
 291 170 l 1,8,-1
 1051 170 l 1,9,-1
 1018 0 l 1,10,-1
 55 0 l 1,11,-1
 346 1493 l 1,0,-1
EndSplineSet
EndChar
StartChar: F
Encoding: 70 70 70
Width: 1178
Flags: W
AnchorPoint: "above" 820.354 1520 basechar 0
AnchorPoint: "below" 524.896 0 basechar 0
Fore
346 1493 m 1,0,-1
 1202 1493 l 1,1,-1
 1169 1323 l 1,2,-1
 514 1323 l 1,3,-1
 428 883 l 1,4,-1
 1020 883 l 1,5,-1
 987 713 l 1,6,-1
 395 713 l 1,7,-1
 256 0 l 1,8,-1
 55 0 l 1,9,-1
 346 1493 l 1,0,-1
EndSplineSet
KernsSLIFO: 371 -83 0 0 369 -83 0 0 365 -83 0 0 363 -83 0 0 361 -83 0 0 260 -120 0 0 258 -120 0 0 256 -120 0 0 367 -83 0 0 193 -120 0 0 194 -120 0 0 195 -120 0 0 192 -120 0 0 252 -83 0 0 251 -83 0 0 249 -83 0 0 250 -83 0 0 196 -120 0 0 117 -83 0 0 65 -120 0 0 59 -73 0 0 58 -73 0 0 46 -264 0 0 45 -112 0 0 44 -264 0 0
EndChar
StartChar: G
Encoding: 71 71 71
Width: 1587
Flags: W
AnchorPoint: "below" 716.256 0 basechar 0
AnchorPoint: "above" 983 1520 basechar 0
Fore
1118 223 m 1,0,-1
 1196 614 l 1,1,-1
 864 614 l 1,2,-1
 895 780 l 1,3,-1
 1425 780 l 1,4,-1
 1296 123 l 1,5,6
 1163 50 1163 50 1006 10.5 c 128,-1,7
 849 -29 849 -29 690 -29 c 0,8,9
 409 -29 409 -29 250.5 127 c 128,-1,10
 92 283 92 283 92 561 c 0,11,12
 92 792 92 792 188.5 1000.5 c 128,-1,13
 285 1209 285 1209 455 1348 c 0,14,15
 562 1435 562 1435 689 1477.5 c 128,-1,16
 816 1520 816 1520 971 1520 c 0,17,18
 1111 1520 1111 1520 1239.5 1484.5 c 128,-1,19
 1368 1449 1368 1449 1485 1378 c 1,20,-1
 1444 1163 l 1,21,22
 1354 1257 1354 1257 1233 1306.5 c 128,-1,23
 1112 1356 1112 1356 975 1356 c 0,24,25
 816 1356 816 1356 695 1295.5 c 128,-1,26
 574 1235 574 1235 479 1108 c 0,27,28
 398 1000 398 1000 351.5 853.5 c 128,-1,29
 305 707 305 707 305 555 c 0,30,31
 305 346 305 346 412 240.5 c 128,-1,32
 519 135 519 135 731 135 c 0,33,34
 837 135 837 135 936 157.5 c 128,-1,35
 1035 180 1035 180 1118 223 c 1,0,-1
EndSplineSet
EndChar
StartChar: H
Encoding: 72 72 72
Width: 1540
Flags: W
AnchorPoint: "below" 624.896 0 basechar 0
AnchorPoint: "above" 933 1520 basechar 0
Fore
346 1493 m 1,0,-1
 549 1493 l 1,1,-1
 430 881 l 1,2,-1
 1163 881 l 1,3,-1
 1282 1493 l 1,4,-1
 1485 1493 l 1,5,-1
 1194 0 l 1,6,-1
 991 0 l 1,7,-1
 1130 711 l 1,8,-1
 397 711 l 1,9,-1
 258 0 l 1,10,-1
 55 0 l 1,11,-1
 346 1493 l 1,0,-1
EndSplineSet
EndChar
StartChar: I
Encoding: 73 73 73
Width: 604
Flags: W
AnchorPoint: "below" 157.896 0 basechar 0
AnchorPoint: "above" 447 1520 basechar 0
Fore
346 1493 m 1,0,-1
 549 1493 l 1,1,-1
 258 0 l 1,2,-1
 55 0 l 1,3,-1
 346 1493 l 1,0,-1
EndSplineSet
EndChar
StartChar: J
Encoding: 74 74 74
Width: 604
Flags: W
AnchorPoint: "below" 113.159 -430 basechar 0
AnchorPoint: "above" 461 1520 basechar 0
Fore
342 1493 m 1,0,-1
 545 1493 l 1,1,-1
 274 104 l 2,2,3
 221 -167 221 -167 95.5 -288.5 c 128,-1,4
 -30 -410 -30 -410 -256 -410 c 2,5,-1
 -336 -410 l 1,6,-1
 -303 -240 l 1,7,-1
 -240 -240 l 2,8,9
 -105 -240 -105 -240 -35 -163 c 128,-1,10
 35 -86 35 -86 72 104 c 2,11,-1
 342 1493 l 1,0,-1
EndSplineSet
AlternateSubs: 0 2 'aalt' J.alt
Substitution: 0 2 'salt' J.alt
EndChar
StartChar: K
Encoding: 75 75 75
Width: 1343
Flags: W
AnchorPoint: "above" 820.354 1520 basechar 0
AnchorPoint: "below" 524.896 0 basechar 0
Fore
346 1493 m 1,0,-1
 549 1493 l 1,1,-1
 426 864 l 1,2,-1
 1210 1493 l 1,3,-1
 1479 1493 l 1,4,-1
 592 780 l 1,5,-1
 1241 0 l 1,6,-1
 995 0 l 1,7,-1
 399 727 l 1,8,-1
 258 0 l 1,9,-1
 55 0 l 1,10,-1
 346 1493 l 1,0,-1
EndSplineSet
KernsSLIFO: 367 -55 0 0 366 -36 0 0 283 -73 0 0 268 -55 0 0 262 -55 0 0 253 -55 0 0 217 -36 0 0 219 -36 0 0 218 -36 0 0 210 -55 0 0 212 -55 0 0 211 -55 0 0 255 -55 0 0 339 -92 0 0 338 -55 0 0 213 -55 0 0 248 -92 0 0 230 -36 0 0 216 -55 0 0 252 -55 0 0 251 -55 0 0 249 -55 0 0 250 -55 0 0 245 -73 0 0 246 -73 0 0 244 -73 0 0 242 -73 0 0 243 -73 0 0 235 -73 0 0 234 -73 0 0 232 -73 0 0 233 -73 0 0 229 -73 0 0 227 -73 0 0 228 -73 0 0 226 -73 0 0 224 -73 0 0 225 -73 0 0 220 -36 0 0 214 -55 0 0 199 -55 0 0 121 -55 0 0 117 -55 0 0 111 -73 0 0 101 -73 0 0 97 -73 0 0 85 -36 0 0 79 -55 0 0 67 -55 0 0 45 -206 0 0
EndChar
StartChar: L
Encoding: 76 76 76
Width: 1141
Flags: W
AnchorPoint: "above" 448.354 1520 basechar 0
AnchorPoint: "below" 519.896 0 basechar 0
Fore
344 1493 m 1,0,-1
 547 1493 l 1,1,-1
 291 168 l 1,2,-1
 1018 168 l 1,3,-1
 985 0 l 1,4,-1
 55 0 l 1,5,-1
 344 1493 l 1,0,-1
EndSplineSet
KernsSLIFO: 356 -139 0 0 253 -73 0 0 221 -196 0 0 210 -63 0 0 212 -63 0 0 211 -63 0 0 376 -196 0 0 255 -73 0 0 8217 -368 0 0 8216 -188 0 0 8221 -368 0 0 8220 -188 0 0 338 -63 0 0 213 -63 0 0 216 -63 0 0 214 -63 0 0 121 -73 0 0 89 -196 0 0 87 -83 0 0 86 -149 0 0 84 -139 0 0 79 -63 0 0 45 -159 0 0
EndChar
StartChar: M
Encoding: 77 77 77
Width: 1767
Flags: W
AnchorPoint: "below" 737.896 0 basechar 0
AnchorPoint: "above" 1033.35 1520 basechar 0
Fore
346 1493 m 1,0,-1
 649 1493 l 1,1,-1
 823 487 l 1,2,-1
 1401 1493 l 1,3,-1
 1712 1493 l 1,4,-1
 1421 0 l 1,5,-1
 1225 0 l 1,6,-1
 1479 1309 l 1,7,-1
 893 287 l 1,8,-1
 696 287 l 1,9,-1
 506 1313 l 1,10,-1
 252 0 l 1,11,-1
 55 0 l 1,12,-1
 346 1493 l 1,0,-1
EndSplineSet
EndChar
StartChar: N
Encoding: 78 78 78
Width: 1532
Flags: W
AnchorPoint: "below" 611.896 0 basechar 0
AnchorPoint: "above" 945 1520 basechar 0
Fore
346 1493 m 1,0,-1
 618 1493 l 1,1,-1
 1030 213 l 1,2,-1
 1280 1493 l 1,3,-1
 1477 1493 l 1,4,-1
 1186 0 l 1,5,-1
 913 0 l 1,6,-1
 502 1288 l 1,7,-1
 252 0 l 1,8,-1
 55 0 l 1,9,-1
 346 1493 l 1,0,-1
EndSplineSet
EndChar
StartChar: O
Encoding: 79 79 79
Width: 1612
Flags: W
AnchorPoint: "below" 662.09 0 basechar 0
AnchorPoint: "above" 984 1520 basechar 0
Fore
934 1356 m 0,0,1
 768 1356 768 1356 641 1275.5 c 128,-1,2
 514 1195 514 1195 420 1030 c 0,3,4
 360 925 360 925 328.5 807 c 128,-1,5
 297 689 297 689 297 569 c 0,6,7
 297 361 297 361 396.5 248 c 128,-1,8
 496 135 496 135 678 135 c 0,9,10
 842 135 842 135 970.5 216.5 c 128,-1,11
 1099 298 1099 298 1190 459 c 0,12,13
 1251 567 1251 567 1283 685.5 c 128,-1,14
 1315 804 1315 804 1315 922 c 0,15,16
 1315 1129 1315 1129 1215 1242.5 c 128,-1,17
 1115 1356 1115 1356 934 1356 c 0,0,1
672 -29 m 0,18,19
 397 -29 397 -29 239.5 134 c 128,-1,20
 82 297 82 297 82 580 c 0,21,22
 82 742 82 742 143.5 911 c 128,-1,23
 205 1080 205 1080 313 1212 c 0,24,25
 440 1367 440 1367 596 1443.5 c 128,-1,26
 752 1520 752 1520 940 1520 c 0,27,28
 1214 1520 1214 1520 1372 1358.5 c 128,-1,29
 1530 1197 1530 1197 1530 918 c 0,30,31
 1530 746 1530 746 1470 580 c 128,-1,32
 1410 414 1410 414 1298 279 c 0,33,34
 1170 123 1170 123 1015.5 47 c 128,-1,35
 861 -29 861 -29 672 -29 c 0,18,19
EndSplineSet
KernsSLIFO: 88 -55 0 0 59 38 0 0 58 38 0 0 46 -83 0 0 44 -83 0 0
EndChar
StartChar: P
Encoding: 80 80 80
Width: 1235
Flags: W
AnchorPoint: "above" 820.354 1520 basechar 0
AnchorPoint: "below" 524.896 0 basechar 0
Fore
346 1493 m 1,0,-1
 813 1493 l 2,1,2
 1017 1493 1017 1493 1124 1398 c 128,-1,3
 1231 1303 1231 1303 1231 1120 c 0,4,5
 1231 874 1231 874 1073 737 c 128,-1,6
 915 600 915 600 629 600 c 2,7,-1
 375 600 l 1,8,-1
 258 0 l 1,9,-1
 55 0 l 1,10,-1
 346 1493 l 1,0,-1
516 1327 m 1,11,-1
 408 766 l 1,12,-1
 662 766 l 2,13,14
 834 766 834 766 926 854 c 128,-1,15
 1018 942 1018 942 1018 1106 c 0,16,17
 1018 1211 1018 1211 955.5 1269 c 128,-1,18
 893 1327 893 1327 780 1327 c 2,19,-1
 516 1327 l 1,11,-1
EndSplineSet
KernsSLIFO: 193 -102 0 0 194 -102 0 0 195 -102 0 0 192 -102 0 0 196 -102 0 0 65 -102 0 0 59 -36 0 0 58 -36 0 0 46 -282 0 0 45 -112 0 0 44 -282 0 0
EndChar
StartChar: Q
Encoding: 81 81 81
Width: 1612
Flags: W
AnchorPoint: "above" 980.387 1520 basechar 0
AnchorPoint: "below" 684.929 0 basechar 0
Fore
739 -27 m 1,0,1
 728 -28 728 -28 716 -28.5 c 128,-1,2
 704 -29 704 -29 680 -29 c 0,3,4
 400 -29 400 -29 242 131.5 c 128,-1,5
 84 292 84 292 84 575 c 0,6,7
 84 742 84 742 144.5 910 c 128,-1,8
 205 1078 205 1078 313 1212 c 0,9,10
 438 1366 438 1366 594.5 1443 c 128,-1,11
 751 1520 751 1520 940 1520 c 0,12,13
 1214 1520 1214 1520 1372 1358.5 c 128,-1,14
 1530 1197 1530 1197 1530 918 c 0,15,16
 1530 617 1530 617 1365 367 c 128,-1,17
 1200 117 1200 117 934 14 c 1,18,-1
 1137 -264 l 1,19,-1
 911 -264 l 1,20,-1
 739 -27 l 1,0,1
934 1356 m 0,21,22
 768 1356 768 1356 641 1275.5 c 128,-1,23
 514 1195 514 1195 420 1030 c 0,24,25
 360 925 360 925 328.5 807 c 128,-1,26
 297 689 297 689 297 569 c 0,27,28
 297 361 297 361 396.5 248 c 128,-1,29
 496 135 496 135 678 135 c 0,30,31
 842 135 842 135 970.5 216.5 c 128,-1,32
 1099 298 1099 298 1190 459 c 0,33,34
 1251 567 1251 567 1283 685.5 c 128,-1,35
 1315 804 1315 804 1315 922 c 0,36,37
 1315 1129 1315 1129 1215 1242.5 c 128,-1,38
 1115 1356 1115 1356 934 1356 c 0,21,22
EndSplineSet
KernsSLIFO: 45 38 0 0
EndChar
StartChar: R
Encoding: 82 82 82
Width: 1423
Flags: W
AnchorPoint: "above" 784.632 1506 basechar 0
AnchorPoint: "below" 491.896 0 basechar 0
Fore
516 1327 m 1,0,-1
 414 797 l 1,1,-1
 674 797 l 2,2,3
 827 797 827 797 921.5 881.5 c 128,-1,4
 1016 966 1016 966 1016 1102 c 0,5,6
 1016 1211 1016 1211 952.5 1269 c 128,-1,7
 889 1327 889 1327 770 1327 c 2,8,-1
 516 1327 l 1,0,-1
887 717 m 1,9,10
 951 702 951 702 993.5 643 c 128,-1,11
 1036 584 1036 584 1092 408 c 1,12,-1
 1219 0 l 1,13,-1
 1006 0 l 1,14,-1
 889 383 l 2,15,16
 844 531 844 531 785 581 c 128,-1,17
 726 631 726 631 604 631 c 2,18,-1
 381 631 l 1,19,-1
 258 0 l 1,20,-1
 55 0 l 1,21,-1
 346 1493 l 1,22,-1
 801 1493 l 2,23,24
 1008 1493 1008 1493 1118.5 1399.5 c 128,-1,25
 1229 1306 1229 1306 1229 1130 c 0,26,27
 1229 974 1229 974 1135 860 c 128,-1,28
 1041 746 1041 746 887 717 c 1,9,10
EndSplineSet
EndChar
StartChar: S
Encoding: 83 83 83
Width: 1300
Flags: W
AnchorPoint: "below" 514.09 0 basechar 0
AnchorPoint: "above" 796 1520 basechar 0
Fore
1235 1444 m 1,0,-1
 1196 1247 l 1,1,2
 1095 1301 1095 1301 995.5 1328.5 c 128,-1,3
 896 1356 896 1356 803 1356 c 0,4,5
 622 1356 622 1356 515 1277 c 128,-1,6
 408 1198 408 1198 408 1067 c 0,7,8
 408 995 408 995 447.5 956.5 c 128,-1,9
 487 918 487 918 651 874 c 1,10,-1
 772 844 l 2,11,12
 977 791 977 791 1057 709.5 c 128,-1,13
 1137 628 1137 628 1137 481 c 0,14,15
 1137 255 1137 255 959.5 113 c 128,-1,16
 782 -29 782 -29 492 -29 c 0,17,18
 373 -29 373 -29 253 -5.5 c 128,-1,19
 133 18 133 18 12 66 c 1,20,-1
 53 274 l 1,21,22
 164 205 164 205 275.5 170 c 128,-1,23
 387 135 387 135 498 135 c 0,24,25
 687 135 687 135 801 219 c 128,-1,26
 915 303 915 303 915 438 c 0,27,28
 915 528 915 528 869.5 574.5 c 128,-1,29
 824 621 824 621 674 659 c 2,30,-1
 553 690 l 2,31,32
 346 744 346 744 270.5 814.5 c 128,-1,33
 195 885 195 885 195 1012 c 0,34,35
 195 1235 195 1235 366.5 1377.5 c 128,-1,36
 538 1520 538 1520 813 1520 c 0,37,38
 920 1520 920 1520 1025 1501 c 128,-1,39
 1130 1482 1130 1482 1235 1444 c 1,0,-1
EndSplineSet
KernsSLIFO: 350 -73 0 0 352 -73 0 0 83 -73 0 0
EndChar
StartChar: T
Encoding: 84 84 84
Width: 1251
Flags: W
AnchorPoint: "below" 481.896 0 basechar 0
AnchorPoint: "above" 771 1520 basechar 0
Fore
121 1493 m 1,0,-1
 1384 1493 l 1,1,-1
 1352 1323 l 1,2,-1
 819 1323 l 1,3,-1
 563 0 l 1,4,-1
 360 0 l 1,5,-1
 616 1323 l 1,6,-1
 88 1323 l 1,7,-1
 121 1493 l 1,0,-1
EndSplineSet
KernsSLIFO: 252 -206 0 0 229 -215 0 0 230 -253 0 0 59 -188 0 0 242 -253 0 0 45 -292 0 0 46 -243 0 0 367 -206 0 0 245 -253 0 0 235 -253 0 0 249 -206 0 0 58 -188 0 0 224 -215 0 0 195 -188 0 0 234 -253 0 0 231 -253 0 0 341 -159 0 0 232 -253 0 0 196 -188 0 0 193 -188 0 0 269 -253 0 0 251 -206 0 0 253 -178 0 0 227 -215 0 0 194 -188 0 0 248 -253 0 0 244 -253 0 0 353 -243 0 0 65 -188 0 0 283 -253 0 0 351 -243 0 0 228 -215 0 0 119 -167 0 0 246 -253 0 0 250 -206 0 0 263 -253 0 0 225 -215 0 0 345 -159 0 0 226 -215 0 0 233 -253 0 0 97 -215 0 0 99 -253 0 0 101 -253 0 0 339 -253 0 0 255 -178 0 0 111 -253 0 0 115 -243 0 0 114 -159 0 0 117 -206 0 0 192 -188 0 0 121 -178 0 0 44 -243 0 0 243 -253 0 0
EndChar
StartChar: U
Encoding: 85 85 85
Width: 1499
Flags: W
AnchorPoint: "below" 607.714 0 basechar 0
AnchorPoint: "above" 894 1520 basechar 0
Fore
317 1493 m 1,0,-1
 520 1493 l 1,1,-1
 344 586 l 1,2,3
 333 525 333 525 328.5 485.5 c 128,-1,4
 324 446 324 446 324 416 c 0,5,6
 324 278 324 278 401 206.5 c 128,-1,7
 478 135 478 135 627 135 c 0,8,9
 820 135 820 135 927.5 241 c 128,-1,10
 1035 347 1035 347 1081 586 c 1,11,-1
 1257 1493 l 1,12,-1
 1460 1493 l 1,13,-1
 1280 561 l 1,14,15
 1221 259 1221 259 1056 115 c 128,-1,16
 891 -29 891 -29 604 -29 c 0,17,18
 380 -29 380 -29 249.5 83.5 c 128,-1,19
 119 196 119 196 119 389 c 0,20,21
 119 424 119 424 124 467.5 c 128,-1,22
 129 511 129 511 139 561 c 1,23,-1
 317 1493 l 1,0,-1
EndSplineSet
EndChar
StartChar: V
Encoding: 86 86 86
Width: 1401
Flags: W
AnchorPoint: "above" 850.354 1520 basechar 0
AnchorPoint: "below" 554.896 0 basechar 0
Fore
422 0 m 1,0,-1
 160 1493 l 1,1,-1
 358 1493 l 1,2,-1
 575 209 l 1,3,-1
 1300 1493 l 1,4,-1
 1520 1493 l 1,5,-1
 657 0 l 1,6,-1
 422 0 l 1,0,-1
EndSplineSet
KernsSLIFO: 367 -36 0 0 283 -120 0 0 193 -139 0 0 194 -139 0 0 339 -120 0 0 195 -139 0 0 192 -139 0 0 248 -120 0 0 230 -149 0 0 252 -36 0 0 251 -36 0 0 249 -36 0 0 250 -36 0 0 245 -120 0 0 246 -120 0 0 244 -120 0 0 242 -120 0 0 243 -120 0 0 235 -120 0 0 234 -120 0 0 232 -120 0 0 233 -120 0 0 229 -131 0 0 227 -131 0 0 228 -131 0 0 226 -131 0 0 224 -131 0 0 225 -131 0 0 196 -139 0 0 117 -36 0 0 111 -120 0 0 101 -120 0 0 97 -131 0 0 65 -139 0 0 59 -55 0 0 58 -55 0 0 46 -235 0 0 45 -178 0 0 44 -235 0 0
EndChar
StartChar: W
Encoding: 87 87 87
Width: 2025
Flags: W
AnchorPoint: "below" 867.896 0 basechar 0
AnchorPoint: "above" 1161 1527 basechar 0
Fore
197 1493 m 1,0,-1
 393 1493 l 1,1,-1
 465 223 l 1,2,-1
 1028 1493 l 1,3,-1
 1253 1493 l 1,4,-1
 1327 223 l 1,5,-1
 1884 1493 l 1,6,-1
 2089 1493 l 1,7,-1
 1425 0 l 1,8,-1
 1171 0 l 1,9,-1
 1102 1245 l 1,10,-1
 543 0 l 1,11,-1
 289 0 l 1,12,-1
 197 1493 l 1,0,-1
EndSplineSet
KernsSLIFO: 229 -112 0 0 230 -112 0 0 45 -159 0 0 46 -167 0 0 44 -167 0 0 224 -112 0 0 195 -102 0 0 341 -36 0 0 8221 -36 0 0 196 -102 0 0 193 -102 0 0 8217 -36 0 0 227 -112 0 0 194 -102 0 0 65 -102 0 0 228 -112 0 0 225 -112 0 0 345 -36 0 0 226 -112 0 0 97 -112 0 0 114 -36 0 0 192 -102 0 0
EndChar
StartChar: X
Encoding: 88 88 88
Width: 1403
Flags: W
AnchorPoint: "above" 867.354 1520 basechar 0
AnchorPoint: "below" 571.896 0 basechar 0
Fore
281 1493 m 1,0,-1
 485 1493 l 1,1,-1
 741 954 l 1,2,-1
 1204 1493 l 1,3,-1
 1440 1493 l 1,4,-1
 825 780 l 1,5,-1
 1196 0 l 1,6,-1
 993 0 l 1,7,-1
 692 629 l 1,8,-1
 147 0 l 1,9,-1
 -88 0 l 1,10,-1
 610 803 l 1,11,-1
 281 1493 l 1,0,-1
EndSplineSet
KernsSLIFO: 268 -36 0 0 262 -36 0 0 210 -73 0 0 212 -73 0 0 211 -73 0 0 338 -55 0 0 213 -73 0 0 216 -36 0 0 214 -73 0 0 199 -36 0 0 79 -73 0 0 67 -36 0 0 45 -188 0 0
EndChar
StartChar: Y
Encoding: 89 89 89
Width: 1251
Flags: W
AnchorPoint: "below" 480.896 0 basechar 0
AnchorPoint: "above" 767 1527 basechar 0
Fore
129 1493 m 1,0,-1
 346 1493 l 1,1,-1
 625 879 l 1,2,-1
 1157 1493 l 1,3,-1
 1384 1493 l 1,4,-1
 707 711 l 1,5,-1
 569 0 l 1,6,-1
 367 0 l 1,7,-1
 504 711 l 1,8,-1
 129 1493 l 1,0,-1
EndSplineSet
KernsSLIFO: 367 -188 0 0 283 -225 0 0 268 -36 0 0 262 -36 0 0 210 -36 0 0 212 -36 0 0 211 -36 0 0 193 -159 0 0 194 -159 0 0 8216 -45 0 0 8220 -45 0 0 339 -225 0 0 338 -36 0 0 213 -36 0 0 195 -159 0 0 192 -159 0 0 248 -225 0 0 230 -188 0 0 216 -36 0 0 252 -188 0 0 251 -188 0 0 249 -188 0 0 250 -188 0 0 245 -225 0 0 246 -225 0 0 244 -225 0 0 242 -225 0 0 243 -225 0 0 235 -225 0 0 234 -225 0 0 232 -225 0 0 233 -225 0 0 229 -188 0 0 227 -188 0 0 228 -188 0 0 226 -188 0 0 224 -188 0 0 225 -188 0 0 214 -36 0 0 199 -36 0 0 196 -159 0 0 117 -188 0 0 111 -225 0 0 105 -36 0 0 101 -225 0 0 97 -188 0 0 79 -36 0 0 67 -36 0 0 65 -159 0 0 59 -178 0 0 58 -178 0 0 46 -264 0 0 45 -282 0 0 44 -264 0 0
EndChar
StartChar: Z
Encoding: 90 90 90
Width: 1403
Flags: W
AnchorPoint: "below" 556.896 0 basechar 0
AnchorPoint: "above" 847 1520 basechar 0
Fore
268 1493 m 1,0,-1
 1440 1493 l 1,1,-1
 1411 1339 l 1,2,-1
 254 170 l 1,3,-1
 1206 170 l 1,4,-1
 1174 0 l 1,5,-1
 -45 0 l 1,6,-1
 -16 154 l 1,7,-1
 1141 1323 l 1,8,-1
 236 1323 l 1,9,-1
 268 1493 l 1,0,-1
EndSplineSet
KernsSLIFO: 45 -102 0 0
EndChar
StartChar: bracketleft
Encoding: 91 91 91
Width: 799
Flags: W
Fore
436 1556 m 1,0,-1
 860 1556 l 1,1,-1
 831 1413 l 1,2,-1
 592 1413 l 1,3,-1
 293 -127 l 1,4,-1
 532 -127 l 1,5,-1
 506 -270 l 1,6,-1
 82 -270 l 1,7,-1
 436 1556 l 1,0,-1
EndSplineSet
EndChar
StartChar: backslash
Encoding: 92 92 92
Width: 690
Flags: W
Fore
344 1493 m 1,0,-1
 537 -190 l 1,1,-1
 369 -190 l 1,2,-1
 174 1493 l 1,3,-1
 344 1493 l 1,0,-1
EndSplineSet
EndChar
StartChar: bracketright
Encoding: 93 93 93
Width: 799
Flags: W
Fore
700 1556 m 1,0,-1
 346 -270 l 1,1,-1
 -78 -270 l 1,2,-1
 -51 -127 l 1,3,-1
 188 -127 l 1,4,-1
 487 1413 l 1,5,-1
 250 1413 l 1,6,-1
 276 1556 l 1,7,-1
 700 1556 l 1,0,-1
EndSplineSet
EndChar
StartChar: asciicircum
Encoding: 94 94 94
Width: 1716
Flags: W
Fore
956 1493 m 1,0,-1
 1499 936 l 1,1,-1
 1298 936 l 1,2,-1
 858 1331 l 1,3,-1
 418 936 l 1,4,-1
 217 936 l 1,5,-1
 760 1493 l 1,6,-1
 956 1493 l 1,0,-1
EndSplineSet
EndChar
StartChar: underscore
Encoding: 95 95 95
Width: 1024
Flags: W
Fore
1044 -340 m 1,0,-1
 1044 -483 l 1,1,-1
 -20 -483 l 1,2,-1
 -20 -340 l 1,3,-1
 1044 -340 l 1,0,-1
EndSplineSet
EndChar
StartChar: grave
Encoding: 96 96 96
Width: 1024
Flags: W
Fore
586 1638 m 1,0,-1
 795 1264 l 1,1,-1
 641 1264 l 1,2,-1
 389 1638 l 1,3,-1
 586 1638 l 1,0,-1
EndSplineSet
EndChar
StartChar: a
Encoding: 97 97 97
Width: 1255
Flags: W
AnchorPoint: "below" 500 0 basechar 0
AnchorPoint: "above" 718 1147 basechar 0
Fore
1100 639 m 1,0,-1
 975 0 l 1,1,-1
 791 0 l 1,2,-1
 825 170 l 1,3,4
 744 70 744 70 640.5 20.5 c 128,-1,5
 537 -29 537 -29 410 -29 c 0,6,7
 267 -29 267 -29 175.5 58.5 c 128,-1,8
 84 146 84 146 84 283 c 0,9,10
 84 479 84 479 240.5 593 c 128,-1,11
 397 707 397 707 672 707 c 2,12,-1
 928 707 l 1,13,-1
 938 756 l 1,14,15
 940 764 940 764 941 773.5 c 128,-1,16
 942 783 942 783 942 803 c 0,17,18
 942 892 942 892 869.5 941.5 c 128,-1,19
 797 991 797 991 666 991 c 0,20,21
 576 991 576 991 481.5 968 c 128,-1,22
 387 945 387 945 287 899 c 1,23,-1
 319 1069 l 1,24,25
 423 1108 423 1108 522.5 1127.5 c 128,-1,26
 622 1147 622 1147 715 1147 c 0,27,28
 913 1147 913 1147 1016.5 1061 c 128,-1,29
 1120 975 1120 975 1120 811 c 0,30,31
 1120 778 1120 778 1115 733.5 c 128,-1,32
 1110 689 1110 689 1100 639 c 1,0,-1
901 563 m 1,33,-1
 717 563 l 2,34,35
 491 563 491 563 382.5 502.5 c 128,-1,36
 274 442 274 442 274 315 c 0,37,38
 274 227 274 227 329.5 177 c 128,-1,39
 385 127 385 127 483 127 c 0,40,41
 633 127 633 127 745 234.5 c 128,-1,42
 857 342 857 342 893 522 c 2,43,-1
 901 563 l 1,33,-1
EndSplineSet
Substitution: 0 2 'salt' uni0251
Substitution: 0 2 'aalt' uni0251
EndChar
StartChar: b
Encoding: 98 98 98
Width: 1300
Flags: W
AnchorPoint: "above" 465.049 1520 basechar 0
AnchorPoint: "below" 586.591 0 basechar 0
Fore
1014 684 m 0,0,1
 1014 829 1014 829 947.5 911 c 128,-1,2
 881 993 881 993 764 993 c 0,3,4
 679 993 679 993 604.5 951.5 c 128,-1,5
 530 910 530 910 475 831 c 0,6,7
 417 748 417 748 383.5 638.5 c 128,-1,8
 350 529 350 529 350 420 c 0,9,10
 350 282 350 282 415.5 203.5 c 128,-1,11
 481 125 481 125 596 125 c 0,12,13
 683 125 683 125 757 165.5 c 128,-1,14
 831 206 831 206 887 285 c 0,15,16
 944 367 944 367 979 476 c 128,-1,17
 1014 585 1014 585 1014 684 c 0,0,1
442 950 m 1,18,19
 510 1042 510 1042 612.5 1094.5 c 128,-1,20
 715 1147 715 1147 827 1147 c 0,21,22
 999 1147 999 1147 1100.5 1031 c 128,-1,23
 1202 915 1202 915 1202 717 c 0,24,25
 1202 555 1202 555 1142.5 403 c 128,-1,26
 1083 251 1083 251 973 133 c 0,27,28
 901 55 901 55 807 13 c 128,-1,29
 713 -29 713 -29 610 -29 c 0,30,31
 501 -29 501 -29 421 21 c 128,-1,32
 341 71 341 71 291 170 c 1,33,-1
 258 0 l 1,34,-1
 74 0 l 1,35,-1
 377 1556 l 1,36,-1
 561 1556 l 1,37,-1
 442 950 l 1,18,19
EndSplineSet
EndChar
StartChar: c
Encoding: 99 99 99
Width: 1126
Flags: W
AnchorPoint: "below" 562 0 basechar 0
AnchorPoint: "above" 770 1147 basechar 0
Fore
1098 1077 m 1,0,-1
 1061 895 l 1,1,2
 995 943 995 943 920.5 967 c 128,-1,3
 846 991 846 991 766 991 c 0,4,5
 678 991 678 991 598.5 960 c 128,-1,6
 519 929 519 929 465 872 c 1,7,8
 379 785 379 785 332 668 c 128,-1,9
 285 551 285 551 285 426 c 0,10,11
 285 275 285 275 360.5 201 c 128,-1,12
 436 127 436 127 590 127 c 0,13,14
 666 127 666 127 751.5 150 c 128,-1,15
 837 173 837 173 930 219 c 1,16,-1
 895 37 l 1,17,18
 815 4 815 4 730.5 -12.5 c 128,-1,19
 646 -29 646 -29 557 -29 c 0,20,21
 334 -29 334 -29 214 82.5 c 128,-1,22
 94 194 94 194 94 401 c 0,23,24
 94 575 94 575 156.5 721.5 c 128,-1,25
 219 868 219 868 342 985 c 0,26,27
 426 1065 426 1065 539 1106 c 128,-1,28
 652 1147 652 1147 786 1147 c 0,29,30
 864 1147 864 1147 941 1129.5 c 128,-1,31
 1018 1112 1018 1112 1098 1077 c 1,0,-1
EndSplineSet
EndChar
StartChar: d
Encoding: 100 100 100
Width: 1300
Flags: W
AnchorPoint: "above" 1197.05 1520 basechar 0
AnchorPoint: "below" 493.591 0 basechar 0
Fore
856 168 m 1,0,1
 782 71 782 71 681 21 c 128,-1,2
 580 -29 580 -29 457 -29 c 0,3,4
 289 -29 289 -29 191.5 85.5 c 128,-1,5
 94 200 94 200 94 399 c 0,6,7
 94 565 94 565 153 715.5 c 128,-1,8
 212 866 212 866 324 985 c 0,9,10
 398 1064 398 1064 491 1105.5 c 128,-1,11
 584 1147 584 1147 686 1147 c 0,12,13
 794 1147 794 1147 876.5 1095 c 128,-1,14
 959 1043 959 1043 1004 946 c 1,15,-1
 1124 1556 l 1,16,-1
 1309 1556 l 1,17,-1
 1006 0 l 1,18,-1
 821 0 l 1,19,-1
 856 168 l 1,0,1
285 432 m 0,20,21
 285 287 285 287 350.5 206 c 128,-1,22
 416 125 416 125 532 125 c 0,23,24
 618 125 618 125 691.5 166.5 c 128,-1,25
 765 208 765 208 821 289 c 0,26,27
 880 373 880 373 914 483 c 128,-1,28
 948 593 948 593 948 700 c 0,29,30
 948 839 948 839 882.5 917 c 128,-1,31
 817 995 817 995 702 995 c 0,32,33
 615 995 615 995 540 954 c 128,-1,34
 465 913 465 913 412 836 c 0,35,36
 354 753 354 753 319.5 643 c 128,-1,37
 285 533 285 533 285 432 c 0,20,21
EndSplineSet
EndChar
StartChar: e
Encoding: 101 101 101
Width: 1260
Flags: W
AnchorPoint: "below" 536 0 basechar 0
AnchorPoint: "above" 729 1147 basechar 0
Fore
985 660 m 1,0,1
 988 676 988 676 989.5 693 c 128,-1,2
 991 710 991 710 991 727 c 0,3,4
 991 849 991 849 919.5 920 c 128,-1,5
 848 991 848 991 725 991 c 0,6,7
 588 991 588 991 483 904.5 c 128,-1,8
 378 818 378 818 324 659 c 1,9,-1
 985 660 l 1,0,1
1145 516 m 1,10,-1
 289 516 l 1,11,12
 283 478 283 478 281 456 c 128,-1,13
 279 434 279 434 279 418 c 0,14,15
 279 279 279 279 364.5 203 c 128,-1,16
 450 127 450 127 606 127 c 0,17,18
 726 127 726 127 833 154 c 128,-1,19
 940 181 940 181 1032 233 c 1,20,-1
 997 51 l 1,21,22
 898 11 898 11 792.5 -9 c 128,-1,23
 687 -29 687 -29 578 -29 c 0,24,25
 345 -29 345 -29 219.5 82.5 c 128,-1,26
 94 194 94 194 94 399 c 0,27,28
 94 574 94 574 156.5 724.5 c 128,-1,29
 219 875 219 875 340 993 c 1,30,31
 418 1067 418 1067 525.5 1107 c 128,-1,32
 633 1147 633 1147 754 1147 c 0,33,34
 944 1147 944 1147 1056.5 1033 c 128,-1,35
 1169 919 1169 919 1169 727 c 0,36,37
 1169 681 1169 681 1163 628.5 c 128,-1,38
 1157 576 1157 576 1145 516 c 1,10,-1
EndSplineSet
EndChar
StartChar: f
Encoding: 102 102 102
Width: 721
Flags: W
AnchorPoint: "above" 527.23 1520 basechar 0
AnchorPoint: "below" 231.772 0 basechar 0
Fore
979 1556 m 1,0,-1
 950 1403 l 1,1,-1
 774 1403 l 2,2,3
 674 1403 674 1403 628.5 1363.5 c 128,-1,4
 583 1324 583 1324 561 1219 c 1,5,-1
 541 1120 l 1,6,-1
 844 1120 l 1,7,-1
 817 977 l 1,8,-1
 514 977 l 1,9,-1
 324 0 l 1,10,-1
 139 0 l 1,11,-1
 330 977 l 1,12,-1
 154 977 l 1,13,-1
 180 1120 l 1,14,-1
 356 1120 l 1,15,-1
 371 1198 l 2,16,17
 409 1396 409 1396 504.5 1476 c 128,-1,18
 600 1556 600 1556 805 1556 c 2,19,-1
 979 1556 l 1,0,-1
EndSplineSet
KernsSLIFO: 8217 94 0 0 8216 141 0 0 8221 94 0 0 8220 141 0 0 46 -36 0 0 45 -36 0 0 44 -36 0 0
EndChar
StartChar: g
Encoding: 103 103 103
Width: 1300
Flags: W
AnchorPoint: "below" 498 -430 basechar 0
AnchorPoint: "above" 757 1147 basechar 0
Fore
1221 1120 m 1,0,-1
 1030 139 l 1,1,2
 975 -146 975 -146 819.5 -286 c 128,-1,3
 664 -426 664 -426 401 -426 c 0,4,5
 304 -426 304 -426 221 -411.5 c 128,-1,6
 138 -397 138 -397 66 -367 c 1,7,-1
 100 -188 l 1,8,9
 168 -232 168 -232 244 -253 c 128,-1,10
 320 -274 320 -274 406 -274 c 0,11,12
 581 -274 581 -274 693.5 -178.5 c 128,-1,13
 806 -83 806 -83 842 96 c 1,14,-1
 858 180 l 1,15,16
 781 92 781 92 679 46 c 128,-1,17
 577 0 577 0 459 0 c 0,18,19
 289 0 289 0 191.5 112.5 c 128,-1,20
 94 225 94 225 94 422 c 0,21,22
 94 577 94 577 153 725.5 c 128,-1,23
 212 874 212 874 319 989 c 0,24,25
 390 1065 390 1065 484.5 1106 c 128,-1,26
 579 1147 579 1147 682 1147 c 0,27,28
 795 1147 795 1147 879 1094.5 c 128,-1,29
 963 1042 963 1042 1004 946 c 1,30,-1
 1036 1120 l 1,31,-1
 1221 1120 l 1,0,-1
944 709 m 0,32,33
 944 845 944 845 880 919 c 128,-1,34
 816 993 816 993 698 993 c 0,35,36
 625 993 625 993 559 964 c 128,-1,37
 493 935 493 935 446 883 c 0,38,39
 370 797 370 797 327.5 680.5 c 128,-1,40
 285 564 285 564 285 440 c 0,41,42
 285 302 285 302 349.5 228 c 128,-1,43
 414 154 414 154 535 154 c 0,44,45
 710 154 710 154 827 312.5 c 128,-1,46
 944 471 944 471 944 709 c 0,32,33
EndSplineSet
EndChar
StartChar: h
Encoding: 104 104 104
Width: 1298
Flags: W
AnchorPoint: "below" 526.772 0 basechar 0
AnchorPoint: "above" 454 1520 basechar 0
Fore
1141 676 m 1,0,-1
 1010 0 l 1,1,-1
 825 0 l 1,2,-1
 956 669 l 2,3,4
 965 716 965 716 970 752 c 128,-1,5
 975 788 975 788 975 809 c 0,6,7
 975 893 975 893 922 940 c 128,-1,8
 869 987 869 987 774 987 c 0,9,10
 626 987 626 987 517.5 887 c 128,-1,11
 409 787 409 787 377 621 c 1,12,-1
 256 0 l 1,13,-1
 72 0 l 1,14,-1
 375 1556 l 1,15,-1
 559 1556 l 1,16,-1
 440 944 l 1,17,18
 510 1038 510 1038 619 1092.5 c 128,-1,19
 728 1147 728 1147 848 1147 c 0,20,21
 996 1147 996 1147 1077.5 1067 c 128,-1,22
 1159 987 1159 987 1159 842 c 0,23,24
 1159 806 1159 806 1154.5 765 c 128,-1,25
 1150 724 1150 724 1141 676 c 1,0,-1
EndSplineSet
EndChar
StartChar: i
Encoding: 105 105 105
Width: 569
Flags: W
AnchorPoint: "below" 155.772 0 basechar 0
AnchorPoint: "above" 461.64 1567 basechar 0
Fore
375 1556 m 1,0,-1
 559 1556 l 1,1,-1
 514 1323 l 1,2,-1
 330 1323 l 1,3,-1
 375 1556 l 1,0,-1
291 1120 m 1,4,-1
 475 1120 l 1,5,-1
 256 0 l 1,6,-1
 72 0 l 1,7,-1
 291 1120 l 1,4,-1
EndSplineSet
Substitution: 0 65534 's001' dotlessi
EndChar
StartChar: j
Encoding: 106 106 106
Width: 569
Flags: W
AnchorPoint: "below" 93.5918 -430 basechar 0
AnchorPoint: "above" 464.139 1585 basechar 0
Fore
297 1120 m 1,0,-1
 481 1120 l 1,1,-1
 260 -20 l 1,2,-1
 259 -25 l 2,3,4
 222 -216 222 -216 174 -287 c 0,5,6
 129 -354 129 -354 42.5 -390 c 128,-1,7
 -44 -426 -44 -426 -162 -426 c 2,8,-1
 -231 -426 l 1,9,-1
 -201 -270 l 1,10,-1
 -154 -270 l 2,11,12
 -46 -270 -46 -270 -0.5 -225 c 128,-1,13
 45 -180 45 -180 76 -20 c 2,14,-1
 297 1120 l 1,0,-1
383 1556 m 1,15,-1
 567 1556 l 1,16,-1
 522 1323 l 1,17,-1
 338 1323 l 1,18,-1
 383 1556 l 1,15,-1
EndSplineSet
Substitution: 0 65534 's001' dotlessj
EndChar
StartChar: k
Encoding: 107 107 107
Width: 1186
Flags: W
AnchorPoint: "above" 452.23 1520 basechar 0
AnchorPoint: "below" 556.772 0 basechar 0
Fore
375 1556 m 1,0,-1
 559 1556 l 1,1,-1
 383 649 l 1,2,-1
 1014 1120 l 1,3,-1
 1253 1120 l 1,4,-1
 549 584 l 1,5,-1
 1063 0 l 1,6,-1
 840 0 l 1,7,-1
 362 547 l 1,8,-1
 256 0 l 1,9,-1
 72 0 l 1,10,-1
 375 1556 l 1,0,-1
EndSplineSet
EndChar
StartChar: l
Encoding: 108 108 108
Width: 569
Flags: W
AnchorPoint: "above" 452.23 1520 basechar 0
AnchorPoint: "below" 156.772 0 basechar 0
Fore
375 1556 m 1,0,-1
 559 1556 l 1,1,-1
 256 0 l 1,2,-1
 72 0 l 1,3,-1
 375 1556 l 1,0,-1
EndSplineSet
AlternateSubs: 0 2 'aalt' l.alt
Substitution: 0 2 'salt' l.alt
EndChar
StartChar: m
Encoding: 109 109 109
Width: 1995
Flags: W
AnchorPoint: "above" 1112.48 1147 basechar 0
AnchorPoint: "below" 889.523 0 basechar 0
Fore
1839 676 m 2,0,-1
 1708 0 l 1,1,-1
 1524 0 l 1,2,-1
 1653 670 l 1,3,4
 1661 713 1661 713 1665 744 c 128,-1,5
 1669 775 1669 775 1669 797 c 0,6,7
 1669 887 1669 887 1619 937 c 128,-1,8
 1569 987 1569 987 1479 987 c 0,9,10
 1345 987 1345 987 1240 886.5 c 128,-1,11
 1135 786 1135 786 1104 625 c 1,12,-1
 981 0 l 1,13,-1
 797 0 l 1,14,-1
 928 670 l 1,15,16
 936 707 936 707 940 738.5 c 128,-1,17
 944 770 944 770 944 795 c 0,18,19
 944 886 944 886 894 936.5 c 128,-1,20
 844 987 844 987 756 987 c 0,21,22
 620 987 620 987 515 886.5 c 128,-1,23
 410 786 410 786 379 625 c 1,24,-1
 256 0 l 1,25,-1
 72 0 l 1,26,-1
 291 1120 l 1,27,-1
 475 1120 l 1,28,-1
 440 946 l 1,29,30
 515 1044 515 1044 615.5 1095.5 c 128,-1,31
 716 1147 716 1147 831 1147 c 0,32,33
 953 1147 953 1147 1031.5 1083 c 128,-1,34
 1110 1019 1110 1019 1126 905 c 1,35,36
 1210 1023 1210 1023 1320.5 1085 c 128,-1,37
 1431 1147 1431 1147 1554 1147 c 0,38,39
 1698 1147 1698 1147 1776.5 1064 c 128,-1,40
 1855 981 1855 981 1855 829 c 0,41,42
 1855 796 1855 796 1851 756.5 c 128,-1,43
 1847 717 1847 717 1839 676 c 2,0,-1
EndSplineSet
EndChar
StartChar: n
Encoding: 110 110 110
Width: 1298
Flags: W
AnchorPoint: "below" 566.522 0 basechar 0
AnchorPoint: "above" 749 1147 basechar 0
Fore
1141 676 m 1,0,-1
 1010 0 l 1,1,-1
 825 0 l 1,2,-1
 956 669 l 2,3,4
 965 716 965 716 970 752 c 128,-1,5
 975 788 975 788 975 809 c 0,6,7
 975 893 975 893 922 940 c 128,-1,8
 869 987 869 987 774 987 c 0,9,10
 626 987 626 987 519 888.5 c 128,-1,11
 412 790 412 790 379 621 c 1,12,-1
 256 0 l 1,13,-1
 72 0 l 1,14,-1
 289 1120 l 1,15,-1
 473 1120 l 1,16,-1
 436 944 l 1,17,18
 513 1041 513 1041 621 1094 c 128,-1,19
 729 1147 729 1147 848 1147 c 0,20,21
 996 1147 996 1147 1077.5 1067 c 128,-1,22
 1159 987 1159 987 1159 842 c 0,23,24
 1159 806 1159 806 1154.5 765 c 128,-1,25
 1150 724 1150 724 1141 676 c 1,0,-1
EndSplineSet
EndChar
StartChar: o
Encoding: 111 111 111
Width: 1253
Flags: W
AnchorPoint: "below" 528.342 0 basechar 0
AnchorPoint: "above" 733 1147 basechar 0
Fore
520 -29 m 0,0,1
 323 -29 323 -29 208.5 92.5 c 128,-1,2
 94 214 94 214 94 424 c 0,3,4
 94 546 94 546 133.5 672.5 c 128,-1,5
 173 799 173 799 236 885 c 0,6,7
 335 1019 335 1019 457 1083 c 128,-1,8
 579 1147 579 1147 733 1147 c 0,9,10
 924 1147 924 1147 1041.5 1028 c 128,-1,11
 1159 909 1159 909 1159 717 c 0,12,13
 1159 584 1159 584 1120 452 c 128,-1,14
 1081 320 1081 320 1018 233 c 0,15,16
 920 99 920 99 798 35 c 128,-1,17
 676 -29 676 -29 520 -29 c 0,0,1
285 430 m 0,18,19
 285 278 285 278 348.5 202.5 c 128,-1,20
 412 127 412 127 541 127 c 0,21,22
 726 127 726 127 847.5 288.5 c 128,-1,23
 969 450 969 450 969 698 c 0,24,25
 969 843 969 843 904 917 c 128,-1,26
 839 991 839 991 713 991 c 0,27,28
 609 991 609 991 528 942.5 c 128,-1,29
 447 894 447 894 383 795 c 0,30,31
 336 721 336 721 310.5 626 c 128,-1,32
 285 531 285 531 285 430 c 0,18,19
EndSplineSet
EndChar
StartChar: p
Encoding: 112 112 112
Width: 1300
Flags: W
AnchorPoint: "above" 830.88 1147 basechar 0
AnchorPoint: "below" 524.343 -430 basechar 0
Fore
1016 690 m 0,0,1
 1016 837 1016 837 952 915 c 128,-1,2
 888 993 888 993 768 993 c 0,3,4
 686 993 686 993 611.5 951 c 128,-1,5
 537 909 537 909 479 829 c 0,6,7
 422 750 422 750 388 638 c 128,-1,8
 354 526 354 526 354 416 c 0,9,10
 354 276 354 276 418 200.5 c 128,-1,11
 482 125 482 125 600 125 c 0,12,13
 687 125 687 125 761.5 166 c 128,-1,14
 836 207 836 207 889 285 c 0,15,16
 946 367 946 367 981 478 c 128,-1,17
 1016 589 1016 589 1016 690 c 0,0,1
446 950 m 1,18,19
 520 1047 520 1047 620.5 1097 c 128,-1,20
 721 1147 721 1147 844 1147 c 0,21,22
 1016 1147 1016 1147 1111 1034.5 c 128,-1,23
 1206 922 1206 922 1206 719 c 0,24,25
 1206 553 1206 553 1147 402.5 c 128,-1,26
 1088 252 1088 252 977 133 c 0,27,28
 903 54 903 54 810 12.5 c 128,-1,29
 717 -29 717 -29 614 -29 c 0,30,31
 495 -29 495 -29 414 20.5 c 128,-1,32
 333 70 333 70 293 168 c 1,33,-1
 178 -426 l 1,34,-1
 -6 -426 l 1,35,-1
 295 1120 l 1,36,-1
 479 1120 l 1,37,-1
 446 950 l 1,18,19
EndSplineSet
EndChar
StartChar: q
Encoding: 113 113 113
Width: 1300
Flags: W
AnchorPoint: "above" 775.491 1147 basechar 0
AnchorPoint: "below" 493.953 -430 basechar 0
Fore
854 168 m 1,0,1
 780 71 780 71 679.5 21 c 128,-1,2
 579 -29 579 -29 457 -29 c 0,3,4
 287 -29 287 -29 190.5 85.5 c 128,-1,5
 94 200 94 200 94 401 c 0,6,7
 94 563 94 563 153.5 714 c 128,-1,8
 213 865 213 865 324 985 c 0,9,10
 396 1063 396 1063 489.5 1105 c 128,-1,11
 583 1147 583 1147 686 1147 c 0,12,13
 810 1147 810 1147 890 1098 c 128,-1,14
 970 1049 970 1049 1006 950 c 1,15,-1
 1038 1118 l 1,16,-1
 1223 1118 l 1,17,-1
 924 -422 l 1,18,-1
 739 -422 l 1,19,-1
 854 168 l 1,0,1
285 428 m 0,20,21
 285 280 285 280 347 202.5 c 128,-1,22
 409 125 409 125 526 125 c 0,23,24
 700 125 700 125 823 291.5 c 128,-1,25
 946 458 946 458 946 696 c 0,26,27
 946 840 946 840 882.5 916.5 c 128,-1,28
 819 993 819 993 700 993 c 0,29,30
 613 993 613 993 539 952.5 c 128,-1,31
 465 912 465 912 410 834 c 0,32,33
 352 752 352 752 318.5 642 c 128,-1,34
 285 532 285 532 285 428 c 0,20,21
EndSplineSet
EndChar
StartChar: r
Encoding: 114 114 114
Width: 842
Flags: W
AnchorPoint: "below" 423.522 0 basechar 0
AnchorPoint: "above" 588 1147 basechar 0
Fore
913 950 m 1,0,1
 885 965 885 965 849 973 c 128,-1,2
 813 981 813 981 772 981 c 0,3,4
 625 981 625 981 515 869.5 c 128,-1,5
 405 758 405 758 369 571 c 1,6,-1
 256 0 l 1,7,-1
 72 0 l 1,8,-1
 291 1120 l 1,9,-1
 475 1120 l 1,10,-1
 440 946 l 1,11,12
 513 1043 513 1043 614.5 1095 c 128,-1,13
 716 1147 716 1147 831 1147 c 0,14,15
 861 1147 861 1147 890 1143.5 c 128,-1,16
 919 1140 919 1140 948 1132 c 1,17,-1
 913 950 l 1,0,1
EndSplineSet
KernsSLIFO: 46 -188 0 0 45 -112 0 0 44 -188 0 0
EndChar
StartChar: s
Encoding: 115 115 115
Width: 1067
Flags: W
AnchorPoint: "below" 442.342 0 basechar 0
AnchorPoint: "above" 660 1147 basechar 0
Fore
1024 1087 m 1,0,-1
 989 913 l 1,1,2
 916 953 916 953 835 973 c 128,-1,3
 754 993 754 993 668 993 c 0,4,5
 523 993 523 993 439.5 943.5 c 128,-1,6
 356 894 356 894 356 809 c 0,7,8
 356 710 356 710 550 657 c 0,9,10
 565 653 565 653 572 651 c 2,11,-1
 631 633 l 1,12,13
 815 582 815 582 876.5 526 c 128,-1,14
 938 470 938 470 938 373 c 0,15,16
 938 195 938 195 796.5 83 c 128,-1,17
 655 -29 655 -29 426 -29 c 0,18,19
 337 -29 337 -29 239 -12 c 128,-1,20
 141 5 141 5 23 41 c 1,21,-1
 59 231 l 1,22,23
 160 179 160 179 258 152 c 128,-1,24
 356 125 356 125 446 125 c 0,25,26
 581 125 581 125 665.5 183 c 128,-1,27
 750 241 750 241 750 330 c 0,28,29
 750 426 750 426 528 485 c 2,30,-1
 509 490 l 1,31,-1
 446 506 l 2,32,33
 306 543 306 543 241 603.5 c 128,-1,34
 176 664 176 664 176 758 c 0,35,36
 176 937 176 937 310.5 1042 c 128,-1,37
 445 1147 445 1147 676 1147 c 0,38,39
 767 1147 767 1147 853.5 1132 c 128,-1,40
 940 1117 940 1117 1024 1087 c 1,0,-1
EndSplineSet
EndChar
StartChar: t
Encoding: 116 116 116
Width: 803
Flags: W
AnchorPoint: "above" 482.698 1520 basechar 0
AnchorPoint: "below" 405.24 0 basechar 0
Fore
866 1120 m 1,0,-1
 838 977 l 1,1,-1
 471 977 l 1,2,-1
 352 369 l 1,3,4
 346 335 346 335 343 312 c 128,-1,5
 340 289 340 289 340 276 c 0,6,7
 340 212 340 212 378.5 183 c 128,-1,8
 417 154 417 154 502 154 c 2,9,-1
 688 154 l 1,10,-1
 657 0 l 1,11,-1
 481 0 l 2,12,13
 317 0 317 0 236.5 64 c 128,-1,14
 156 128 156 128 156 258 c 0,15,16
 156 281 156 281 159 308.5 c 128,-1,17
 162 336 162 336 168 369 c 1,18,-1
 287 977 l 1,19,-1
 131 977 l 1,20,-1
 160 1120 l 1,21,-1
 313 1120 l 1,22,-1
 375 1438 l 1,23,-1
 559 1438 l 1,24,-1
 498 1120 l 1,25,-1
 866 1120 l 1,0,-1
EndSplineSet
EndChar
StartChar: u
Encoding: 117 117 117
Width: 1298
Flags: W
AnchorPoint: "below" 571.966 0 basechar 0
AnchorPoint: "above" 724 1147 basechar 0
Fore
137 444 m 1,0,-1
 268 1120 l 1,1,-1
 453 1120 l 1,2,-1
 322 451 l 1,3,4
 312 402 312 402 307.5 367 c 128,-1,5
 303 332 303 332 303 309 c 0,6,7
 303 224 303 224 355 177.5 c 128,-1,8
 407 131 407 131 502 131 c 0,9,10
 650 131 650 131 758 231 c 128,-1,11
 866 331 866 331 899 500 c 1,12,-1
 1022 1120 l 1,13,-1
 1206 1120 l 1,14,-1
 989 0 l 1,15,-1
 805 0 l 1,16,-1
 842 176 l 1,17,18
 764 78 764 78 656.5 24.5 c 128,-1,19
 549 -29 549 -29 428 -29 c 0,20,21
 281 -29 281 -29 199 51.5 c 128,-1,22
 117 132 117 132 117 276 c 0,23,24
 117 306 117 306 122 351 c 128,-1,25
 127 396 127 396 137 444 c 1,0,-1
EndSplineSet
EndChar
StartChar: v
Encoding: 118 118 118
Width: 1212
Flags: W
AnchorPoint: "above" 720.102 1147 basechar 0
AnchorPoint: "below" 497.147 0 basechar 0
Fore
147 1120 m 1,0,-1
 342 1120 l 1,1,-1
 506 168 l 1,2,-1
 1042 1120 l 1,3,-1
 1237 1120 l 1,4,-1
 600 0 l 1,5,-1
 352 0 l 1,6,-1
 147 1120 l 1,0,-1
EndSplineSet
KernsSLIFO: 46 -167 0 0 44 -167 0 0
EndChar
StartChar: w
Encoding: 119 119 119
Width: 1675
Flags: W
AnchorPoint: "below" 730.146 0 basechar 0
AnchorPoint: "above" 915 1147 basechar 0
Fore
174 1120 m 1,0,-1
 356 1120 l 1,1,-1
 403 219 l 1,2,-1
 821 1120 l 1,3,-1
 1034 1120 l 1,4,-1
 1096 219 l 1,5,-1
 1493 1120 l 1,6,-1
 1677 1120 l 1,7,-1
 1165 0 l 1,8,-1
 950 0 l 1,9,-1
 895 928 l 1,10,-1
 467 0 l 1,11,-1
 250 0 l 1,12,-1
 174 1120 l 1,0,-1
EndSplineSet
KernsSLIFO: 46 -131 0 0 44 -131 0 0
EndChar
StartChar: x
Encoding: 120 120 120
Width: 1212
Flags: W
AnchorPoint: "above" 724.102 1147 basechar 0
AnchorPoint: "below" 501.147 0 basechar 0
Fore
1229 1120 m 1,0,-1
 715 571 l 1,1,-1
 1030 0 l 1,2,-1
 819 0 l 1,3,-1
 582 444 l 1,4,-1
 170 0 l 1,5,-1
 -53 0 l 1,6,-1
 498 590 l 1,7,-1
 205 1120 l 1,8,-1
 416 1120 l 1,9,-1
 631 715 l 1,10,-1
 1006 1120 l 1,11,-1
 1229 1120 l 1,0,-1
EndSplineSet
EndChar
StartChar: y
Encoding: 121 121 121
Width: 1212
Flags: W
AnchorPoint: "below" 456.967 -430 basechar 0
AnchorPoint: "above" 680 1147 basechar 0
Fore
508 -104 m 2,0,1
 380 -319 380 -319 299.5 -372.5 c 128,-1,2
 219 -426 219 -426 94 -426 c 2,3,-1
 -51 -426 l 1,4,-1
 -20 -272 l 1,5,-1
 86 -272 l 2,6,7
 163 -272 163 -272 217 -230 c 128,-1,8
 271 -188 271 -188 338 -66 c 1,9,-1
 395 41 l 1,10,-1
 147 1120 l 1,11,-1
 342 1120 l 1,12,-1
 528 262 l 1,13,-1
 1042 1120 l 1,14,-1
 1235 1120 l 1,15,-1
 508 -104 l 2,0,1
EndSplineSet
KernsSLIFO: 46 -159 0 0 45 -73 0 0 44 -159 0 0
EndChar
StartChar: z
Encoding: 122 122 122
Width: 1075
Flags: W
AnchorPoint: "above" 649.102 1147 basechar 0
AnchorPoint: "below" 426.147 0 basechar 0
Fore
238 1120 m 1,0,-1
 1112 1120 l 1,1,-1
 1079 952 l 1,2,-1
 236 147 l 1,3,-1
 932 147 l 1,4,-1
 903 0 l 1,5,-1
 -6 0 l 1,6,-1
 27 168 l 1,7,-1
 870 973 l 1,8,-1
 209 973 l 1,9,-1
 238 1120 l 1,0,-1
EndSplineSet
EndChar
StartChar: braceleft
Encoding: 123 123 123
Width: 1303
Flags: W
Fore
1239 1556 m 1,0,-1
 1210 1413 l 1,1,-1
 1133 1413 l 2,2,3
 997 1413 997 1413 950 1373.5 c 128,-1,4
 903 1334 903 1334 872 1184 c 1,5,-1
 821 932 l 1,6,7
 789 772 789 772 728.5 699.5 c 128,-1,8
 668 627 668 627 557 606 c 1,9,10
 630 588 630 588 670.5 536.5 c 128,-1,11
 711 485 711 485 711 410 c 0,12,13
 711 386 711 386 707 353 c 128,-1,14
 703 320 703 320 696 282 c 1,15,-1
 649 38 l 1,16,17
 644 7 644 7 641.5 -19.5 c 128,-1,18
 639 -46 639 -46 639 -70 c 0,19,20
 639 -133 639 -133 681.5 -161.5 c 128,-1,21
 724 -190 724 -190 821 -190 c 2,22,-1
 899 -190 l 1,23,-1
 870 -334 l 1,24,-1
 799 -334 l 2,25,26
 611 -334 611 -334 530 -279.5 c 128,-1,27
 449 -225 449 -225 449 -102 c 0,28,29
 449 -70 449 -70 452.5 -36 c 128,-1,30
 456 -2 456 -2 463 35 c 2,31,-1
 508 270 l 1,32,33
 508 273 508 273 510 282 c 0,34,35
 520 332 520 332 520 377 c 0,36,37
 520 462 520 462 471 499.5 c 128,-1,38
 422 537 422 537 309 537 c 2,39,-1
 248 537 l 1,40,-1
 276 684 l 1,41,-1
 338 684 l 2,42,43
 482 684 482 684 545.5 738.5 c 128,-1,44
 609 793 609 793 641 944 c 1,45,-1
 688 1188 l 1,46,47
 714 1311 714 1311 749.5 1382.5 c 128,-1,48
 785 1454 785 1454 840 1493 c 0,49,50
 886 1527 886 1527 955 1541.5 c 128,-1,51
 1024 1556 1024 1556 1157 1556 c 2,52,-1
 1239 1556 l 1,0,-1
EndSplineSet
EndChar
StartChar: bar
Encoding: 124 124 124
Width: 690
Flags: W
Fore
430 1565 m 1,0,-1
 430 -483 l 1,1,-1
 260 -483 l 1,2,-1
 260 1565 l 1,3,-1
 430 1565 l 1,0,-1
EndSplineSet
EndChar
StartChar: braceright
Encoding: 125 125 125
Width: 1303
Flags: W
Fore
14 -334 m 1,0,-1
 43 -190 l 1,1,-1
 121 -190 l 2,2,3
 257 -190 257 -190 304 -150.5 c 128,-1,4
 351 -111 351 -111 381 39 c 1,5,-1
 432 291 l 1,6,7
 465 451 465 451 525 523.5 c 128,-1,8
 585 596 585 596 696 616 c 1,9,10
 623 635 623 635 583 686 c 128,-1,11
 543 737 543 737 543 813 c 0,12,13
 543 838 543 838 546.5 870 c 128,-1,14
 550 902 550 902 557 940 c 1,15,-1
 604 1183 l 1,16,17
 610 1217 610 1217 612 1242 c 128,-1,18
 614 1267 614 1267 614 1292 c 0,19,20
 614 1356 614 1356 571.5 1384.5 c 128,-1,21
 529 1413 529 1413 432 1413 c 2,22,-1
 354 1413 l 1,23,-1
 381 1556 l 1,24,-1
 455 1556 l 2,25,26
 642 1556 642 1556 723.5 1502 c 128,-1,27
 805 1448 805 1448 805 1325 c 0,28,29
 805 1294 805 1294 801.5 1260 c 128,-1,30
 798 1226 798 1226 790 1187 c 1,31,-1
 745 952 l 1,32,33
 745 949 745 949 743 940 c 0,34,35
 733 891 733 891 733 846 c 0,36,37
 733 760 733 760 782 723 c 128,-1,38
 831 686 831 686 944 686 c 2,39,-1
 1006 686 l 1,40,-1
 977 539 l 1,41,-1
 915 539 l 2,42,43
 771 539 771 539 708 484 c 128,-1,44
 645 429 645 429 616 279 c 1,45,-1
 563 35 l 1,46,47
 537 -91 537 -91 502 -161.5 c 128,-1,48
 467 -232 467 -232 414 -270 c 0,49,50
 367 -304 367 -304 298 -319 c 128,-1,51
 229 -334 229 -334 96 -334 c 2,52,-1
 14 -334 l 1,0,-1
EndSplineSet
EndChar
StartChar: asciitilde
Encoding: 126 126 126
Width: 1716
Flags: W
Fore
1499 817 m 1,0,-1
 1499 639 l 1,1,2
 1394 560 1394 560 1304.5 526 c 128,-1,3
 1215 492 1215 492 1118 492 c 0,4,5
 1008 492 1008 492 862 551 c 0,6,7
 851 555 851 555 846 557 c 0,8,9
 839 560 839 560 824 565 c 0,10,11
 669 627 669 627 575 627 c 0,12,13
 487 627 487 627 401 588.5 c 128,-1,14
 315 550 315 550 217 467 c 1,15,-1
 217 645 l 1,16,17
 322 724 322 724 411.5 758.5 c 128,-1,18
 501 793 501 793 598 793 c 0,19,20
 708 793 708 793 855 733 c 0,21,22
 865 729 865 729 870 727 c 0,23,24
 878 724 878 724 892 719 c 0,25,26
 1047 657 1047 657 1141 657 c 0,27,28
 1227 657 1227 657 1311.5 695 c 128,-1,29
 1396 733 1396 733 1499 817 c 1,0,-1
EndSplineSet
EndChar
StartChar: exclamdown
Encoding: 161 161 161
Width: 821
Flags: W
Fore
377 0 m 1,0,-1
 174 0 l 1,1,-1
 301 655 l 1,2,-1
 391 1012 l 1,3,-1
 553 1012 l 1,4,-1
 504 655 l 1,5,-1
 377 0 l 1,0,-1
616 1239 m 1,6,-1
 414 1239 l 1,7,-1
 463 1493 l 1,8,-1
 668 1493 l 1,9,-1
 616 1239 l 1,6,-1
EndSplineSet
EndChar
StartChar: cent
Encoding: 162 162 162
Width: 1303
Flags: W
Fore
758 985 m 1,0,1
 580 962 580 962 460 801.5 c 128,-1,2
 340 641 340 641 340 426 c 0,3,4
 340 292 340 292 401 218.5 c 128,-1,5
 462 145 462 145 590 125 c 1,6,-1
 758 985 l 1,0,1
889 1145 m 1,7,8
 962 1138 962 1138 1026.5 1121.5 c 128,-1,9
 1091 1105 1091 1105 1153 1077 c 1,10,-1
 1118 895 l 1,11,12
 1071 932 1071 932 1009 954.5 c 128,-1,13
 947 977 947 977 858 989 c 1,14,-1
 690 127 l 1,15,16
 756 132 756 132 830 154.5 c 128,-1,17
 904 177 904 177 987 219 c 1,18,-1
 952 37 l 1,19,20
 887 9 887 9 814 -7.5 c 128,-1,21
 741 -24 741 -24 664 -29 c 1,22,-1
 604 -313 l 1,23,-1
 504 -313 l 1,24,-1
 563 -29 l 1,25,26
 366 -16 366 -16 259 95.5 c 128,-1,27
 152 207 152 207 152 401 c 0,28,29
 152 707 152 707 329 914.5 c 128,-1,30
 506 1122 506 1122 788 1145 c 1,31,-1
 844 1430 l 1,32,-1
 944 1430 l 1,33,-1
 889 1145 l 1,7,8
EndSplineSet
EndChar
StartChar: sterling
Encoding: 163 163 163
Width: 1303
Flags: W
Fore
1305 1460 m 1,0,-1
 1270 1278 l 1,1,2
 1209 1318 1209 1318 1143.5 1339 c 128,-1,3
 1078 1360 1078 1360 1014 1360 c 0,4,5
 867 1360 867 1360 793 1280.5 c 128,-1,6
 719 1201 719 1201 678 993 c 1,7,-1
 637 778 l 1,8,-1
 1028 778 l 1,9,-1
 999 635 l 1,10,-1
 608 635 l 1,11,-1
 518 170 l 1,12,-1
 1055 170 l 1,13,-1
 1022 0 l 1,14,-1
 49 0 l 1,15,-1
 82 170 l 1,16,-1
 317 170 l 1,17,-1
 408 635 l 1,18,-1
 209 635 l 1,19,-1
 238 778 l 1,20,-1
 436 778 l 1,21,-1
 481 1016 l 1,22,23
 533 1278 533 1278 663.5 1399 c 128,-1,24
 794 1520 794 1520 1026 1520 c 0,25,26
 1096 1520 1096 1520 1166 1505 c 128,-1,27
 1236 1490 1236 1490 1305 1460 c 1,0,-1
EndSplineSet
EndChar
StartChar: currency
Encoding: 164 164 164
Width: 1303
Flags: W
Fore
891 993 m 1,0,-1
 1098 1202 l 1,1,-1
 1212 1087 l 1,2,-1
 1006 881 l 1,3,4
 1043 822 1043 822 1061 762.5 c 128,-1,5
 1079 703 1079 703 1079 641 c 0,6,7
 1079 578 1079 578 1060 520.5 c 128,-1,8
 1041 463 1041 463 1001 406 c 1,9,-1
 1210 199 l 1,10,-1
 1096 86 l 1,11,-1
 889 293 l 1,12,13
 830 253 830 253 772 234 c 128,-1,14
 714 215 714 215 653 215 c 0,15,16
 595 215 595 215 535 233.5 c 128,-1,17
 475 252 475 252 414 289 c 1,18,-1
 207 82 l 1,19,-1
 94 197 l 1,20,-1
 301 403 l 1,21,22
 264 465 264 465 245.5 524 c 128,-1,23
 227 583 227 583 227 641 c 0,24,25
 227 705 227 705 246 763 c 128,-1,26
 265 821 265 821 303 877 c 1,27,-1
 96 1083 l 1,28,-1
 211 1198 l 1,29,-1
 418 991 l 1,30,31
 473 1030 473 1030 531 1048.5 c 128,-1,32
 589 1067 589 1067 653 1067 c 0,33,34
 713 1067 713 1067 771.5 1049 c 128,-1,35
 830 1031 830 1031 891 993 c 1,0,-1
922 643 m 0,36,37
 922 755 922 755 844.5 832 c 128,-1,38
 767 909 767 909 653 909 c 0,39,40
 541 909 541 909 462 832 c 128,-1,41
 383 755 383 755 383 643 c 0,42,43
 383 529 383 529 461.5 451 c 128,-1,44
 540 373 540 373 653 373 c 0,45,46
 766 373 766 373 844 451.5 c 128,-1,47
 922 530 922 530 922 643 c 0,36,37
EndSplineSet
EndChar
StartChar: yen
Encoding: 165 165 165
Width: 1303
Flags: W
Fore
1122 455 m 1,0,-1
 711 455 l 1,1,-1
 623 0 l 1,2,-1
 420 0 l 1,3,-1
 508 455 l 1,4,-1
 92 455 l 1,5,-1
 115 578 l 1,6,-1
 532 578 l 1,7,-1
 543 629 l 1,8,-1
 489 784 l 1,9,-1
 156 784 l 1,10,-1
 180 907 l 1,11,-1
 446 907 l 1,12,-1
 242 1493 l 1,13,-1
 432 1493 l 1,14,-1
 672 793 l 1,15,-1
 1184 1493 l 1,16,-1
 1378 1493 l 1,17,-1
 948 907 l 1,18,-1
 1210 907 l 1,19,-1
 1186 784 l 1,20,-1
 858 784 l 1,21,-1
 745 629 l 1,22,-1
 735 578 l 1,23,-1
 1145 578 l 1,24,-1
 1122 455 l 1,0,-1
EndSplineSet
EndChar
StartChar: brokenbar
Encoding: 166 166 166
Width: 690
Flags: W
Fore
430 408 m 1,0,-1
 430 -350 l 1,1,-1
 260 -350 l 1,2,-1
 260 408 l 1,3,-1
 430 408 l 1,0,-1
430 1432 m 1,4,-1
 430 674 l 1,5,-1
 260 674 l 1,6,-1
 260 1432 l 1,7,-1
 430 1432 l 1,4,-1
EndSplineSet
EndChar
StartChar: section
Encoding: 167 167 167
Width: 1024
Flags: W
Fore
602 410 m 1,0,1
 684 459 684 459 727 514.5 c 128,-1,2
 770 570 770 570 770 627 c 0,3,4
 770 681 770 681 716.5 737.5 c 128,-1,5
 663 794 663 794 520 885 c 2,6,-1
 440 936 l 1,7,8
 359 885 359 885 316.5 829 c 128,-1,9
 274 773 274 773 274 717 c 0,10,11
 274 667 274 667 316.5 618.5 c 128,-1,12
 359 570 359 570 485 487 c 2,13,-1
 602 410 l 1,0,1
993 1462 m 1,14,-1
 961 1298 l 1,15,16
 889 1337 889 1337 820.5 1356.5 c 128,-1,17
 752 1376 752 1376 694 1376 c 0,18,19
 591 1376 591 1376 525 1327.5 c 128,-1,20
 459 1279 459 1279 459 1206 c 0,21,22
 459 1127 459 1127 594 1037 c 0,23,24
 624 1017 624 1017 641 1006 c 2,25,-1
 729 946 l 2,26,27
 851 861 851 861 893.5 802.5 c 128,-1,28
 936 744 936 744 936 674 c 0,29,30
 936 573 936 573 870 483 c 128,-1,31
 804 393 804 393 690 340 c 1,32,33
 731 305 731 305 751.5 260 c 128,-1,34
 772 215 772 215 772 160 c 0,35,36
 772 3 772 3 650.5 -96 c 128,-1,37
 529 -195 529 -195 330 -195 c 0,38,39
 261 -195 261 -195 184 -180.5 c 128,-1,40
 107 -166 107 -166 25 -137 c 1,41,-1
 57 27 l 1,42,43
 133 -11 133 -11 205 -31 c 128,-1,44
 277 -51 277 -51 336 -51 c 0,45,46
 448 -51 448 -51 515 -3.5 c 128,-1,47
 582 44 582 44 582 123 c 0,48,49
 582 221 582 221 402 342 c 2,50,-1
 387 352 l 1,51,-1
 311 403 l 2,52,53
 188 487 188 487 147 543.5 c 128,-1,54
 106 600 106 600 106 674 c 0,55,56
 106 770 106 770 170 856.5 c 128,-1,57
 234 943 234 943 352 1006 c 1,58,59
 309 1044 309 1044 289.5 1084.5 c 128,-1,60
 270 1125 270 1125 270 1176 c 0,61,62
 270 1323 270 1323 391.5 1421.5 c 128,-1,63
 513 1520 513 1520 700 1520 c 0,64,65
 771 1520 771 1520 843.5 1505.5 c 128,-1,66
 916 1491 916 1491 993 1462 c 1,14,-1
EndSplineSet
EndChar
StartChar: dieresis
Encoding: 168 168 168
Width: 1024
Flags: W
Fore
416 1552 m 1,0,-1
 621 1552 l 1,1,-1
 580 1350 l 1,2,-1
 377 1350 l 1,3,-1
 416 1552 l 1,0,-1
807 1552 m 1,4,-1
 1010 1552 l 1,5,-1
 971 1350 l 1,6,-1
 768 1350 l 1,7,-1
 807 1552 l 1,4,-1
EndSplineSet
Ligature: 0 1 'liga' space uni0308
EndChar
StartChar: copyright
Encoding: 169 169 169
Width: 2048
Flags: W
Fore
1024 1485 m 0,0,1
 1176 1485 1176 1485 1307.5 1430 c 128,-1,2
 1439 1375 1439 1375 1548 1266 c 0,3,4
 1657 1157 1657 1157 1711 1026 c 128,-1,5
 1765 895 1765 895 1765 741 c 0,6,7
 1765 589 1765 589 1711 458.5 c 128,-1,8
 1657 328 1657 328 1548 219 c 0,9,10
 1439 110 1439 110 1307.5 55 c 128,-1,11
 1176 0 1176 0 1024 0 c 0,12,13
 872 0 872 0 740.5 55 c 128,-1,14
 609 110 609 110 500 219 c 0,15,16
 391 328 391 328 337 458.5 c 128,-1,17
 283 589 283 589 283 741 c 0,18,19
 283 895 283 895 337 1026 c 128,-1,20
 391 1157 391 1157 500 1266 c 0,21,22
 609 1375 609 1375 740.5 1430 c 128,-1,23
 872 1485 872 1485 1024 1485 c 0,0,1
1024 1382 m 0,24,25
 893 1382 893 1382 780 1335 c 128,-1,26
 667 1288 667 1288 573 1194 c 0,27,28
 479 1100 479 1100 431 985.5 c 128,-1,29
 383 871 383 871 383 741 c 0,30,31
 383 612 383 612 431 498.5 c 128,-1,32
 479 385 479 385 573 291 c 0,33,34
 667 197 667 197 780 149.5 c 128,-1,35
 893 102 893 102 1024 102 c 0,36,37
 1156 102 1156 102 1269.5 149.5 c 128,-1,38
 1383 197 1383 197 1477 291 c 0,39,40
 1570 384 1570 384 1616.5 497 c 128,-1,41
 1663 610 1663 610 1663 741 c 0,42,43
 1663 874 1663 874 1616 987.5 c 128,-1,44
 1569 1101 1569 1101 1477 1194 c 0,45,46
 1383 1288 1383 1288 1269.5 1335 c 128,-1,47
 1156 1382 1156 1382 1024 1382 c 0,24,25
1323 1137 m 1,48,-1
 1323 1008 l 1,49,50
 1257 1041 1257 1041 1192 1057 c 128,-1,51
 1127 1073 1127 1073 1061 1073 c 0,52,53
 912 1073 912 1073 828.5 985.5 c 128,-1,54
 745 898 745 898 745 741 c 0,55,56
 745 582 745 582 830.5 495 c 128,-1,57
 916 408 916 408 1071 408 c 0,58,59
 1135 408 1135 408 1196 423.5 c 128,-1,60
 1257 439 1257 439 1323 473 c 1,61,-1
 1323 346 l 1,62,63
 1256 317 1256 317 1187.5 303 c 128,-1,64
 1119 289 1119 289 1049 289 c 0,65,66
 833 289 833 289 707.5 411 c 128,-1,67
 582 533 582 533 582 741 c 0,68,69
 582 950 582 950 707.5 1071 c 128,-1,70
 833 1192 833 1192 1049 1192 c 0,71,72
 1122 1192 1122 1192 1190 1178 c 128,-1,73
 1258 1164 1258 1164 1323 1137 c 1,48,-1
EndSplineSet
EndChar
StartChar: ordfeminine
Encoding: 170 170 170
Width: 965
Flags: W
Fore
594 1104 m 2,0,1
 437 1104 437 1104 366 1066.5 c 128,-1,2
 295 1029 295 1029 295 946 c 0,3,4
 295 887 295 887 333 852 c 128,-1,5
 371 817 371 817 436 817 c 0,6,7
 551 817 551 817 629.5 884.5 c 128,-1,8
 708 952 708 952 735 1075 c 1,9,-1
 741 1104 l 1,10,-1
 594 1104 l 2,0,1
903 1165 m 1,11,-1
 815 717 l 1,12,-1
 666 717 l 1,13,-1
 688 829 l 1,14,15
 630 764 630 764 553.5 731 c 128,-1,16
 477 698 477 698 381 698 c 0,17,18
 274 698 274 698 208.5 759 c 128,-1,19
 143 820 143 820 143 920 c 0,20,21
 143 1060 143 1060 258.5 1139.5 c 128,-1,22
 374 1219 374 1219 582 1219 c 2,23,-1
 764 1219 l 1,24,-1
 764 1223 l 1,25,26
 766 1242 766 1242 767 1252.5 c 128,-1,27
 768 1263 768 1263 768 1270 c 0,28,29
 768 1340 768 1340 721.5 1372.5 c 128,-1,30
 675 1405 675 1405 575 1405 c 0,31,32
 505 1405 505 1405 432.5 1388 c 128,-1,33
 360 1371 360 1371 287 1337 c 1,34,-1
 311 1464 l 1,35,36
 390 1492 390 1492 466 1506 c 128,-1,37
 542 1520 542 1520 610 1520 c 0,38,39
 760 1520 760 1520 836.5 1458 c 128,-1,40
 913 1396 913 1396 913 1276 c 0,41,42
 913 1249 913 1249 910.5 1221.5 c 128,-1,43
 908 1194 908 1194 903 1165 c 1,11,-1
104 592 m 1,44,-1
 793 592 l 1,45,-1
 770 469 l 1,46,-1
 82 469 l 1,47,-1
 104 592 l 1,44,-1
EndSplineSet
EndChar
StartChar: guillemotleft
Encoding: 171 171 171
Width: 1264
Flags: W
Fore
692 1059 m 1,0,-1
 653 858 l 1,1,-1
 299 588 l 1,2,-1
 551 322 l 1,3,-1
 514 141 l 1,4,-1
 127 559 l 1,5,-1
 143 641 l 1,6,-1
 692 1059 l 1,0,-1
1137 1059 m 1,7,-1
 1098 858 l 1,8,-1
 743 588 l 1,9,-1
 995 322 l 1,10,-1
 958 141 l 1,11,-1
 571 559 l 1,12,-1
 588 641 l 1,13,-1
 1137 1059 l 1,7,-1
EndSplineSet
EndChar
StartChar: logicalnot
Encoding: 172 172 172
Width: 1716
Flags: W
Fore
217 862 m 1,0,-1
 1499 862 l 1,1,-1
 1499 287 l 1,2,-1
 1331 287 l 1,3,-1
 1331 692 l 1,4,-1
 217 692 l 1,5,-1
 217 862 l 1,0,-1
EndSplineSet
EndChar
StartChar: sfthyphen
Encoding: 173 173 173
Width: 739
Flags: W
Fore
125 643 m 1,0,-1
 664 643 l 1,1,-1
 633 479 l 1,2,-1
 92 479 l 1,3,-1
 125 643 l 1,0,-1
EndSplineSet
EndChar
StartChar: registered
Encoding: 174 174 174
Width: 2048
Flags: W
Fore
1024 1382 m 0,0,1
 893 1382 893 1382 780 1335 c 128,-1,2
 667 1288 667 1288 573 1194 c 0,3,4
 479 1100 479 1100 431 985.5 c 128,-1,5
 383 871 383 871 383 741 c 0,6,7
 383 612 383 612 431 498.5 c 128,-1,8
 479 385 479 385 573 291 c 0,9,10
 667 197 667 197 780 149.5 c 128,-1,11
 893 102 893 102 1024 102 c 0,12,13
 1156 102 1156 102 1269.5 149.5 c 128,-1,14
 1383 197 1383 197 1477 291 c 0,15,16
 1570 384 1570 384 1616.5 497 c 128,-1,17
 1663 610 1663 610 1663 741 c 0,18,19
 1663 874 1663 874 1616 987.5 c 128,-1,20
 1569 1101 1569 1101 1477 1194 c 0,21,22
 1383 1288 1383 1288 1269.5 1335 c 128,-1,23
 1156 1382 1156 1382 1024 1382 c 0,0,1
1024 1485 m 0,24,25
 1176 1485 1176 1485 1307.5 1430 c 128,-1,26
 1439 1375 1439 1375 1548 1266 c 0,27,28
 1657 1157 1657 1157 1711 1026 c 128,-1,29
 1765 895 1765 895 1765 741 c 0,30,31
 1765 589 1765 589 1711 458.5 c 128,-1,32
 1657 328 1657 328 1548 219 c 0,33,34
 1439 110 1439 110 1307.5 55 c 128,-1,35
 1176 0 1176 0 1024 0 c 0,36,37
 872 0 872 0 740.5 55 c 128,-1,38
 609 110 609 110 500 219 c 0,39,40
 391 328 391 328 337 458.5 c 128,-1,41
 283 589 283 589 283 741 c 0,42,43
 283 895 283 895 337 1026 c 128,-1,44
 391 1157 391 1157 500 1266 c 0,45,46
 609 1375 609 1375 740.5 1430 c 128,-1,47
 872 1485 872 1485 1024 1485 c 0,24,25
997 1071 m 2,48,-1
 874 1071 l 1,49,-1
 874 795 l 1,50,-1
 997 795 l 2,51,52
 1107 795 1107 795 1150.5 826 c 128,-1,53
 1194 857 1194 857 1194 932 c 0,54,55
 1194 1008 1194 1008 1150 1039.5 c 128,-1,56
 1106 1071 1106 1071 997 1071 c 2,48,-1
1004 1174 m 2,57,58
 1180 1174 1180 1174 1267 1114.5 c 128,-1,59
 1354 1055 1354 1055 1354 934 c 0,60,61
 1354 848 1354 848 1301.5 792 c 128,-1,62
 1249 736 1249 736 1153 719 c 1,63,64
 1177 711 1177 711 1210.5 672.5 c 128,-1,65
 1244 634 1244 634 1290 561 c 1,66,-1
 1427 338 l 1,67,-1
 1255 338 l 1,68,-1
 1126 547 l 2,69,70
 1067 643 1067 643 1030.5 668.5 c 128,-1,71
 994 694 994 694 940 694 c 2,72,-1
 874 694 l 1,73,-1
 874 338 l 1,74,-1
 719 338 l 1,75,-1
 719 1174 l 1,76,-1
 1004 1174 l 2,57,58
EndSplineSet
EndChar
StartChar: macron
Encoding: 175 175 175
Width: 1024
Flags: W
Fore
410 1526 m 1,0,-1
 1008 1526 l 1,1,-1
 979 1378 l 1,2,-1
 381 1378 l 1,3,-1
 410 1526 l 1,0,-1
EndSplineSet
LCarets: 0 65535 '    ' 1 0 
Ligature: 0 1 'liga' space uni0304
EndChar
StartChar: degree
Encoding: 176 176 176
Width: 1024
Flags: W
Fore
512 1391 m 0,0,1
 432 1391 432 1391 377 1335.5 c 128,-1,2
 322 1280 322 1280 322 1200 c 0,3,4
 322 1121 322 1121 377 1066.5 c 128,-1,5
 432 1012 432 1012 512 1012 c 0,6,7
 592 1012 592 1012 647 1066.5 c 128,-1,8
 702 1121 702 1121 702 1200 c 0,9,10
 702 1279 702 1279 646.5 1335 c 128,-1,11
 591 1391 591 1391 512 1391 c 0,0,1
512 1520 m 0,12,13
 576 1520 576 1520 635 1495.5 c 128,-1,14
 694 1471 694 1471 737 1425 c 1,15,16
 783 1380 783 1380 806 1323 c 128,-1,17
 829 1266 829 1266 829 1200 c 0,18,19
 829 1068 829 1068 736.5 976.5 c 128,-1,20
 644 885 644 885 510 885 c 0,21,22
 375 885 375 885 285 975 c 128,-1,23
 195 1065 195 1065 195 1200 c 0,24,25
 195 1334 195 1334 287 1427 c 128,-1,26
 379 1520 379 1520 512 1520 c 0,12,13
EndSplineSet
EndChar
StartChar: plusminus
Encoding: 177 177 177
Width: 1716
Flags: W
Fore
942 1284 m 1,0,-1
 942 897 l 1,1,-1
 1499 897 l 1,2,-1
 1499 727 l 1,3,-1
 942 727 l 1,4,-1
 942 340 l 1,5,-1
 774 340 l 1,6,-1
 774 727 l 1,7,-1
 217 727 l 1,8,-1
 217 897 l 1,9,-1
 774 897 l 1,10,-1
 774 1284 l 1,11,-1
 942 1284 l 1,0,-1
217 170 m 1,12,-1
 1499 170 l 1,13,-1
 1499 0 l 1,14,-1
 217 0 l 1,15,-1
 217 170 l 1,12,-1
EndSplineSet
EndChar
StartChar: twosuperior
Encoding: 178 178 178
Width: 821
Flags: W
Fore
659 1090 m 2,0,-1
 274 782 l 1,1,-1
 715 782 l 1,2,-1
 692 668 l 1,3,-1
 74 668 l 1,4,-1
 96 778 l 1,5,-1
 518 1118 l 1,6,7
 577 1164 577 1164 606 1207 c 128,-1,8
 635 1250 635 1250 635 1290 c 0,9,10
 635 1344 635 1344 593 1377.5 c 128,-1,11
 551 1411 551 1411 481 1411 c 0,12,13
 426 1411 426 1411 360 1394 c 128,-1,14
 294 1377 294 1377 211 1341 c 1,15,-1
 236 1464 l 1,16,17
 312 1492 312 1492 380 1506 c 128,-1,18
 448 1520 448 1520 512 1520 c 0,19,20
 635 1520 635 1520 711.5 1463 c 128,-1,21
 788 1406 788 1406 788 1317 c 0,22,23
 788 1255 788 1255 756 1198.5 c 128,-1,24
 724 1142 724 1142 659 1090 c 2,0,-1
EndSplineSet
EndChar
StartChar: threesuperior
Encoding: 179 179 179
Width: 821
Flags: W
Fore
215 1485 m 1,0,1
 298 1503 298 1503 361 1511.5 c 128,-1,2
 424 1520 424 1520 479 1520 c 0,3,4
 604 1520 604 1520 679 1467.5 c 128,-1,5
 754 1415 754 1415 754 1329 c 0,6,7
 754 1252 754 1252 697 1195 c 128,-1,8
 640 1138 640 1138 543 1120 c 1,9,10
 618 1104 618 1104 658 1057 c 128,-1,11
 698 1010 698 1010 698 938 c 0,12,13
 698 811 698 811 586.5 732 c 128,-1,14
 475 653 475 653 291 653 c 0,15,16
 227 653 227 653 162 663.5 c 128,-1,17
 97 674 97 674 33 694 c 1,18,-1
 57 815 l 1,19,20
 110 788 110 788 166 775 c 128,-1,21
 222 762 222 762 285 762 c 0,22,23
 408 762 408 762 477.5 808 c 128,-1,24
 547 854 547 854 547 936 c 0,25,26
 547 998 547 998 498.5 1029.5 c 128,-1,27
 450 1061 450 1061 352 1061 c 2,28,-1
 266 1061 l 1,29,-1
 289 1169 l 1,30,-1
 381 1169 l 2,31,32
 483 1169 483 1169 540.5 1205 c 128,-1,33
 598 1241 598 1241 598 1305 c 0,34,35
 598 1358 598 1358 557 1384.5 c 128,-1,36
 516 1411 516 1411 434 1411 c 0,37,38
 378 1411 378 1411 316 1400.5 c 128,-1,39
 254 1390 254 1390 193 1370 c 1,40,-1
 215 1485 l 1,0,1
EndSplineSet
EndChar
StartChar: acute
Encoding: 180 180 180
Width: 1024
Flags: W
Fore
870 1638 m 1,0,-1
 1069 1638 l 1,1,-1
 670 1262 l 1,2,-1
 516 1262 l 1,3,-1
 870 1638 l 1,0,-1
EndSplineSet
LCarets: 0 65535 '    ' 1 0 
Ligature: 0 1 'liga' space acutecomb
EndChar
StartChar: mu
Encoding: 181 181 181
Width: 1303
Flags: W
Fore
-27 -426 m 1,0,-1
 274 1120 l 1,1,-1
 459 1120 l 1,2,-1
 323 423 l 2,3,4
 319 402 319 402 316 376 c 128,-1,5
 313 350 313 350 313 324 c 0,6,7
 313 231 313 231 371.5 181 c 128,-1,8
 430 131 430 131 539 131 c 0,9,10
 687 131 687 131 778 215 c 128,-1,11
 869 299 869 299 901 467 c 1,12,-1
 1028 1120 l 1,13,-1
 1212 1120 l 1,14,-1
 1045 259 l 1,15,16
 1041 240 1041 240 1039.5 226 c 128,-1,17
 1038 212 1038 212 1038 201 c 0,18,19
 1038 170 1038 170 1050.5 155.5 c 128,-1,20
 1063 141 1063 141 1090 141 c 0,21,22
 1100 141 1100 141 1117.5 146 c 128,-1,23
 1135 151 1135 151 1167 164 c 1,24,-1
 1139 16 l 1,25,26
 1095 -6 1095 -6 1055 -17.5 c 128,-1,27
 1015 -29 1015 -29 977 -29 c 0,28,29
 911 -29 911 -29 873.5 13 c 128,-1,30
 836 55 836 55 836 129 c 1,31,32
 780 49 780 49 702.5 10 c 128,-1,33
 625 -29 625 -29 520 -29 c 0,34,35
 427 -29 427 -29 357.5 14 c 128,-1,36
 288 57 288 57 266 127 c 1,37,-1
 158 -426 l 1,38,-1
 -27 -426 l 1,0,-1
EndSplineSet
EndChar
StartChar: paragraph
Encoding: 182 182 182
Width: 1303
Flags: W
Fore
768 1493 m 2,0,-1
 1174 1493 l 1,1,-1
 846 -197 l 1,2,-1
 707 -197 l 1,3,-1
 1012 1370 l 1,4,-1
 821 1370 l 1,5,-1
 516 -197 l 1,6,-1
 375 -197 l 1,7,-1
 539 649 l 1,8,9
 361 655 361 655 260.5 749 c 128,-1,10
 160 843 160 843 160 1001 c 0,11,12
 160 1212 160 1212 332 1352.5 c 128,-1,13
 504 1493 504 1493 768 1493 c 2,0,-1
EndSplineSet
EndChar
StartChar: periodcentered
Encoding: 183 183 183
Width: 651
Flags: W
Fore
283 838 m 1,0,-1
 494 838 l 1,1,-1
 444 584 l 1,2,-1
 233 584 l 1,3,-1
 283 838 l 1,0,-1
EndSplineSet
EndChar
StartChar: cedilla
Encoding: 184 184 184
Width: 1024
Flags: W
Fore
477 0 m 1,0,1
 513 -51 513 -51 530 -94.5 c 128,-1,2
 547 -138 547 -138 547 -180 c 0,3,4
 547 -280 547 -280 473.5 -337.5 c 128,-1,5
 400 -395 400 -395 272 -395 c 0,6,7
 229 -395 229 -395 186 -389 c 128,-1,8
 143 -383 143 -383 100 -371 c 1,9,-1
 123 -240 l 1,10,11
 162 -256 162 -256 201.5 -264 c 128,-1,12
 241 -272 241 -272 283 -272 c 0,13,14
 343 -272 343 -272 378.5 -241.5 c 128,-1,15
 414 -211 414 -211 414 -158 c 0,16,17
 414 -129 414 -129 401.5 -93 c 128,-1,18
 389 -57 389 -57 358 0 c 1,19,-1
 477 0 l 1,0,1
EndSplineSet
Ligature: 0 1 'liga' space uni0327
EndChar
StartChar: onesuperior
Encoding: 185 185 185
Width: 821
Flags: W
Fore
156 778 m 1,0,-1
 360 778 l 1,1,-1
 479 1389 l 1,2,-1
 250 1348 l 1,3,-1
 272 1464 l 1,4,-1
 502 1503 l 1,5,-1
 647 1503 l 1,6,-1
 506 778 l 1,7,-1
 711 778 l 1,8,-1
 688 668 l 1,9,-1
 135 668 l 1,10,-1
 156 778 l 1,0,-1
EndSplineSet
EndChar
StartChar: ordmasculine
Encoding: 186 186 186
Width: 965
Flags: W
Fore
788 1180 m 0,0,1
 788 1290 788 1290 738.5 1347.5 c 128,-1,2
 689 1405 689 1405 592 1405 c 0,3,4
 476 1405 476 1405 391.5 1298 c 128,-1,5
 307 1191 307 1191 307 1040 c 0,6,7
 307 931 307 931 356.5 872 c 128,-1,8
 406 813 406 813 498 813 c 0,9,10
 620 813 620 813 704 918.5 c 128,-1,11
 788 1024 788 1024 788 1180 c 0,0,1
621 1520 m 0,12,13
 769 1520 769 1520 857.5 1434 c 128,-1,14
 946 1348 946 1348 946 1204 c 0,15,16
 946 984 946 984 813 841 c 128,-1,17
 680 698 680 698 477 698 c 0,18,19
 327 698 327 698 239.5 788 c 128,-1,20
 152 878 152 878 152 1032 c 0,21,22
 152 1100 152 1100 171 1166.5 c 128,-1,23
 190 1233 190 1233 227 1296 c 0,24,25
 289 1402 289 1402 393 1461 c 128,-1,26
 497 1520 497 1520 621 1520 c 0,12,13
104 592 m 1,27,-1
 793 592 l 1,28,-1
 770 469 l 1,29,-1
 82 469 l 1,30,-1
 104 592 l 1,27,-1
EndSplineSet
EndChar
StartChar: guillemotright
Encoding: 187 187 187
Width: 1264
Flags: W
Fore
569 141 m 1,0,-1
 608 342 l 1,1,-1
 963 612 l 1,2,-1
 711 879 l 1,3,-1
 750 1059 l 1,4,-1
 1135 641 l 1,5,-1
 1120 559 l 1,6,-1
 569 141 l 1,0,-1
127 141 m 1,7,-1
 166 342 l 1,8,-1
 518 612 l 1,9,-1
 268 879 l 1,10,-1
 305 1059 l 1,11,-1
 690 641 l 1,12,-1
 676 559 l 1,13,-1
 127 141 l 1,7,-1
EndSplineSet
EndChar
StartChar: questiondown
Encoding: 191 191 191
Width: 1087
Flags: W
Fore
612 1239 m 1,0,-1
 662 1493 l 1,1,-1
 864 1493 l 1,2,-1
 815 1239 l 1,3,-1
 612 1239 l 1,0,-1
834 86 m 1,4,5
 731 29 731 29 630 1 c 128,-1,6
 529 -27 529 -27 422 -27 c 0,7,8
 261 -27 261 -27 168.5 48 c 128,-1,9
 76 123 76 123 76 252 c 0,10,11
 76 355 76 355 129.5 445 c 128,-1,12
 183 535 183 535 303 633 c 2,13,-1
 406 717 l 2,14,15
 491 785 491 785 519.5 832 c 128,-1,16
 548 879 548 879 565 969 c 1,17,-1
 590 1092 l 1,18,-1
 780 1092 l 1,19,-1
 750 938 l 1,20,21
 731 844 731 844 692 778.5 c 128,-1,22
 653 713 653 713 543 621 c 2,23,-1
 436 532 l 2,24,25
 352 462 352 462 318.5 409 c 128,-1,26
 285 356 285 356 285 299 c 0,27,28
 285 223 285 223 339.5 180 c 128,-1,29
 394 137 394 137 489 137 c 0,30,31
 570 137 570 137 668 172.5 c 128,-1,32
 766 208 766 208 870 274 c 1,33,-1
 834 86 l 1,4,5
EndSplineSet
EndChar
StartChar: Aring
Encoding: 197 197 197
Width: 1401
Flags: W
Fore
1020 1626 m 0,0,1
 1020 1689 1020 1689 975.5 1733.5 c 128,-1,2
 931 1778 931 1778 868 1778 c 0,3,4
 804 1778 804 1778 760.5 1734.5 c 128,-1,5
 717 1691 717 1691 717 1626 c 0,6,7
 717 1563 717 1563 760.5 1519 c 128,-1,8
 804 1475 804 1475 868 1475 c 0,9,10
 931 1475 931 1475 975.5 1519 c 128,-1,11
 1020 1563 1020 1563 1020 1626 c 0,0,1
705 1407 m 1,12,13
 651 1444 651 1444 622.5 1500.5 c 128,-1,14
 594 1557 594 1557 594 1626 c 0,15,16
 594 1740 594 1740 674 1820.5 c 128,-1,17
 754 1901 754 1901 868 1901 c 0,18,19
 982 1901 982 1901 1062.5 1820.5 c 128,-1,20
 1143 1740 1143 1740 1143 1626 c 0,21,22
 1143 1547 1143 1547 1106.5 1486 c 128,-1,23
 1070 1425 1070 1425 1001 1389 c 1,24,-1
 1260 0 l 1,25,-1
 1049 0 l 1,26,-1
 987 383 l 1,27,-1
 315 383 l 1,28,-1
 104 0 l 1,29,-1
 -109 0 l 1,30,-1
 705 1407 l 1,12,13
827 1294 m 1,31,-1
 408 551 l 1,32,-1
 956 551 l 1,33,-1
 827 1294 l 1,31,-1
EndSplineSet
Ligature: 0 0 'liga' A uni030A
EndChar
StartChar: AE
Encoding: 198 198 198
Width: 1995
Flags: W
Fore
932 1335 m 1,0,-1
 449 551 l 1,1,-1
 907 551 l 1,2,-1
 1061 1335 l 1,3,-1
 932 1335 l 1,0,-1
2036 1493 m 1,4,-1
 2003 1323 l 1,5,-1
 1262 1323 l 1,6,-1
 1174 881 l 1,7,-1
 1886 881 l 1,8,-1
 1853 711 l 1,9,-1
 1141 711 l 1,10,-1
 1036 170 l 1,11,-1
 1796 170 l 1,12,-1
 1763 0 l 1,13,-1
 801 0 l 1,14,-1
 874 383 l 1,15,-1
 348 383 l 1,16,-1
 113 0 l 1,17,-1
 -92 0 l 1,18,-1
 823 1493 l 1,19,-1
 2036 1493 l 1,4,-1
EndSplineSet
KernsSLIFO: 45 -36 0 0
EndChar
StartChar: Eth
Encoding: 208 208 208
Width: 1587
Flags: W
Fore
356 1493 m 1,0,-1
 791 1493 l 2,1,2
 1136 1493 1136 1493 1312.5 1346.5 c 128,-1,3
 1489 1200 1489 1200 1489 911 c 0,4,5
 1489 721 1489 721 1421.5 544.5 c 128,-1,6
 1354 368 1354 368 1235 246 c 0,7,8
 1116 122 1116 122 934 61 c 128,-1,9
 752 0 752 0 502 0 c 2,10,-1
 66 0 l 1,11,-1
 201 700 l 1,12,-1
 0 700 l 1,13,-1
 29 844 l 1,14,-1
 229 844 l 1,15,-1
 356 1493 l 1,0,-1
526 1327 m 1,16,-1
 432 844 l 1,17,-1
 768 844 l 1,18,-1
 739 700 l 1,19,-1
 403 700 l 1,20,-1
 301 166 l 1,21,-1
 565 166 l 2,22,23
 905 166 905 166 1090.5 361 c 128,-1,24
 1276 556 1276 556 1276 911 c 0,25,26
 1276 1126 1276 1126 1156 1226.5 c 128,-1,27
 1036 1327 1036 1327 780 1327 c 2,28,-1
 526 1327 l 1,16,-1
EndSplineSet
KernsSLIFO: 45 38 0 0
EndChar
StartChar: multiply
Encoding: 215 215 215
Width: 1716
Flags: W
Fore
1436 1100 m 1,0,-1
 979 641 l 1,1,-1
 1436 184 l 1,2,-1
 1317 63 l 1,3,-1
 858 522 l 1,4,-1
 399 63 l 1,5,-1
 281 184 l 1,6,-1
 737 641 l 1,7,-1
 281 1100 l 1,8,-1
 399 1221 l 1,9,-1
 858 762 l 1,10,-1
 1317 1221 l 1,11,-1
 1436 1100 l 1,0,-1
EndSplineSet
EndChar
StartChar: Oslash
Encoding: 216 216 216
Width: 1612
Flags: W
AnchorPoint: "above" 984 1520 basechar 0
Fore
1223 1235 m 1,0,1
 1178 1295 1178 1295 1105 1325.5 c 128,-1,2
 1032 1356 1032 1356 934 1356 c 0,3,4
 769 1356 769 1356 641.5 1275 c 128,-1,5
 514 1194 514 1194 422 1032 c 0,6,7
 360 923 360 923 327.5 804 c 128,-1,8
 295 685 295 685 295 571 c 0,9,10
 295 526 295 526 301 482.5 c 128,-1,11
 307 439 307 439 319 395 c 1,12,-1
 1223 1235 l 1,0,1
1288 1116 m 1,13,-1
 381 270 l 1,14,15
 432 202 432 202 505.5 168.5 c 128,-1,16
 579 135 579 135 678 135 c 0,17,18
 842 135 842 135 970.5 216.5 c 128,-1,19
 1099 298 1099 298 1190 459 c 0,20,21
 1252 571 1252 571 1283.5 688.5 c 128,-1,22
 1315 806 1315 806 1315 928 c 0,23,24
 1315 984 1315 984 1308.5 1030.5 c 128,-1,25
 1302 1077 1302 1077 1288 1116 c 1,13,-1
160 246 m 1,26,27
 121 326 121 326 101.5 408 c 128,-1,28
 82 490 82 490 82 575 c 0,29,30
 82 741 82 741 143 909 c 128,-1,31
 204 1077 204 1077 313 1212 c 0,32,33
 438 1366 438 1366 594.5 1443 c 128,-1,34
 751 1520 751 1520 940 1520 c 0,35,36
 1070 1520 1070 1520 1175 1481.5 c 128,-1,37
 1280 1443 1280 1443 1364 1366 c 1,38,-1
 1567 1559 l 1,39,-1
 1657 1460 l 1,40,-1
 1448 1262 l 1,41,42
 1488 1189 1488 1189 1508 1104.5 c 128,-1,43
 1528 1020 1528 1020 1528 922 c 0,44,45
 1528 745 1528 745 1469 579.5 c 128,-1,46
 1410 414 1410 414 1298 279 c 0,47,48
 1170 123 1170 123 1015.5 47 c 128,-1,49
 861 -29 861 -29 672 -29 c 0,50,51
 533 -29 533 -29 424.5 13 c 128,-1,52
 316 55 316 55 240 137 c 1,53,-1
 20 -66 l 1,54,-1
 -70 33 l 1,55,-1
 160 246 l 1,26,27
EndSplineSet
KernsSLIFO: 88 -36 0 0 59 38 0 0 58 38 0 0 46 -83 0 0 45 38 0 0 44 -83 0 0
EndChar
StartChar: Thorn
Encoding: 222 222 222
Width: 1245
Flags: W
Fore
580 338 m 2,0,-1
 324 338 l 1,1,-1
 258 0 l 1,2,-1
 55 0 l 1,3,-1
 346 1493 l 1,4,-1
 549 1493 l 1,5,-1
 498 1229 l 1,6,-1
 764 1229 l 2,7,8
 968 1229 968 1229 1075 1134 c 128,-1,9
 1182 1039 1182 1039 1182 856 c 0,10,11
 1182 610 1182 610 1024 474 c 128,-1,12
 866 338 866 338 580 338 c 2,0,-1
467 1063 m 1,13,-1
 358 504 l 1,14,-1
 612 504 l 2,15,16
 784 504 784 504 876.5 591.5 c 128,-1,17
 969 679 969 679 969 844 c 0,18,19
 969 948 969 948 907 1005.5 c 128,-1,20
 845 1063 845 1063 731 1063 c 2,21,-1
 467 1063 l 1,13,-1
EndSplineSet
KernsSLIFO: 46 -149 0 0 45 75 0 0 44 -149 0 0
EndChar
StartChar: germandbls
Encoding: 223 223 223
Width: 1290
Flags: W
Fore
317 1137 m 1,0,1
 355 1334 355 1334 487.5 1445 c 128,-1,2
 620 1556 620 1556 817 1556 c 0,3,4
 991 1556 991 1556 1099.5 1463 c 128,-1,5
 1208 1370 1208 1370 1208 1223 c 0,6,7
 1208 1198 1208 1198 1205 1167.5 c 128,-1,8
 1202 1137 1202 1137 1196 1100 c 1,9,10
 1034 1092 1034 1092 934 1024.5 c 128,-1,11
 834 957 834 957 834 860 c 0,12,13
 834 820 834 820 855 784 c 128,-1,14
 876 748 876 748 924 711 c 2,15,-1
 973 672 l 2,16,17
 1092 578 1092 578 1133 512.5 c 128,-1,18
 1174 447 1174 447 1174 367 c 0,19,20
 1174 195 1174 195 1035 83 c 128,-1,21
 896 -29 896 -29 678 -29 c 0,22,23
 602 -29 602 -29 532 -16.5 c 128,-1,24
 462 -4 462 -4 399 20 c 1,25,-1
 430 184 l 1,26,27
 495 155 495 155 564.5 140 c 128,-1,28
 634 125 634 125 705 125 c 0,29,30
 829 125 829 125 906 182 c 128,-1,31
 983 239 983 239 983 330 c 0,32,33
 983 375 983 375 959.5 414 c 128,-1,34
 936 453 936 453 858 520 c 2,35,-1
 807 563 l 2,36,37
 710 645 710 645 676.5 700.5 c 128,-1,38
 643 756 643 756 643 823 c 0,39,40
 643 949 643 949 749 1050 c 128,-1,41
 855 1151 855 1151 1028 1188 c 1,42,43
 1030 1196 1030 1196 1031 1206 c 128,-1,44
 1032 1216 1032 1216 1032 1235 c 0,45,46
 1032 1313 1032 1313 975.5 1358 c 128,-1,47
 919 1403 919 1403 819 1403 c 0,48,49
 686 1403 686 1403 606 1335 c 128,-1,50
 526 1267 526 1267 500 1133 c 2,51,-1
 281 0 l 1,52,-1
 96 0 l 1,53,-1
 317 1137 l 1,0,1
EndSplineSet
EndChar
StartChar: ae
Encoding: 230 230 230
Width: 2038
Flags: W
AnchorPoint: "above" 1109.3 1147 basechar 0
AnchorPoint: "below" 886.342 0 basechar 0
Fore
1763 660 m 1,0,1
 1766 676 1766 676 1767.5 693 c 128,-1,2
 1769 710 1769 710 1769 727 c 0,3,4
 1769 849 1769 849 1698 920 c 128,-1,5
 1627 991 1627 991 1503 991 c 0,6,7
 1366 991 1366 991 1261 904.5 c 128,-1,8
 1156 818 1156 818 1102 659 c 1,9,-1
 1763 660 l 1,0,1
319 1069 m 1,10,11
 423 1108 423 1108 522.5 1127.5 c 128,-1,12
 622 1147 622 1147 715 1147 c 0,13,14
 859 1147 859 1147 952 1102 c 128,-1,15
 1045 1057 1045 1057 1090 965 c 1,16,17
 1176 1055 1176 1055 1288 1101 c 128,-1,18
 1400 1147 1400 1147 1532 1147 c 0,19,20
 1722 1147 1722 1147 1835 1033 c 128,-1,21
 1948 919 1948 919 1948 727 c 0,22,23
 1948 681 1948 681 1941.5 628.5 c 128,-1,24
 1935 576 1935 576 1923 516 c 1,25,-1
 1067 516 l 1,26,27
 1061 478 1061 478 1059 456 c 128,-1,28
 1057 434 1057 434 1057 418 c 0,29,30
 1057 279 1057 279 1142.5 203 c 128,-1,31
 1228 127 1228 127 1384 127 c 0,32,33
 1504 127 1504 127 1611.5 154 c 128,-1,34
 1719 181 1719 181 1810 233 c 1,35,-1
 1776 51 l 1,36,37
 1676 11 1676 11 1570.5 -9 c 128,-1,38
 1465 -29 1465 -29 1356 -29 c 0,39,40
 1188 -29 1188 -29 1074.5 28.5 c 128,-1,41
 961 86 961 86 905 199 c 1,42,43
 803 81 803 81 693 26 c 128,-1,44
 583 -29 583 -29 451 -29 c 0,45,46
 277 -29 277 -29 180.5 53 c 128,-1,47
 84 135 84 135 84 283 c 0,48,49
 84 479 84 479 240.5 593 c 128,-1,50
 397 707 397 707 672 707 c 2,51,-1
 928 707 l 1,52,-1
 938 756 l 1,53,54
 940 764 940 764 941 773.5 c 128,-1,55
 942 783 942 783 942 803 c 0,56,57
 942 892 942 892 869.5 941.5 c 128,-1,58
 797 991 797 991 666 991 c 0,59,60
 576 991 576 991 481.5 968 c 128,-1,61
 387 945 387 945 287 899 c 1,62,-1
 319 1069 l 1,10,11
901 563 m 1,63,-1
 717 563 l 2,64,65
 491 563 491 563 382.5 502.5 c 128,-1,66
 274 442 274 442 274 315 c 0,67,68
 274 227 274 227 329.5 177 c 128,-1,69
 385 127 385 127 483 127 c 0,70,71
 633 127 633 127 745 234.5 c 128,-1,72
 857 342 857 342 893 522 c 2,73,-1
 901 563 l 1,63,-1
EndSplineSet
EndChar
StartChar: eth
Encoding: 240 240 240
Width: 1253
Flags: W
AnchorPoint: "below" 488.591 0 basechar 0
AnchorPoint: "above" 784.049 1520 basechar 0
Fore
1016 1141 m 1,0,1
 1084 1039 1084 1039 1118.5 928.5 c 128,-1,2
 1153 818 1153 818 1153 700 c 0,3,4
 1153 564 1153 564 1113.5 437.5 c 128,-1,5
 1074 311 1074 311 999 211 c 1,6,7
 915 95 915 95 792.5 33 c 128,-1,8
 670 -29 670 -29 526 -29 c 0,9,10
 328 -29 328 -29 210 88.5 c 128,-1,11
 92 206 92 206 92 401 c 0,12,13
 92 521 92 521 133 639 c 128,-1,14
 174 757 174 757 250 858 c 0,15,16
 338 974 338 974 459 1036 c 128,-1,17
 580 1098 580 1098 719 1098 c 0,18,19
 739 1098 739 1098 768 1095.5 c 128,-1,20
 797 1093 797 1093 837 1088 c 1,21,-1
 713 1268 l 1,22,-1
 362 1161 l 1,23,-1
 330 1255 l 1,24,-1
 657 1352 l 1,25,-1
 518 1556 l 1,26,-1
 735 1556 l 1,27,-1
 831 1411 l 1,28,-1
 1167 1520 l 1,29,-1
 1202 1425 l 1,30,-1
 889 1327 l 1,31,-1
 1016 1141 l 1,0,1
913 915 m 1,32,33
 870 932 870 932 826.5 940 c 128,-1,34
 783 948 783 948 739 948 c 0,35,36
 537 948 537 948 410 797.5 c 128,-1,37
 283 647 283 647 283 408 c 0,38,39
 283 270 283 270 348.5 198.5 c 128,-1,40
 414 127 414 127 541 127 c 0,41,42
 723 127 723 127 845 288.5 c 128,-1,43
 967 450 967 450 967 694 c 0,44,45
 967 762 967 762 954 816 c 128,-1,46
 941 870 941 870 913 915 c 1,32,33
EndSplineSet
EndChar
StartChar: divide
Encoding: 247 247 247
Width: 1716
Flags: W
Fore
735 1135 m 1,0,-1
 981 1135 l 1,1,-1
 981 889 l 1,2,-1
 735 889 l 1,3,-1
 735 1135 l 1,0,-1
735 395 m 1,4,-1
 981 395 l 1,5,-1
 981 150 l 1,6,-1
 735 150 l 1,7,-1
 735 395 l 1,4,-1
217 727 m 1,8,-1
 1499 727 l 1,9,-1
 1499 557 l 1,10,-1
 217 557 l 1,11,-1
 217 727 l 1,8,-1
EndSplineSet
EndChar
StartChar: oslash
Encoding: 248 248 248
Width: 1253
Flags: W
AnchorPoint: "above" 751.685 1147 basechar 0
AnchorPoint: "below" 528.73 0 basechar 0
Fore
901 922 m 1,0,1
 864 957 864 957 817.5 974 c 128,-1,2
 771 991 771 991 713 991 c 0,3,4
 527 991 527 991 407 830.5 c 128,-1,5
 287 670 287 670 287 420 c 0,6,7
 287 373 287 373 288.5 352.5 c 128,-1,8
 290 332 290 332 295 315 c 1,9,-1
 901 922 l 1,0,1
154 172 m 1,10,11
 124 221 124 221 109 284 c 128,-1,12
 94 347 94 347 94 422 c 0,13,14
 94 544 94 544 133.5 671.5 c 128,-1,15
 173 799 173 799 236 885 c 0,16,17
 334 1019 334 1019 455.5 1083 c 128,-1,18
 577 1147 577 1147 733 1147 c 0,19,20
 820 1147 820 1147 894 1121 c 128,-1,21
 968 1095 968 1095 1026 1044 c 1,22,-1
 1188 1208 l 1,23,-1
 1274 1122 l 1,24,-1
 1102 950 l 1,25,26
 1130 895 1130 895 1144.5 832.5 c 128,-1,27
 1159 770 1159 770 1159 702 c 0,28,29
 1159 578 1159 578 1119.5 448.5 c 128,-1,30
 1080 319 1080 319 1018 233 c 0,31,32
 921 99 921 99 799.5 35 c 128,-1,33
 678 -29 678 -29 520 -29 c 0,34,35
 433 -29 433 -29 359.5 -2.5 c 128,-1,36
 286 24 286 24 229 76 c 1,37,-1
 57 -94 l 1,38,-1
 -29 -10 l 1,39,-1
 154 172 l 1,10,11
961 809 m 1,40,-1
 352 199 l 1,41,42
 391 162 391 162 436.5 144.5 c 128,-1,43
 482 127 482 127 541 127 c 0,44,45
 730 127 730 127 849.5 290.5 c 128,-1,46
 969 454 969 454 969 717 c 0,47,48
 969 756 969 756 967 775 c 128,-1,49
 965 794 965 794 961 809 c 1,40,-1
EndSplineSet
EndChar
StartChar: thorn
Encoding: 254 254 254
Width: 1300
Flags: W
Fore
1016 690 m 0,0,1
 1016 837 1016 837 952 915 c 128,-1,2
 888 993 888 993 768 993 c 0,3,4
 686 993 686 993 611.5 951 c 128,-1,5
 537 909 537 909 479 829 c 0,6,7
 422 750 422 750 388 638 c 128,-1,8
 354 526 354 526 354 416 c 0,9,10
 354 276 354 276 418 200.5 c 128,-1,11
 482 125 482 125 600 125 c 0,12,13
 687 125 687 125 761.5 166 c 128,-1,14
 836 207 836 207 889 285 c 0,15,16
 946 367 946 367 981 478 c 128,-1,17
 1016 589 1016 589 1016 690 c 0,0,1
446 950 m 1,18,19
 520 1047 520 1047 620.5 1097 c 128,-1,20
 721 1147 721 1147 844 1147 c 0,21,22
 1016 1147 1016 1147 1111 1034.5 c 128,-1,23
 1206 922 1206 922 1206 719 c 0,24,25
 1206 553 1206 553 1147 402.5 c 128,-1,26
 1088 252 1088 252 977 133 c 0,27,28
 903 54 903 54 810 12.5 c 128,-1,29
 717 -29 717 -29 614 -29 c 0,30,31
 495 -29 495 -29 414 20.5 c 128,-1,32
 333 70 333 70 293 168 c 1,33,-1
 178 -426 l 1,34,-1
 -6 -426 l 1,35,-1
 375 1556 l 1,36,-1
 559 1556 l 1,37,-1
 446 950 l 1,18,19
EndSplineSet
EndChar
StartChar: dcroat
Encoding: 273 273 273
Width: 1300
Flags: W
Fore
856 168 m 1,0,1
 782 71 782 71 681 21 c 128,-1,2
 580 -29 580 -29 457 -29 c 0,3,4
 289 -29 289 -29 191.5 85.5 c 128,-1,5
 94 200 94 200 94 399 c 0,6,7
 94 565 94 565 153 715.5 c 128,-1,8
 212 866 212 866 324 985 c 0,9,10
 398 1064 398 1064 491 1105.5 c 128,-1,11
 584 1147 584 1147 686 1147 c 0,12,13
 794 1147 794 1147 876.5 1095 c 128,-1,14
 959 1043 959 1043 1004 946 c 1,15,-1
 1071 1284 l 1,16,-1
 745 1284 l 1,17,-1
 772 1407 l 1,18,-1
 1098 1407 l 1,19,-1
 1124 1556 l 1,20,-1
 1309 1556 l 1,21,-1
 1282 1407 l 1,22,-1
 1436 1407 l 1,23,-1
 1409 1284 l 1,24,-1
 1255 1284 l 1,25,-1
 1006 0 l 1,26,-1
 821 0 l 1,27,-1
 856 168 l 1,0,1
285 432 m 0,28,29
 285 287 285 287 350.5 206 c 128,-1,30
 416 125 416 125 532 125 c 0,31,32
 618 125 618 125 691.5 166.5 c 128,-1,33
 765 208 765 208 821 289 c 0,34,35
 880 373 880 373 914 483 c 128,-1,36
 948 593 948 593 948 700 c 0,37,38
 948 839 948 839 882.5 917 c 128,-1,39
 817 995 817 995 702 995 c 0,40,41
 615 995 615 995 540 954 c 128,-1,42
 465 913 465 913 412 836 c 0,43,44
 354 753 354 753 319.5 643 c 128,-1,45
 285 533 285 533 285 432 c 0,28,29
EndSplineSet
EndChar
StartChar: Hbar
Encoding: 294 294 294
Width: 1876
Flags: W
AnchorPoint: "above" 1101 1520 basechar 0
Fore
514 1493 m 1,0,-1
 716 1493 l 1,1,-1
 673 1269 l 1,2,-1
 1407 1269 l 1,3,-1
 1450 1493 l 1,4,-1
 1652 1493 l 1,5,-1
 1609 1269 l 1,6,-1
 1777 1269 l 1,7,-1
 1745 1105 l 1,8,-1
 1577 1105 l 1,9,-1
 1362 0 l 1,10,-1
 1160 0 l 1,11,-1
 1298 711 l 1,12,-1
 564 711 l 1,13,-1
 426 0 l 1,14,-1
 224 0 l 1,15,-1
 439 1105 l 1,16,-1
 271 1105 l 1,17,-1
 303 1269 l 1,18,-1
 471 1269 l 1,19,-1
 514 1493 l 1,0,-1
641 1105 m 1,20,-1
 597 881 l 1,21,-1
 1331 881 l 1,22,-1
 1375 1105 l 1,23,-1
 641 1105 l 1,20,-1
EndSplineSet
EndChar
StartChar: hbar
Encoding: 295 295 295
Width: 1423
Flags: W
AnchorPoint: "below" 568.772 0 basechar 0
AnchorPoint: "above" 476 1520 basechar 0
Fore
1163 676 m 2,0,-1
 1032 0 l 1,1,-1
 848 0 l 1,2,-1
 978 670 l 17,3,4
 990 733 990 733 990 784 c 0,5,6
 990 860.5 990 860.5 962.5 908 c 0,7,8
 915.5 987 915.5 987 791.5 987 c 0,9,10
 643 987 643 987 538 892 c 0,11,12
 434 797 434 797 402 633 c 9,13,-1
 279 0 l 1,14,-1
 94 0 l 1,15,-1
 341 1270 l 1,16,-1
 216 1270 l 1,17,-1
 248 1434 l 1,18,-1
 373 1434 l 1,19,-1
 396 1556 l 1,20,-1
 581 1556 l 1,21,-1
 558 1434 l 1,22,-1
 910 1434 l 1,23,-1
 878 1270 l 1,24,-1
 526 1270 l 1,25,-1
 463 946 l 1,26,27
 548 1047 548 1047 647.5 1097 c 0,28,29
 746.5 1147 746.5 1147 863.5 1147 c 0,30,31
 1056.5 1147 1056.5 1147 1132.5 1027.5 c 0,32,33
 1180 952.5 1180 952.5 1180 833.5 c 0,34,35
 1180 762.5 1180 762.5 1163 676 c 2,0,-1
EndSplineSet
EndChar
StartChar: dotlessi
Encoding: 305 305 305
Width: 569
Flags: W
AnchorPoint: "above" 360 1147 basechar 0
Fore
291 1120 m 1,0,-1
 475 1120 l 1,1,-1
 256 0 l 1,2,-1
 72 0 l 1,3,-1
 291 1120 l 1,0,-1
EndSplineSet
EndChar
StartChar: kgreenlandic
Encoding: 312 312 312
Width: 1186
Flags: W
Fore
295 1120 m 1,0,-1
 480 1120 l 1,1,-1
 386 635 l 1,2,-1
 1029 1120 l 1,3,-1
 1264 1120 l 1,4,-1
 568 594 l 1,5,-1
 1071 0 l 1,6,-1
 831 0 l 1,7,-1
 368 545 l 1,8,-1
 262 0 l 1,9,-1
 77 0 l 1,10,-1
 295 1120 l 1,0,-1
EndSplineSet
EndChar
StartChar: Lslash
Encoding: 321 321 321
Width: 1151
Flags: W
Fore
354 1493 m 1,0,-1
 557 1493 l 1,1,-1
 432 860 l 1,2,-1
 784 1016 l 1,3,-1
 840 891 l 1,4,-1
 401 698 l 1,5,-1
 301 168 l 1,6,-1
 1028 168 l 1,7,-1
 995 0 l 1,8,-1
 66 0 l 1,9,-1
 180 600 l 1,10,-1
 16 524 l 1,11,-1
 -41 647 l 1,12,-1
 211 760 l 1,13,-1
 354 1493 l 1,0,-1
EndSplineSet
KernsSLIFO: 356 -139 0 0 253 -73 0 0 221 -196 0 0 210 -63 0 0 212 -63 0 0 211 -63 0 0 376 -196 0 0 255 -73 0 0 8217 -368 0 0 8216 -188 0 0 8221 -368 0 0 8220 -188 0 0 338 -63 0 0 213 -63 0 0 216 -63 0 0 214 -63 0 0 121 -73 0 0 89 -196 0 0 87 -83 0 0 86 -149 0 0 84 -139 0 0 79 -63 0 0 45 -159 0 0
EndChar
StartChar: lslash
Encoding: 322 322 322
Width: 588
Flags: W
Fore
389 1556 m 1,0,-1
 573 1556 l 1,1,-1
 457 950 l 1,2,-1
 598 1014 l 1,3,-1
 651 895 l 1,4,-1
 428 793 l 1,5,-1
 270 0 l 1,6,-1
 86 0 l 1,7,-1
 223 700 l 1,8,-1
 88 639 l 1,9,-1
 35 758 l 1,10,-1
 254 856 l 1,11,-1
 389 1556 l 1,0,-1
EndSplineSet
EndChar
StartChar: Eng
Encoding: 330 330 330
Width: 1532
Flags: W
AnchorPoint: "above" 945 1520 basechar 0
Fore
368 1493 m 1,0,-1
 552 1493 l 1,1,-1
 1066 344 l 1,2,-1
 1290 1493 l 1,3,-1
 1474 1493 l 1,4,-1
 1180 -20 l 18,5,6
 1138 -234 1138 -234 1037 -330 c 0,7,8
 938 -426 938 -426 756 -426 c 2,9,-1
 502 -426 l 1,10,-1
 532 -270 l 1,11,-1
 766 -270 l 2,12,13
 870 -270 870 -270 918 -222 c 0,14,15
 971 -157 971 -157 999 0 c 1,16,-1
 485 1149 l 1,17,-1
 261 0 l 1,18,-1
 77 0 l 1,19,-1
 368 1493 l 1,0,-1
EndSplineSet
Substitution: 0 2 'salt' Eng.alt
Substitution: 0 4 'locl' Eng.alt
Substitution: 0 2 'aalt' Eng.alt
EndChar
StartChar: eng
Encoding: 331 331 331
Width: 1298
Flags: W
AnchorPoint: "above" 749 1147 basechar 0
AnchorPoint: "below" 482.938 -430 basechar 0
Fore
1141 676 m 1,0,-1
 1005.63 -25 l 2,1,2
 968.776 -215.859 968.776 -215.859 920.632 -287 c 0,3,4
 875.632 -354 875.632 -354 789.132 -390 c 128,-1,5
 702.632 -426 702.632 -426 584.632 -426 c 2,6,-1
 326 -426 l 1,7,-1
 356 -270 l 1,8,-1
 592.632 -270 l 2,9,10
 700.632 -270 700.632 -270 746.132 -225 c 128,-1,11
 791.668 -179.964 791.668 -179.964 822.632 -20 c 2,12,-1
 956 669 l 2,13,14
 965 716 965 716 970 752 c 128,-1,15
 975 788 975 788 975 809 c 0,16,17
 975 893 975 893 922 940 c 128,-1,18
 869 987 869 987 774 987 c 0,19,20
 626 987 626 987 519 888.5 c 128,-1,21
 412 790 412 790 379 621 c 1,22,-1
 256 0 l 1,23,-1
 72 0 l 1,24,-1
 289 1120 l 1,25,-1
 473 1120 l 1,26,-1
 436 944 l 1,27,28
 513 1041 513 1041 621 1094 c 128,-1,29
 729 1147 729 1147 848 1147 c 0,30,31
 996 1147 996 1147 1077.5 1067 c 128,-1,32
 1159 987 1159 987 1159 842 c 0,33,34
 1159 806 1159 806 1154.5 765 c 128,-1,35
 1150 724 1150 724 1141 676 c 1,0,-1
EndSplineSet
EndChar
StartChar: OE
Encoding: 338 338 338
Width: 2191
Flags: W
Fore
1210 1323 m 1,0,-1
 1090 1323 l 2,1,2
 924 1323 924 1323 794.5 1285 c 128,-1,3
 665 1247 665 1247 578 1174 c 0,4,5
 445 1064 445 1064 376 913.5 c 128,-1,6
 307 763 307 763 307 582 c 0,7,8
 307 379 307 379 433.5 274.5 c 128,-1,9
 560 170 560 170 807 170 c 2,10,-1
 856 170 l 1,11,-1
 985 170 l 1,12,-1
 1210 1323 l 1,0,-1
2185 1493 m 1,13,-1
 2152 1323 l 1,14,-1
 1413 1323 l 1,15,-1
 1325 881 l 1,16,-1
 2036 881 l 1,17,-1
 2003 711 l 1,18,-1
 1292 711 l 1,19,-1
 1188 170 l 1,20,-1
 1948 170 l 1,21,-1
 1915 0 l 1,22,-1
 825 0 l 2,23,24
 663 0 663 0 574.5 15.5 c 128,-1,25
 486 31 486 31 408 66 c 0,26,27
 251 136 251 136 172.5 265 c 128,-1,28
 94 394 94 394 94 582 c 0,29,30
 94 791 94 791 186.5 977 c 128,-1,31
 279 1163 279 1163 451 1298 c 0,32,33
 574 1396 574 1396 749 1444.5 c 128,-1,34
 924 1493 924 1493 1149 1493 c 2,35,-1
 2185 1493 l 1,13,-1
EndSplineSet
EndChar
StartChar: oe
Encoding: 339 339 339
Width: 2105
Flags: W
Fore
1991 516 m 1,0,-1
 1135 516 l 1,1,2
 1131 489 1131 489 1128.5 464 c 128,-1,3
 1126 439 1126 439 1126 418 c 0,4,5
 1126 279 1126 279 1211 203 c 128,-1,6
 1296 127 1296 127 1452 127 c 0,7,8
 1572 127 1572 127 1680.5 154 c 128,-1,9
 1789 181 1789 181 1880 233 c 1,10,-1
 1843 51 l 1,11,12
 1744 12 1744 12 1639 -8.5 c 128,-1,13
 1534 -29 1534 -29 1425 -29 c 0,14,15
 1264 -29 1264 -29 1149 26 c 128,-1,16
 1034 81 1034 81 987 180 c 1,17,18
 886 75 886 75 770.5 23 c 128,-1,19
 655 -29 655 -29 520 -29 c 0,20,21
 329 -29 329 -29 211.5 90 c 128,-1,22
 94 209 94 209 94 401 c 0,23,24
 94 538 94 538 132 667.5 c 128,-1,25
 170 797 170 797 236 885 c 0,26,27
 335 1019 335 1019 457 1083 c 128,-1,28
 579 1147 579 1147 733 1147 c 0,29,30
 863 1147 863 1147 962.5 1088.5 c 128,-1,31
 1062 1030 1062 1030 1116 922 c 1,32,33
 1215 1034 1215 1034 1336 1090.5 c 128,-1,34
 1457 1147 1457 1147 1599 1147 c 0,35,36
 1790 1147 1790 1147 1902.5 1033 c 128,-1,37
 2015 919 2015 919 2015 727 c 0,38,39
 2015 681 2015 681 2009 628.5 c 128,-1,40
 2003 576 2003 576 1991 516 c 1,0,-1
1831 660 m 1,41,42
 1834 676 1834 676 1835.5 693 c 128,-1,43
 1837 710 1837 710 1837 727 c 0,44,45
 1837 849 1837 849 1765.5 920 c 128,-1,46
 1694 991 1694 991 1571 991 c 0,47,48
 1433 991 1433 991 1328.5 904.5 c 128,-1,49
 1224 818 1224 818 1169 659 c 1,50,-1
 1831 660 l 1,41,42
285 430 m 0,51,52
 285 278 285 278 348.5 202.5 c 128,-1,53
 412 127 412 127 541 127 c 0,54,55
 726 127 726 127 847.5 287 c 128,-1,56
 969 447 969 447 969 696 c 0,57,58
 969 843 969 843 904.5 917 c 128,-1,59
 840 991 840 991 713 991 c 0,60,61
 609 991 609 991 528 942.5 c 128,-1,62
 447 894 447 894 383 795 c 0,63,64
 336 721 336 721 310.5 626 c 128,-1,65
 285 531 285 531 285 430 c 0,51,52
EndSplineSet
EndChar
StartChar: Tbar
Encoding: 358 358 358
Width: 1251
Flags: W
TeX: 0 0 0 0
AnchorPoint: "above" 771 1520 basechar 0
Fore
139 1493 m 1,0,-1
 1402 1493 l 1,1,-1
 1369 1323 l 1,2,-1
 839 1323 l 1,3,-1
 727 747 l 1,4,-1
 992 747 l 1,5,-1
 959 577 l 1,6,-1
 694 577 l 1,7,-1
 582 0 l 1,8,-1
 379 0 l 1,9,-1
 491 577 l 1,10,-1
 222 577 l 1,11,-1
 255 747 l 1,12,-1
 524 747 l 1,13,-1
 636 1323 l 1,14,-1
 106 1323 l 1,15,-1
 139 1493 l 1,0,-1
EndSplineSet
EndChar
StartChar: tbar
Encoding: 359 359 359
Width: 803
Flags: W
TeX: 0 0 0 0
Fore
515 1438 m 1,0,-1
 453 1120 l 1,1,-1
 832 1120 l 1,2,-1
 804 977 l 1,3,-1
 425 977 l 1,4,-1
 380 744 l 1,5,-1
 570 744 l 1,6,-1
 542 602 l 1,7,-1
 352 602 l 1,8,-1
 307 369 l 2,9,10
 294 304 294 304 294 261 c 0,11,12
 294 214 294 214 310 193 c 0,13,14
 340 154 340 154 455 154 c 2,15,-1
 644 154 l 1,16,-1
 614 0 l 1,17,-1
 425 0 l 2,18,19
 212 0 212 0 147 80 c 0,20,21
 106 129 106 129 106 227 c 0,22,23
 106 289 106 289 122 369 c 2,24,-1
 167 602 l 1,25,-1
 32 602 l 1,26,-1
 60 744 l 1,27,-1
 195 744 l 1,28,-1
 240 977 l 1,29,-1
 105 977 l 1,30,-1
 133 1120 l 1,31,-1
 268 1120 l 1,32,-1
 330 1438 l 1,33,-1
 515 1438 l 1,0,-1
EndSplineSet
EndChar
StartChar: longs
Encoding: 383 383 383
Width: 721
Flags: W
TeX: 0 0 0 0
Fore
324 0 m 1,0,-1
 139 0 l 1,1,-1
 330 977 l 1,2,-1
 154 977 l 1,3,-1
 180 1120 l 1,4,-1
 356 1120 l 1,5,-1
 371 1198 l 2,6,7
 409 1396 409 1396 504 1476 c 0,8,9
 600 1556 600 1556 805 1556 c 2,10,-1
 979 1556 l 1,11,-1
 950 1403 l 1,12,-1
 774 1403 l 2,13,14
 674 1403 674 1403 628 1364 c 128,-1,15
 583 1324 583 1324 561 1219 c 1,16,-1
 324 0 l 1,0,-1
EndSplineSet
EndChar
StartChar: uni0180
Encoding: 384 384 384
Width: 1300
Flags: W
TeX: 117 0 0 0
AnchorPoint: "above" 425.049 1520 basechar 0
Fore
957 559 m 0,0,1
 997 762 997 762 936 878 c 0,2,3
 875 993 875 993 729 993 c 0,4,5
 583 993 583 993 477 878 c 0,6,7
 371 762 371 762 331 559 c 0,8,9
 292 356 292 356 353 240 c 0,10,11
 414 125 414 125 560 125 c 0,12,13
 706 125 706 125 812 240 c 0,14,15
 918 356 918 356 957 559 c 0,0,1
407 950 m 1,16,17
 485 1050 485 1050 583 1098 c 0,18,19
 681 1147 681 1147 804 1147 c 0,20,21
 1008 1147 1008 1147 1104 985 c 0,22,23
 1200 823 1200 823 1148 559 c 0,24,25
 1097 295 1097 295 938 133 c 0,26,27
 779 -29 779 -29 575 -29 c 0,28,29
 452 -29 452 -29 373 20 c 0,30,31
 294 68 294 68 255 168 c 1,32,-1
 223 0 l 1,33,-1
 38 0 l 1,34,-1
 287 1284 l 1,35,-1
 133 1284 l 1,36,-1
 157 1409 l 1,37,-1
 311 1409 l 1,38,-1
 340 1556 l 1,39,-1
 525 1556 l 1,40,-1
 496 1409 l 1,41,-1
 821 1409 l 1,42,-1
 797 1284 l 1,43,-1
 472 1284 l 1,44,-1
 407 950 l 1,16,17
EndSplineSet
EndChar
StartChar: uni0181
Encoding: 385 385 385
Width: 1505
Flags: W
TeX: 117 0 0 0
Fore
642 713 m 1,0,-1
 535 166 l 1,1,-1
 859 166 l 2,2,3
 1022 166 1022 166 1114 234 c 128,-1,5
 1206 301 1206 301 1233 440 c 0,6,7
 1260 580 1260 580 1194 646 c 128,-1,9
 1129 713 1129 713 966 713 c 2,10,-1
 642 713 l 1,0,-1
1107 1493 m 2,11,12
 1338 1493 1338 1493 1445 1397 c 128,-1,14
 1551 1301 1551 1301 1516 1124 c 0,15,16
 1490 987 1490 987 1410 906 c 128,-1,18
 1330 825 1330 825 1202 805 c 1,19,20
 1345 773 1345 773 1408 672 c 128,-1,22
 1471 570 1471 570 1441 418 c 0,23,24
 1402 218 1402 218 1245 109 c 128,-1,26
 1088 0 1088 0 837 0 c 2,27,-1
 301 0 l 1,28,-1
 559 1327 l 1,29,30
 417 1327 417 1327 348 1280 c 0,31,32
 292 1242 292 1242 270 1128 c 2,33,-1
 261 1079 l 1,34,-1
 105 1079 l 1,35,-1
 118 1149 l 2,36,37
 154 1330 154 1330 265 1412 c 128,-1,39
 377 1493 377 1493 591 1493 c 2,40,-1
 1107 1493 l 2,11,12
761 1327 m 1,41,-1
 673 877 l 1,42,-1
 972 877 l 2,43,44
 1120 877 1120 877 1204 932 c 128,-1,46
 1287 988 1287 988 1309 1102 c 0,47,48
 1331 1215 1331 1215 1270 1271 c 128,-1,50
 1208 1327 1208 1327 1060 1327 c 2,51,-1
 761 1327 l 1,41,-1
EndSplineSet
EndChar
StartChar: uni0183
Encoding: 387 387 387
Width: 1300
Flags: W
TeX: 117 0 0 0
Fore
407 950 m 1,0,1
 485 1050 485 1050 583 1098 c 0,2,3
 681 1147 681 1147 804 1147 c 0,4,5
 1008 1147 1008 1147 1104 985 c 0,6,7
 1200 823 1200 823 1148 559 c 0,8,9
 1097 295 1097 295 938 133 c 0,10,11
 779 -29 779 -29 575 -29 c 0,12,13
 452 -29 452 -29 373 20 c 0,14,15
 294 68 294 68 255 168 c 1,16,-1
 223 0 l 1,17,-1
 38 0 l 1,18,-1
 340 1556 l 1,19,-1
 1186 1556 l 1,20,-1
 1154 1390 l 1,21,-1
 493 1391 l 1,22,-1
 407 950 l 1,0,1
957 559 m 0,23,24
 997 762 997 762 936 878 c 0,25,26
 875 993 875 993 729 993 c 0,27,28
 583 993 583 993 477 878 c 0,29,30
 371 762 371 762 331 559 c 0,31,32
 292 356 292 356 353 240 c 0,33,34
 414 125 414 125 560 125 c 0,35,36
 706 125 706 125 812 240 c 0,37,38
 918 356 918 356 957 559 c 0,23,24
EndSplineSet
EndChar
StartChar: uni0184
Encoding: 388 388 388
Width: 1405
Flags: W
TeX: 117 0 0 0
Fore
1018 439 m 0,0,1
 1045 578 1045 578 980 646 c 0,2,3
 915 713 915 713 752 713 c 2,4,-1
 428 713 l 1,5,-1
 321 166 l 1,6,-1
 645 166 l 2,7,8
 808 166 808 166 899 234 c 0,9,10
 992 301 992 301 1018 439 c 0,0,1
579 1493 m 1,11,-1
 460 879 l 1,12,-1
 794 879 l 2,13,14
 1045 879 1045 879 1160 770 c 128,-1,15
 1274 661 1274 661 1231 439 c 0,16,17
 1188 218 1188 218 1031 109 c 128,-1,18
 874 0 874 0 623 0 c 2,19,-1
 87 0 l 1,20,-1
 299 1092 l 1,21,-1
 98 1092 l 1,22,-1
 488 1493 l 1,23,-1
 579 1493 l 1,11,-1
EndSplineSet
EndChar
StartChar: uni0185
Encoding: 389 389 389
Width: 1300
Flags: W
TeX: 117 0 0 0
Fore
442 950 m 1,0,1
 519 1050 519 1050 617 1098 c 128,-1,2
 715 1147 715 1147 838 1147 c 0,3,4
 1042 1147 1042 1147 1138 985 c 128,-1,5
 1234 823 1234 823 1183 559 c 128,-1,6
 1131 295 1131 295 972 133 c 128,-1,7
 813 -29 813 -29 609 -29 c 0,8,9
 486 -29 486 -29 407 20 c 128,-1,10
 328 68 328 68 290 168 c 1,11,-1
 257 0 l 1,12,-1
 72 0 l 1,13,-1
 284 1092 l 1,14,-1
 98 1092 l 1,15,-1
 479 1557 l 1,16,-1
 560 1557 l 1,17,-1
 442 950 l 1,0,1
992 559 m 128,-1,19
 1031 762 1031 762 970 878 c 128,-1,20
 909 993 909 993 763 993 c 128,-1,21
 617 993 617 993 511 878 c 128,-1,22
 405 762 405 762 366 559 c 128,-1,23
 326 356 326 356 387 240 c 128,-1,24
 448 125 448 125 594 125 c 128,-1,25
 740 125 740 125 846 240 c 128,-1,18
 952 356 952 356 992 559 c 128,-1,19
EndSplineSet
EndChar
StartChar: uni0186
Encoding: 390 390 390
Width: 1440
Flags: W
TeX: 117 0 0 0
AnchorPoint: "above" 899.458 1520 basechar 0
Fore
128 113 m 1,0,-1
 169 326 l 1,1,2
 265 229 265 229 372.5 182 c 128,-1,3
 480 135 480 135 605 135 c 0,4,5
 776 135 776 135 905.5 217 c 128,-1,6
 1035 299 1035 299 1129 467 c 0,7,8
 1189 575 1189 575 1220.5 695.5 c 128,-1,9
 1252 816 1252 816 1252 938 c 0,10,11
 1252 1142 1252 1142 1146.5 1249 c 128,-1,12
 1041 1356 1041 1356 840 1356 c 0,13,14
 701 1356 701 1356 573 1311.5 c 128,-1,15
 445 1267 445 1267 324 1178 c 1,16,-1
 371 1417 l 1,17,18
 490 1468 490 1468 611.5 1494 c 128,-1,19
 733 1520 733 1520 855 1520 c 0,20,21
 1142 1520 1142 1520 1303.5 1364 c 128,-1,22
 1465 1208 1465 1208 1465 930 c 0,23,24
 1465 752 1465 752 1403.5 580 c 128,-1,25
 1342 408 1342 408 1227 266 c 0,26,27
 1105 115 1105 115 948.5 43 c 128,-1,28
 792 -29 792 -29 584 -29 c 0,29,30
 456 -29 456 -29 341.5 6.5 c 128,-1,31
 227 42 227 42 128 113 c 1,0,-1
EndSplineSet
EndChar
StartChar: uni0187
Encoding: 391 391 391
Width: 1430
Flags: W
TeX: 117 0 0 0
AnchorPoint: "above" 958.393 1520 basechar 0
Fore
1227 1477 m 1,0,1
 1281 1672 1281 1672 1382 1770 c 0,2,3
 1509 1892 1509 1892 1736 1892 c 2,4,-1
 1813 1892 l 1,5,-1
 1780 1722 l 1,6,-1
 1717 1722 l 2,7,8
 1583 1722 1583 1722 1513 1647 c 0,9,10
 1444 1572 1444 1572 1406 1378 c 2,11,-1
 1364 1165 l 1,12,13
 1281 1260 1281 1260 1174 1307 c 0,14,15
 1068 1354 1068 1354 938 1354 c 0,16,17
 708 1354 708 1354 550 1227 c 2,18,19
 549 1226 l 1,20,21
 548 1225 l 1,22,23
 547 1225 l 1,24,25
 546 1224 l 1,26,27
 545 1223 l 1,28,29
 544 1222 l 1,30,31
 543 1221 l 1,32,33
 542 1220 l 1,34,35
 540 1220 l 1,36,37
 539 1219 l 1,38,39
 538 1218 l 1,40,41
 537 1217 l 1,42,43
 536 1216 l 1,44,45
 535 1215 l 1,46,47
 534 1214 l 1,48,49
 533 1213 l 1,50,51
 532 1213 l 1,52,53
 531 1212 l 1,54,55
 530 1211 l 1,56,57
 529 1210 l 1,58,59
 528 1209 l 1,60,61
 527 1208 l 1,62,63
 526 1207 l 1,64,65
 525 1206 l 1,66,67
 524 1205 l 1,68,69
 523 1204 l 1,70,71
 522 1204 l 1,72,73
 521 1203 l 1,74,75
 520 1202 l 1,76,77
 519 1201 l 1,78,79
 518 1200 l 1,80,81
 517 1199 l 1,82,83
 516 1198 l 2,84,85
 349 1041 349 1041 292 745 c 0,86,87
 234 450 234 450 340 294 c 0,88,89
 446 137 446 137 702 137 c 0,90,91
 832 137 832 137 956 184 c 0,92,93
 1081 231 1081 231 1201 326 c 1,94,-1
 1160 115 l 1,95,96
 1040 43 1040 43 915 7 c 0,97,98
 789 -29 789 -29 657 -29 c 0,99,100
 318 -29 318 -29 164 178 c 0,101,102
 9 386 9 386 79 745 c 0,103,104
 149 1105 149 1105 384 1312 c 0,105,106
 619 1520 619 1520 958 1520 c 0,107,108
 1092 1520 1092 1520 1204 1484 c 0,109,110
 1216 1481 1216 1481 1227 1477 c 1,0,1
EndSplineSet
EndChar
StartChar: uni0188
Encoding: 392 392 392
Width: 1126
Flags: W
TeX: 117 0 0 0
Fore
896 1135 m 1,0,1
 939 1304 939 1304 1025 1387 c 0,2,3
 1125 1483 1125 1483 1306 1483 c 2,4,-1
 1376 1483 l 1,5,-1
 1346 1327 l 1,6,-1
 1297 1327 l 2,7,8
 1192 1327 1192 1327 1144 1278 c 0,9,10
 1097 1230 1097 1230 1067 1077 c 2,11,-1
 1034 905 l 1,12,13
 964 948 964 948 890 970 c 0,14,15
 815 991 815 991 735 991 c 0,16,17
 556 991 556 991 435 878 c 0,18,19
 314 764 314 764 274 559 c 0,20,21
 234 354 234 354 311 240 c 0,22,23
 388 127 388 127 567 127 c 0,24,25
 647 127 647 127 730 148 c 0,26,27
 813 170 813 170 899 213 c 1,28,-1
 866 43 l 1,29,30
 782 7 782 7 696 -11 c 0,31,32
 610 -29 610 -29 517 -29 c 0,33,34
 264 -29 264 -29 146 130 c 0,35,36
 28 289 28 289 80 559 c 0,37,38
 134 833 134 833 315 990 c 0,39,40
 496 1147 496 1147 758 1147 c 0,41,42
 829 1147 829 1147 896 1135 c 1,0,1
EndSplineSet
EndChar
StartChar: uni018A
Encoding: 394 394 394
Width: 1677
Flags: W
TeX: 117 0 0 0
Fore
761 1327 m 1,0,-1
 535 166 l 1,1,-1
 779 166 l 2,2,3
 1088 166 1088 166 1259 306 c 128,-1,5
 1430 446 1430 446 1488 748 c 0,6,7
 1547 1048 1547 1048 1430 1188 c 128,-1,9
 1314 1327 1314 1327 1005 1327 c 2,10,-1
 761 1327 l 1,0,-1
1006 1493 m 2,11,12
 1440 1493 1440 1493 1608 1312 c 128,-1,14
 1776 1132 1776 1132 1701 748 c 0,15,16
 1626 362 1626 362 1387 181 c 128,-1,18
 1148 0 1148 0 716 0 c 2,19,-1
 301 0 l 1,20,-1
 559 1327 l 1,21,22
 417 1327 417 1327 348 1280 c 0,23,24
 292 1242 292 1242 270 1128 c 2,25,-1
 261 1079 l 1,26,-1
 105 1079 l 1,27,-1
 118 1149 l 2,28,29
 154 1330 154 1330 265 1412 c 128,-1,31
 377 1493 377 1493 591 1493 c 2,32,-1
 1006 1493 l 2,11,12
EndSplineSet
EndChar
StartChar: uni018B
Encoding: 395 395 395
Width: 1405
Flags: W
TeX: 117 0 0 0
Fore
354 439 m 24,0,1
 327 301 327 301 393 234 c 0,2,3
 458 166 458 166 621 166 c 2,4,-1
 945 166 l 1,5,-1
 1051 713 l 1,6,-1
 727 713 l 2,7,8
 564 713 564 713 473 646 c 0,9,10
 381 578 381 578 354 439 c 24,0,1
559 1493 m 25,11,-1
 1405 1493 l 1,12,-1
 1115 0 l 1,13,-1
 579 0 l 2,14,15
 328 0 328 0 213 109 c 0,16,17
 98 218 98 218 141 439 c 0,18,19
 184 661 184 661 342 770 c 0,20,21
 499 879 499 879 750 879 c 2,22,-1
 1084 879 l 1,23,-1
 1171 1327 l 1,24,-1
 527 1327 l 1,25,-1
 559 1493 l 25,11,-1
EndSplineSet
EndChar
StartChar: uni018C
Encoding: 396 396 396
Width: 1300
Flags: W
TeX: 117 0 0 0
Fore
966 950 m 1,0,-1
 1052 1391 l 1,1,-1
 391 1390 l 1,2,-1
 423 1556 l 1,3,-1
 1268 1556 l 1,4,-1
 966 0 l 1,5,-1
 782 0 l 1,6,-1
 814 168 l 1,7,8
 737 68 737 68 639 20 c 0,9,10
 541 -29 541 -29 418 -29 c 0,11,12
 214 -29 214 -29 118 133 c 0,13,14
 22 295 22 295 73 559 c 0,15,16
 125 823 125 823 284 985 c 0,17,18
 443 1147 443 1147 647 1147 c 0,19,20
 770 1147 770 1147 849 1098 c 0,21,22
 928 1050 928 1050 966 950 c 1,0,-1
264 559 m 0,23,24
 225 356 225 356 286 240 c 0,25,26
 347 125 347 125 493 125 c 0,27,28
 639 125 639 125 745 240 c 0,29,30
 851 356 851 356 890 559 c 0,31,32
 930 762 930 762 869 878 c 0,33,34
 808 993 808 993 662 993 c 0,35,36
 516 993 516 993 410 878 c 0,37,38
 304 762 304 762 264 559 c 0,23,24
EndSplineSet
EndChar
StartChar: uni018D
Encoding: 397 397 397
Width: 1253
Flags: W
TeX: 117 0 0 0
Fore
143 -203 m 17,0,1
 231 -273 231 -273 470 -273 c 0,2,3
 723 -273 723 -273 746 -156 c 0,4,5
 764 -64 764 -64 509 -16 c 0,6,7
 309 21 309 21 213 133 c 0,8,9
 97 268 97 268 151 545 c 0,10,11
 203 810 203 810 370 966 c 0,12,13
 538 1123 538 1123 778 1123 c 0,14,15
 1017 1123 1017 1123 1124 966 c 0,16,17
 1231 810 1231 810 1177 535 c 0,18,19
 1138 331 1138 331 969 166 c 0,20,21
 903 102 903 102 821 66 c 1,22,23
 962 -13 962 -13 934 -154 c 0,24,25
 881 -426 881 -426 440 -426 c 0,26,27
 219 -426 219 -426 113 -356 c 1,28,-1
 143 -203 l 17,0,1
693 116 m 1,29,30
 766 145 766 145 836 218 c 0,31,32
 944 331 944 331 983 535 c 0,33,34
 1023 738 1023 738 960 852 c 0,35,36
 896 967 896 967 747 967 c 0,37,38
 600 967 600 967 492 851 c 0,39,40
 383 735 383 735 346 545 c 0,41,42
 308 346 308 346 380 250 c 0,43,44
 457 147 457 147 581 136 c 0,45,46
 644 130 644 130 693 116 c 1,29,30
EndSplineSet
EndChar
StartChar: uni018E
Encoding: 398 398 398
Width: 1294
Flags: W
TeX: 117 0 0 0
AnchorPoint: "above" 895.458 1520 basechar 0
Fore
1383 1493 m 1,0,-1
 1093 0 l 1,11,-1
 131 0 l 1,10,-1
 164 170 l 1,9,-1
 924 170 l 1,8,-1
 1029 711 l 1,7,-1
 318 711 l 1,6,-1
 351 881 l 1,5,-1
 1062 881 l 1,4,-1
 1148 1323 l 1,3,-1
 406 1323 l 1,2,-1
 439 1493 l 1,1,-1
 1383 1493 l 1,0,-1
EndSplineSet
EndChar
StartChar: uni018F
Encoding: 399 399 399
Width: 1612
Flags: W
TeX: 117 0 0 0
AnchorPoint: "above" 1756.17 1912 basechar 0
Fore
1303 780 m 9,30,31
 105 780 l 17,6,7
 27 380 27 380 240 134 c 0,8,9
 380 -29 380 -29 672 -29 c 0,10,11
 861 -29 861 -29 1016 47 c 128,-1,12
 1170 123 1170 123 1298 279 c 0,13,14
 1410 414 1410 414 1470 580 c 24,11,12
 1551 803 1551 803 1535 1000 c 128,-1,13
 1520 1209 1520 1209 1404 1348 c 0,14,15
 1331 1435 1331 1435 1220 1478 c 128,-1,16
 1110 1520 1110 1520 955 1520 c 0,17,18
 815 1520 815 1520 673 1484 c 128,-1,19
 530 1449 530 1449 386 1378 c 1,20,-1
 343 1163 l 1,21,22
 470 1257 470 1257 610 1306 c 128,-1,23
 750 1356 750 1356 887 1356 c 0,24,25
 1046 1356 1046 1356 1144 1296 c 128,-1,26
 1241 1235 1241 1235 1287 1108 c 0,27,28
 1338 952 1338 952 1303 780 c 9,30,31
1266 614 m 17,35,36
 1243 553 1243 553 1190 459 c 0,37,38
 1099 298 1099 298 970 216 c 128,-1,39
 842 135 842 135 678 135 c 0,40,41
 496 135 496 135 396 248 c 0,42,43
 286 375 286 375 298 614 c 9,44,-1
 1266 614 l 17,35,36
EndSplineSet
EndChar
StartChar: uni0190
Encoding: 400 400 400
Width: 1258
Flags: W
TeX: 117 0 0 0
AnchorPoint: "above" 1003.46 1520 basechar 0
Fore
628 805 m 1,0,1
 504 838 504 838 450 924 c 128,-1,2
 395 1009 395 1009 419 1133 c 0,3,4
 454 1311 454 1311 608 1416 c 128,-1,5
 762 1520 762 1520 992 1520 c 0,6,7
 1081 1520 1081 1520 1179 1504 c 128,-1,8
 1276 1488 1276 1488 1385 1456 c 1,9,-1
 1350 1276 l 1,10,11
 1243 1314 1243 1314 1152 1332 c 128,-1,12
 1060 1350 1060 1350 977 1350 c 0,13,14
 825 1350 825 1350 732 1288 c 128,-1,15
 639 1227 639 1227 616 1112 c 0,16,17
 594 1000 594 1000 662 940 c 128,-1,18
 729 881 729 881 878 881 c 2,19,-1
 1060 881 l 1,20,-1
 1028 715 l 1,21,-1
 854 715 l 2,22,23
 689 715 689 715 582 640 c 128,-1,24
 475 566 475 566 449 434 c 0,25,26
 422 291 422 291 506 216 c 128,-1,27
 591 141 591 141 781 141 c 0,28,29
 890 141 890 141 995 166 c 128,-1,30
 1100 191 1100 191 1194 240 c 1,31,-1
 1156 45 l 1,32,33
 1043 8 1043 8 939 -10 c 128,-1,34
 836 -29 836 -29 742 -29 c 0,35,36
 462 -29 462 -29 334 92 c 128,-1,37
 205 213 205 213 248 434 c 0,38,39
 276 578 276 578 377 676 c 128,-1,40
 477 774 477 774 628 805 c 1,0,1
EndSplineSet
EndChar
StartChar: uni0191
Encoding: 401 401 401
Width: 1178
Flags: W
TeX: 117 0 0 0
AnchorPoint: "above" 860.201 1520 basechar 0
Fore
386 1493 m 1,0,-1
 1244 1493 l 1,1,-1
 1211 1323 l 1,2,-1
 555 1323 l 1,3,-1
 469 883 l 1,4,-1
 1061 883 l 1,5,-1
 1028 713 l 1,6,-1
 436 713 l 1,7,-1
 318 104 l 2,8,9
 265 -166 265 -166 139 -288 c 0,10,11
 13 -410 13 -410 -214 -410 c 2,12,-1
 -291 -410 l 1,13,-1
 -258 -240 l 1,14,-1
 -195 -240 l 2,15,16
 -61 -240 -61 -240 9 -165 c 0,17,18
 78 -90 78 -90 116 104 c 2,19,-1
 386 1493 l 1,0,-1
EndSplineSet
EndChar
StartChar: florin
Encoding: 402 402 402
Width: 721
Flags: W
AnchorPoint: "below" 117.592 -430 basechar 0
AnchorPoint: "above" 500.633 1520 basechar 0
Fore
953 1556 m 1,0,-1
 923 1403 l 1,1,-1
 747 1403 l 2,2,3
 648 1403 648 1403 602 1363 c 0,4,5
 555 1323 555 1323 535 1219 c 2,6,-1
 516 1120 l 1,7,-1
 819 1120 l 1,8,-1
 791 977 l 1,9,-1
 488 977 l 1,10,-1
 285 -68 l 2,11,12
 249 -255 249 -255 145 -340 c 0,13,14
 41 -426 41 -426 -148 -426 c 2,15,-1
 -322 -426 l 1,16,-1
 -292 -273 l 1,17,-1
 -116 -273 l 2,18,19
 -17 -273 -17 -273 29 -233 c 0,20,21
 76 -193 76 -193 96 -89 c 2,22,-1
 303 977 l 1,23,-1
 127 977 l 1,24,-1
 155 1120 l 1,25,-1
 331 1120 l 1,26,-1
 346 1198 l 2,27,28
 382 1385 382 1385 486 1470 c 0,29,30
 590 1556 590 1556 779 1556 c 2,31,-1
 953 1556 l 1,0,-1
EndSplineSet
EndChar
StartChar: uni0193
Encoding: 403 403 403
Width: 1587
Flags: W
TeX: 117 0 0 0
AnchorPoint: "above" 974.393 1520 basechar 0
Fore
1079 213 m 1,0,-1
 1157 614 l 1,1,-1
 827 614 l 1,2,-1
 860 780 l 1,3,-1
 1390 780 l 1,4,-1
 1265 139 l 1,5,6
 1132 56 1132 56 983 14 c 0,7,8
 833 -29 833 -29 673 -29 c 0,9,10
 323 -29 323 -29 166 176 c 0,11,12
 8 380 8 380 79 745 c 0,13,14
 150 1111 150 1111 387 1316 c 0,15,16
 624 1520 624 1520 974 1520 c 0,17,18
 1120 1520 1120 1520 1245 1484 c 0,19,20
 1266 1478 1266 1478 1286 1471 c 1,21,22
 1340 1670 1340 1670 1443 1770 c 0,23,24
 1570 1892 1570 1892 1797 1892 c 2,25,-1
 1874 1892 l 1,26,-1
 1841 1722 l 1,27,-1
 1778 1722 l 2,28,29
 1644 1722 1644 1722 1574 1647 c 0,30,31
 1504 1572 1504 1572 1467 1378 c 2,32,-1
 1425 1163 l 1,33,34
 1331 1258 1331 1258 1215 1306 c 0,35,36
 1098 1354 1098 1354 959 1354 c 0,37,38
 685 1354 685 1354 518 1201 c 0,39,40
 351 1048 351 1048 292 745 c 0,41,42
 233 443 233 443 341 290 c 0,43,44
 449 137 449 137 723 137 c 0,45,46
 830 137 830 137 917 156 c 0,47,48
 1005 174 1005 174 1079 213 c 1,0,-1
EndSplineSet
EndChar
StartChar: uni0194
Encoding: 404 404 404
Width: 1406
Flags: W
TeX: 0 0 0 0
AnchorPoint: "above" 895.145 1520 basechar 0
Fore
549 -259 m 24,0,1
 703 -259 703 -259 703 -93 c 0,0,0
 703 -23 703 -23 639 202 c 1,8,9
 503 -11 l 2,10,11
 442 -109 442 -109 442 -182 c 0,0,0
 442 -214 442 -214 458 -227 c 0,14,15
 495 -259 495 -259 549 -259 c 24,0,1
795 420 m 1,19,20
 907 70 907 70 907 -85 c 0,0,0
 907 -115 907 -115 903 -139 c 0,23,24
 876 -278 876 -278 788 -343 c 0,25,26
 671 -430 671 -430 516 -430 c 24,27,28
 362 -430 362 -430 278 -343 c 0,29,30
 234 -298 234 -298 234 -217 c 0,0,0
 234 -181 234 -181 245 -127 c 128,-1,32
 255 -73 255 -73 341 73 c 128,-1,34
 426 220 426 220 568 420 c 1,35,-1
 195 1493 l 1,36,-1
 417 1493 l 1,37,-1
 722 631 l 1,16,-1
 1363 1493 l 1,17,-1
 1585 1493 l 1,18,-1
 795 420 l 1,19,20
EndSplineSet
EndChar
StartChar: uni0195
Encoding: 405 405 405
Width: 1972
Flags: W
TeX: 117 0 0 0
Fore
1104 676 m 2,0,1
 1149 908 1149 908 1074 1028 c 0,2,3
 998 1147 998 1147 805 1147 c 0,4,5
 688 1147 688 1147 589 1097 c 0,6,7
 489 1047 489 1047 404 946 c 1,8,-1
 522 1556 l 1,9,-1
 337 1556 l 1,10,-1
 35 0 l 1,11,-1
 220 0 l 1,12,-1
 343 633 l 2,13,14
 375 797 375 797 479 892 c 0,15,16
 584 987 584 987 733 987 c 0,17,18
 857 987 857 987 903 908 c 0,19,20
 950 829 950 829 920 673 c 2,21,-1
 868 406 l 2,22,23
 826 192 826 192 888 96 c 0,24,25
 952 0 952 0 1133 0 c 2,26,-1
 1203 0 l 2,27,28
 1428 0 1428 0 1598 146 c 0,29,30
 1769 292 1769 292 1814 527 c 0,31,32
 1841 663 1841 663 1808 773 c 0,33,34
 1774 886 1774 886 1679 986 c 1,35,-1
 1357 986 l 1,36,37
 1401 974 1401 974 1469 930 c 0,38,39
 1536 886 1536 886 1575 816 c 0,40,41
 1588 794 1588 794 1606 756 c 0,42,43
 1652 656 1652 656 1624 510 c 0,44,45
 1593 352 1593 352 1486 254 c 0,46,47
 1379 157 1379 157 1235 157 c 2,48,-1
 1184 156 l 2,49,50
 1081 154 1081 154 1050 204 c 0,51,52
 1022 253 1022 253 1052 406 c 2,53,-1
 1104 676 l 2,0,1
EndSplineSet
EndChar
StartChar: uni0196
Encoding: 406 406 406
Width: 724
Flags: W
TeX: 117 0 0 0
AnchorPoint: "above" 453.354 1520 basechar 0
Fore
156 514 m 2,0,-1
 346 1493 l 1,1,-1
 548 1493 l 1,2,-1
 358 514 l 2,3,4
 320 320 320 320 361 245 c 0,5,6
 401 170 401 170 535 170 c 2,7,-1
 598 170 l 1,8,-1
 565 0 l 1,9,-1
 488 0 l 2,10,11
 261 0 261 0 182 122 c 0,12,13
 103 244 103 244 156 514 c 2,0,-1
EndSplineSet
EndChar
StartChar: uni0197
Encoding: 407 407 407
Width: 604
Flags: W
TeX: 117 0 0 0
AnchorPoint: "above" 453.354 1520 basechar 0
Fore
346 1493 m 1,0,-1
 548 1493 l 1,1,-1
 422 844 l 1,2,-1
 613 844 l 1,3,-1
 585 700 l 1,4,-1
 394 700 l 1,5,-1
 258 0 l 1,6,-1
 56 0 l 1,7,-1
 192 700 l 1,8,-1
 1 700 l 1,9,-1
 29 844 l 1,10,-1
 220 844 l 1,11,-1
 346 1493 l 1,0,-1
EndSplineSet
EndChar
StartChar: uni0198
Encoding: 408 408 408
Width: 1413
Flags: W
TeX: 117 0 0 0
AnchorPoint: "above" 819.538 1520 basechar 0
Fore
1207 1278 m 2,14,-1
 1280 1337 1280 1337 1331 1304 c 0,7,8
 1476 1163 l 1,6,-1
 1603 1279 l 1,5,-1
 1401 1455 l 2,4,-1
 1319 1527 1319 1527 1235 1488 c 0,2,3
 1177 1461 1177 1461 1093 1394 c 2,3,4
 425 862 l 1,2,-1
 547 1493 l 1,1,-1
 345 1493 l 1,0,-1
 55 0 l 1,20,-1
 257 0 l 1,19,-1
 397 719 l 1,18,-1
 974 0 l 1,17,-1
 1240 0 l 1,16,-1
 601 797 l 1,15,-1
 1207 1278 l 2,14,-1
EndSplineSet
EndChar
StartChar: uni0199
Encoding: 409 409 409
Width: 1186
Flags: W
TeX: 117 0 0 0
AnchorPoint: "above" 452.471 1673 basechar 0
Fore
267 1198 m 2,0,1
 303 1384 303 1384 408 1470 c 0,2,3
 512 1556 512 1556 701 1556 c 2,4,-1
 875 1556 l 1,5,-1
 845 1403 l 1,6,-1
 669 1403 l 2,7,8
 570 1403 570 1403 524 1363 c 0,9,10
 478 1323 478 1323 457 1219 c 2,11,-1
 344 637 l 1,12,-1
 986 1120 l 1,13,-1
 1221 1120 l 1,14,-1
 526 596 l 1,15,-1
 1029 0 l 1,16,-1
 789 0 l 1,17,-1
 326 547 l 1,18,-1
 220 0 l 1,19,-1
 35 0 l 1,20,-1
 267 1198 l 2,0,1
EndSplineSet
EndChar
StartChar: uni019A
Encoding: 410 410 410
Width: 569
Flags: W
TeX: 117 0 0 0
AnchorPoint: "above" 422.23 1520 basechar 0
Fore
344 1556 m 1,0,-1
 528 1556 l 1,1,-1
 390 844 l 1,2,-1
 567 844 l 1,3,-1
 539 700 l 1,4,-1
 362 700 l 1,5,-1
 226 0 l 1,6,-1
 42 0 l 1,7,-1
 178 700 l 1,8,-1
 -5 700 l 1,9,-1
 23 844 l 1,10,-1
 206 844 l 1,11,-1
 344 1556 l 1,0,-1
EndSplineSet
EndChar
StartChar: uni019B
Encoding: 411 411 411
Width: 1212
Flags: W
TeX: 117 0 0 0
AnchorPoint: "above" 786.23 1520 basechar 0
Fore
-90 0 m 1,0,-1
 610 1074 l 1,1,-1
 575 1262 l 1,2,-1
 255 1161 l 1,3,-1
 242 1260 l 1,4,-1
 557 1359 l 1,5,-1
 521 1556 l 1,6,-1
 721 1556 l 1,7,-1
 746 1418 l 1,8,-1
 1081 1522 l 1,9,-1
 1095 1425 l 1,10,-1
 763 1321 l 1,11,-1
 1000 0 l 1,12,-1
 805 0 l 1,13,-1
 652 828 l 1,14,-1
 105 0 l 1,15,-1
 -90 0 l 1,0,-1
EndSplineSet
EndChar
StartChar: uni019C
Encoding: 412 412 412
Width: 1995
Flags: W
TeX: 117 0 0 0
Fore
833 213 m 1,0,1
 740 89 740 89 633 30 c 128,-1,2
 525 -29 525 -29 395 -29 c 0,3,4
 220 -29 220 -29 149 94 c 128,-1,5
 78 216 78 216 122 442 c 2,6,-1
 326 1493 l 1,7,-1
 529 1493 l 1,8,-1
 327 452 l 2,9,10
 290 266 290 266 319 213 c 128,-1,11
 361 135 361 135 478 135 c 0,12,13
 621 135 621 135 722 230 c 128,-1,14
 824 325 824 325 856 489 c 2,15,-1
 1051 1493 l 1,16,-1
 1254 1493 l 1,17,-1
 1052 452 l 2,18,19
 1020 290 1020 290 1062 212 c 128,-1,20
 1104 135 1104 135 1223 135 c 0,21,22
 1346 135 1346 135 1448 230 c 128,-1,23
 1549 326 1549 326 1581 489 c 2,24,-1
 1776 1493 l 1,25,-1
 1979 1493 l 1,26,-1
 1688 -2 l 1,27,-1
 1485 -2 l 1,28,-1
 1519 172 l 1,29,30
 1436 69 1436 69 1339 20 c 128,-1,31
 1241 -29 1241 -29 1120 -29 c 0,32,33
 998 -29 998 -29 925 33 c 128,-1,34
 851 95 851 95 833 213 c 1,0,1
EndSplineSet
EndChar
StartChar: uni019D
Encoding: 413 413 413
Width: 1532
Flags: W
TeX: 117 0 0 0
AnchorPoint: "above" 944.479 1506 basechar 0
Fore
386 1493 m 1,0,-1
 658 1493 l 1,1,-1
 1077 244 l 1,2,-1
 1320 1493 l 1,3,-1
 1516 1493 l 1,4,-1
 1226 0 l 1,5,-1
 954 0 l 1,6,-1
 535 1249 l 1,7,-1
 312 104 l 2,8,9
 259 -170 259 -170 139 -286 c 0,10,11
 10 -410 10 -410 -214 -410 c 2,12,-1
 -291 -410 l 1,13,-1
 -258 -240 l 1,14,-1
 -195 -240 l 2,15,16
 -61 -240 -61 -240 9 -165 c 128,-1,17
 78 -90 78 -90 116 104 c 2,18,-1
 386 1493 l 1,0,-1
EndSplineSet
EndChar
StartChar: uni019F
Encoding: 415 415 415
Width: 1612
Flags: W
TeX: 117 0 0 0
Fore
958 1520 m 0,0,1
 1272 1520 1272 1520 1419 1310 c 0,2,3
 1566 1099 1566 1099 1497 745 c 0,4,5
 1428 392 1428 392 1199 182 c 0,6,7
 970 -29 970 -29 656 -29 c 0,8,9
 341 -29 341 -29 194 181 c 0,10,11
 46 391 46 391 115 745 c 0,12,13
 184 1099 184 1099 413 1310 c 0,14,15
 643 1520 643 1520 958 1520 c 0,0,1
926 1356 m 0,16,17
 706 1356 706 1356 544 1192 c 0,18,19
 393 1038 393 1038 335 780 c 1,20,-1
 1290 780 l 1,21,22
 1333 1038 1333 1038 1242 1192 c 0,23,24
 1146 1356 1146 1356 926 1356 c 0,16,17
310 614 m 1,25,26
 297 423 297 423 371 299 c 0,27,28
 468 135 468 135 688 135 c 0,29,30
 908 135 908 135 1069 299 c 0,31,32
 1190 423 1190 423 1251 614 c 1,33,-1
 310 614 l 1,25,26
EndSplineSet
EndChar
StartChar: uni01A2
Encoding: 418 418 418
Width: 1922
Flags: W
TeX: 117 0 0 0
Fore
926 1356 m 0,0,1
 706 1356 706 1356 544 1192 c 128,-1,3
 383 1028 383 1028 328 745 c 0,4,5
 273 463 273 463 371 299 c 128,-1,7
 468 135 468 135 688 135 c 0,8,9
 863 135 863 135 1023 299 c 1,10,-1
 1197 1192 l 1,11,12
 1091 1356 1091 1356 926 1356 c 0,0,1
1396 0 m 1,16,-1
 1586 979 l 2,17,18
 1624 1173 1624 1173 1583 1248 c 128,-1,20
 1543 1323 1543 1323 1421 1323 c 1,21,-1
 1199 182 l 1,22,23
 970 -29 970 -29 656 -29 c 0,29,30
 341 -29 341 -29 194 181 c 128,-1,32
 46 391 46 391 115 745 c 128,-1,34
 184 1099 184 1099 413 1310 c 128,-1,36
 643 1520 643 1520 958 1520 c 0,37,38
 1070 1520 1070 1520 1161 1493 c 2,39,-1
 1456 1493 l 2,40,41
 1683 1493 1683 1493 1762 1371 c 128,-1,43
 1840 1249 1840 1249 1788 979 c 2,44,-1
 1598 0 l 1,45,-1
 1396 0 l 1,16,-1
EndSplineSet
EndChar
StartChar: uni01A3
Encoding: 419 419 419
Width: 1509
Flags: W
TeX: 117 0 0 0
Fore
750 991 m 0,0,1
 603 993 603 993 493 876 c 0,2,3
 385 760 385 760 346 559 c 128,-1,5
 307 358 307 358 370 242 c 128,-1,7
 433 127 433 127 582 127 c 128,-1,9
 731 127 731 127 792 216 c 1,10,-1
 924 896 l 1,11,12
 899 991 899 991 750 991 c 0,0,1
1032 -426 m 1,16,-1
 1254 714 l 2,17,18
 1283 867 1283 867 1255 916 c 128,-1,20
 1226 964 1226 964 1121 964 c 1,22,23
 959 128 l 1,24,25
 791 -29 791 -29 551 -29 c 0,28,29
 310 -29 310 -29 204 128 c 128,-1,31
 98 284 98 284 152 559 c 0,32,33
 205 835 205 835 372 991 c 128,-1,35
 539 1147 539 1147 780 1147 c 0,36,37
 880 1147 880 1147 956 1120 c 1,38,-1
 1173 1120 l 2,39,40
 1354 1120 1354 1120 1416 1024 c 128,-1,42
 1479 928 1479 928 1438 714 c 2,43,-1
 1216 -426 l 1,44,-1
 1032 -426 l 1,16,-1
EndSplineSet
EndChar
StartChar: uni01A4
Encoding: 420 420 420
Width: 1335
Flags: W
TeX: 117 0 0 0
AnchorPoint: "above" 1065.46 1520 basechar 0
Fore
761 1327 m 1,0,-1
 652 766 l 1,1,-1
 906 766 l 2,2,3
 1047 766 1047 766 1138 839 c 128,-1,5
 1229 912 1229 912 1256 1047 c 0,6,7
 1282 1181 1282 1181 1219 1254 c 128,-1,9
 1156 1327 1156 1327 1015 1327 c 2,10,-1
 761 1327 l 1,0,-1
1047 1493 m 2,11,12
 1298 1493 1298 1493 1405 1380 c 128,-1,14
 1511 1266 1511 1266 1469 1047 c 0,15,16
 1426 826 1426 826 1275 713 c 128,-1,18
 1125 600 1125 600 874 600 c 2,19,-1
 620 600 l 1,20,-1
 503 0 l 1,21,-1
 301 0 l 1,22,-1
 559 1327 l 1,23,24
 431 1327 431 1327 347 1271 c 0,25,26
 291 1233 291 1233 270 1128 c 2,27,-1
 261 1079 l 1,28,-1
 105 1079 l 1,29,-1
 118 1149 l 2,30,31
 154 1330 154 1330 265 1412 c 128,-1,33
 377 1493 377 1493 591 1493 c 2,34,-1
 1047 1493 l 2,11,12
EndSplineSet
EndChar
StartChar: uni01A5
Encoding: 421 421 421
Width: 1300
Flags: W
TeX: 117 0 0 0
Fore
996 559 m 0,0,1
 1035 762 1035 762 974 878 c 0,2,3
 913 993 913 993 767 993 c 0,4,5
 621 993 621 993 515 878 c 0,6,7
 409 762 409 762 370 559 c 0,8,9
 330 356 330 356 391 240 c 0,10,11
 452 125 452 125 598 125 c 0,12,13
 744 125 744 125 850 240 c 0,14,15
 956 356 956 356 996 559 c 0,0,1
498 1219 m 1,16,17
 446 950 l 1,18,19
 523 1050 523 1050 621 1098 c 0,20,21
 719 1147 719 1147 842 1147 c 0,22,23
 1046 1147 1046 1147 1142 985 c 0,24,25
 1238 823 1238 823 1187 559 c 0,26,27
 1136 295 1136 295 977 133 c 0,28,29
 818 -29 818 -29 614 -29 c 0,30,31
 491 -29 491 -29 411 20 c 0,32,33
 332 68 332 68 294 168 c 1,34,-1
 178 -426 l 1,35,-1
 -7 -426 l 1,36,-1
 309 1198 l 2,37,38
 345 1385 345 1385 449 1470 c 0,39,40
 553 1556 553 1556 742 1556 c 2,41,-1
 916 1556 l 1,42,-1
 886 1403 l 1,43,-1
 710 1403 l 2,44,45
 611 1403 611 1403 565 1363 c 0,46,47
 518 1323 518 1323 498 1219 c 1,16,17
EndSplineSet
EndChar
StartChar: uni01A6
Encoding: 422 422 422
Width: 1423
Flags: W
TeX: 117 0 0 0
Fore
776.446 1229 m 2,14,15
 1212.84 1229 1212.84 1229 1212.84 913.362 c 0,0,0
 1212.84 860.616 1212.84 860.616 1200.86 799 c 0,17,18
 1173.46 658 1173.46 658 1089.88 565 c 128,-1,19
 1006.3 472 1006.3 472 874.303 436 c 1,0,1
 993.474 392.825 993.474 392.825 1067.54 144 c 2,3,-1
 1193.24 -264 l 1,4,-1
 976.237 -264 l 1,5,-1
 859.685 119 l 1,6,7
 814.842 269 814.842 269 754.866 318 c 128,-1,8
 694.891 367 694.891 367 574.891 367 c 2,9,-1
 354.891 367 l 1,10,-1
 283.554 0 l 1,11,-1
 81.5537 0 l 1,12,-1
 371.763 1493 l 1,13,-1
 573.763 1493 l 1,0,0
 522.446 1229 l 1,0,0
 776.446 1229 l 2,14,15
490.18 1063 m 1,13,-1
 381.521 504 l 1,14,-1
 635.521 504 l 2,15,16
 776.521 504 776.521 504 867.711 577 c 128,-1,17
 958.9 650 958.9 650 984.947 784 c 0,18,19
 992.617 823.459 992.617 823.459 992.617 857.585 c 0,0,0
 992.617 939.349 992.617 939.349 948.587 990.5 c 128,-1,20
 886.18 1063 886.18 1063 744.18 1063 c 2,21,-1
 490.18 1063 l 1,13,-1
EndSplineSet
EndChar
StartChar: uni01A7
Encoding: 423 423 423
Width: 1300
Flags: W
TeX: 117 0 0 0
AnchorPoint: "above" 809.548 1520 basechar 0
Fore
295 1444 m 1,0,-1
 256 1247 l 1,1,2
 382 1302 382 1302 489 1329 c 128,-1,3
 597 1356 597 1356 692 1356 c 0,4,5
 857 1356 857 1356 934 1292 c 128,-1,6
 1011 1228 1011 1228 988 1110 c 0,7,8
 969 1011 969 1011 899 960 c 128,-1,9
 830 910 830 910 658 879 c 1,10,-1
 531 854 l 1,11,12
 297 811 297 811 168 702 c 128,-1,13
 40 594 40 594 4 412 c 0,14,15
 -38 195 -38 195 86 83 c 128,-1,16
 209 -29 209 -29 490 -29 c 0,17,18
 596 -29 596 -29 721 -5 c 128,-1,19
 845 19 845 19 982 66 c 1,20,-1
 1022 274 l 1,21,22
 886 205 886 205 761 170 c 128,-1,23
 636 135 636 135 522 135 c 0,24,25
 349 135 349 135 269 203 c 128,-1,26
 188 271 188 271 212 397 c 0,27,28
 234 507 234 507 313 569 c 128,-1,29
 393 631 393 631 553 662 c 2,30,-1
 680 686 l 2,31,32
 915 731 915 731 1035 827 c 128,-1,33
 1154 923 1154 923 1188 1094 c 0,34,35
 1226 1292 1226 1292 1109 1406 c 128,-1,36
 992 1520 992 1520 747 1520 c 0,37,38
 642 1520 642 1520 529 1501 c 128,-1,39
 416 1482 416 1482 295 1444 c 1,0,-1
EndSplineSet
EndChar
StartChar: uni01A8
Encoding: 424 424 424
Width: 1067
Flags: W
TeX: 117 0 0 0
AnchorPoint: "above" 665.296 1147 basechar 0
Fore
234 1087 m 1,0,-1
 200 913 l 1,1,2
 286 953 286 953 373 973 c 128,-1,3
 461 993 461 993 551 993 c 0,4,5
 688 993 688 993 749 951 c 128,-1,6
 809 909 809 909 793 825 c 0,7,8
 780 761 780 761 724 724 c 128,-1,9
 668 688 668 688 514 655 c 2,10,-1
 448 641 l 2,11,12
 244 599 244 599 146 522 c 128,-1,13
 49 446 49 446 22 309 c 0,14,15
 -8 153 -8 153 98 62 c 128,-1,16
 204 -29 204 -29 420 -29 c 0,17,18
 510 -29 510 -29 611 -12 c 128,-1,19
 712 6 712 6 826 41 c 1,20,-1
 863 231 l 1,21,22
 751 178 751 178 647 152 c 128,-1,23
 543 125 543 125 446 125 c 0,24,25
 316 125 316 125 254 170 c 128,-1,26
 193 214 193 214 209 295 c 0,27,28
 223 370 223 370 282 410 c 128,-1,29
 340 450 340 450 518 487 c 2,30,-1
 585 502 l 1,31,32
 763 538 763 538 853 612 c 128,-1,33
 944 687 944 687 969 817 c 0,34,35
 1000 975 1000 975 905 1061 c 128,-1,36
 809 1147 809 1147 603 1147 c 0,37,38
 501 1147 501 1147 408 1132 c 128,-1,39
 315 1117 315 1117 234 1087 c 1,0,-1
EndSplineSet
EndChar
StartChar: uni01AA
Encoding: 426 426 426
Width: 688
Flags: W
TeX: 117 0 0 0
AnchorPoint: "above" 471.408 1560 basechar 0
AnchorPoint: "below" 92.3672 -390 basechar 0
Fore
320 1284 m 1,0,-1
 321 1329 321 1329 308 1352 c 1,7,8
 284 1400 284 1400 174 1400 c 0,5,6
 50 1400 50 1400 35 1335 c 0,3,4
 22 1284 22 1284 141 1284 c 2,1,2
 320 1284 l 1,0,-1
487 1130 m 1,9,-1
 248 -89 l 1,33,-1
 228 -192 228 -192 259 -233 c 0,31,32
 288 -273 288 -273 388 -273 c 2,29,30
 564 -273 l 1,28,-1
 534 -426 l 1,27,-1
 360 -426 l 2,26,-1
 166 -426 166 -426 101 -340 c 0,24,25
 32 -248 32 -248 67 -68 c 2,22,23
 300 1130 l 1,21,-1
 110 1130 l 2,20,-1
 -160 1130 -160 1130 -119 1340 c 0,18,19
 -77 1556 -77 1556 226 1556 c 0,16,17
 406 1556 406 1556 470 1460 c 0,14,15
 511 1396 511 1396 507 1285 c 1,12,13
 698 1285 l 1,11,-1
 668 1130 l 1,10,-1
 487 1130 l 1,9,-1
EndSplineSet
EndChar
StartChar: uni01AB
Encoding: 427 427 427
Width: 803
Flags: W
TeX: 117 0 0 0
AnchorPoint: "above" 479.102 1520 basechar 0
Fore
556 1438 m 1,0,-1
 494 1120 l 1,1,-1
 873 1120 l 1,2,-1
 846 977 l 1,3,-1
 467 977 l 1,4,-1
 348 369 l 2,5,6
 322 232 322 232 352 193 c 0,7,8
 382 154 382 154 497 154 c 2,9,-1
 686 154 l 1,10,-1
 651 -20 l 2,11,12
 610 -234 610 -234 509 -330 c 0,13,14
 409 -426 409 -426 228 -426 c 2,15,-1
 158 -426 l 1,16,-1
 189 -270 l 1,17,-1
 238 -270 l 2,18,19
 343 -270 343 -270 390 -222 c 0,20,21
 438 -173 438 -173 467 -20 c 2,22,-1
 471 0 l 1,23,-1
 467 0 l 2,24,25
 254 0 254 0 188 80 c 0,26,27
 123 159 123 159 163 369 c 2,28,-1
 282 977 l 1,29,-1
 147 977 l 1,30,-1
 174 1120 l 1,31,-1
 309 1120 l 1,32,-1
 371 1438 l 1,33,-1
 556 1438 l 1,0,-1
EndSplineSet
EndChar
StartChar: uni01AC
Encoding: 428 428 428
Width: 1251
Flags: W
TeX: 117 0 0 0
AnchorPoint: "above" 774.632 1506 basechar 0
Fore
542 1323 m 2,0,-1
 636 1323 l 1,1,-1
 379 0 l 1,2,-1
 582 0 l 1,3,-1
 839 1323 l 1,4,-1
 1369 1323 l 1,5,-1
 1402 1493 l 1,6,-1
 575 1493 l 2,7,8
 361 1493 361 1493 249 1412 c 0,9,10
 137 1330 137 1330 102 1149 c 2,11,-1
 89 1079 l 1,12,-1
 245 1079 l 1,13,-1
 254 1128 l 2,14,15
 275 1233 275 1233 330 1271 c 0,16,17
 409 1323 409 1323 542 1323 c 2,0,-1
EndSplineSet
EndChar
StartChar: uni01AD
Encoding: 429 429 429
Width: 803
Flags: W
TeX: 117 0 0 0
AnchorPoint: "above" 455.971 1673 basechar 0
Fore
272 1198 m 2,0,1
 308 1385 308 1385 412 1470 c 0,2,3
 515 1556 515 1556 704 1556 c 2,4,-1
 878 1556 l 1,5,-1
 848 1403 l 1,6,-1
 672 1403 l 2,7,8
 573 1403 573 1403 527 1363 c 0,9,10
 481 1322 481 1322 461 1219 c 2,11,-1
 441 1120 l 1,12,-1
 820 1120 l 1,13,-1
 793 977 l 1,14,-1
 414 977 l 1,15,-1
 295 369 l 2,16,17
 269 232 269 232 299 193 c 0,18,19
 329 154 329 154 444 154 c 2,20,-1
 633 154 l 1,21,-1
 603 0 l 1,22,-1
 414 0 l 2,23,24
 201 0 201 0 135 80 c 0,25,26
 70 159 70 159 110 369 c 2,27,-1
 229 977 l 1,28,-1
 94 977 l 1,29,-1
 121 1120 l 1,30,-1
 256 1120 l 1,31,-1
 272 1198 l 2,0,1
EndSplineSet
EndChar
StartChar: uni01AE
Encoding: 430 430 430
Width: 1251
Flags: W
TeX: 117 0 0 0
AnchorPoint: "above" 814.479 1506 basechar 0
Fore
676 1323 m 1,0,-1
 146 1323 l 1,1,-1
 179 1493 l 1,2,-1
 1442 1493 l 1,3,-1
 1409 1323 l 1,4,-1
 879 1323 l 1,5,-1
 642 104 l 2,6,7
 604 -91 604 -91 644 -165 c 0,8,9
 684 -240 684 -240 818 -240 c 2,10,-1
 881 -240 l 1,11,-1
 848 -410 l 1,12,-1
 771 -410 l 2,13,14
 544 -410 544 -410 465 -288 c 0,15,16
 386 -166 386 -166 439 104 c 2,17,-1
 676 1323 l 1,0,-1
EndSplineSet
EndChar
StartChar: uni01B1
Encoding: 433 433 433
Width: 1565
Flags: W
TeX: 117 0 0 0
Fore
1599 1304 m 1,0,-1
 1634 1482 l 1,1,-1
 1034 1482 l 1,2,-1
 999 1304 l 1,3,4
 1157 1207 1157 1207 1224 1041 c 0,5,6
 1291 875 1291 875 1252 673 c 0,7,8
 1205 433 1205 433 1045 288 c 0,9,10
 885 143 885 143 669 143 c 0,11,12
 453 143 453 143 348 288 c 128,-1,13
 244 434 244 434 291 673 c 0,14,15
 330 875 330 875 462 1041 c 0,16,17
 593 1207 593 1207 790 1304 c 1,18,-1
 825 1482 l 1,19,-1
 225 1482 l 1,20,-1
 190 1304 l 1,21,-1
 509 1304 l 1,22,23
 324 1165 324 1165 223 1016 c 0,24,25
 121 867 121 867 86 683 c 0,26,27
 24 365 24 365 177 168 c 0,28,29
 330 -29 330 -29 635 -29 c 0,30,31
 938 -29 938 -29 1169 168 c 0,32,33
 1400 364 1400 364 1460 673 c 0,34,35
 1497 867 1497 867 1455 1015 c 0,36,37
 1413 1163 1413 1163 1279 1304 c 1,38,-1
 1599 1304 l 1,0,-1
EndSplineSet
EndChar
StartChar: uni01B2
Encoding: 434 434 434
Width: 1476
Flags: W
TeX: 117 0 0 0
AnchorPoint: "above" 829.548 1520 basechar 0
Fore
598 170 m 0,11,12
 535 170 l 2,7,-1
 401 170 401 170 361 245 c 0,5,6
 320 320 320 320 358 514 c 2,3,4
 548 1493 l 1,2,-1
 346 1493 l 1,1,-1
 156 514 l 2,0,-1
 104 244 104 244 182 122 c 0,12,13
 257 6 257 6 488 0 c 2,10,11
 565 -2 l 0,30,31
 868 -2 868 -2 1098 194 c 0,32,33
 1329 391 1329 391 1389 700 c 0,34,35
 1427 894 1427 894 1385 1042 c 0,36,37
 1342 1190 1342 1190 1209 1331 c 1,38,-1
 1030 1332 l 1,2,-1
 1017 1264 l 1,3,4
 1110 1177 1110 1177 1154 1068 c 0,5,6
 1220 902 1220 902 1181 700 c 0,7,8
 1135 460 1135 460 974 315 c 0,9,10
 814 170 814 170 598 170 c 0,11,12
EndSplineSet
EndChar
StartChar: uni01B3
Encoding: 435 435 435
Width: 1425
Flags: W
TeX: 117 0 0 0
AnchorPoint: "above" 775.436 1527 basechar 0
Fore
650 879 m 1,2,-1
 1074 1370 l 2,0,1
 1141 1448 1141 1448 1198 1488 c 0,2,3
 1275 1542 1275 1542 1374 1493 c 2,4,-1
 1619 1371 l 1,5,-1
 1515 1236 l 1,6,-1
 1336 1337 l 0,7,8
 1250 1331 1250 1331 1201 1274 c 2,4,-1
 718 711 l 1,5,-1
 580 0 l 1,6,-1
 377 0 l 1,7,-1
 515 711 l 1,8,-1
 139 1493 l 1,0,-1
 356 1493 l 1,1,-1
 650 879 l 1,2,-1
EndSplineSet
EndChar
StartChar: uni01B4
Encoding: 436 436 436
Width: 1648
Flags: W
TeX: 117 0 0 0
AnchorPoint: "above" 763.358 1154 basechar 0
AnchorPoint: "below" 455.46 -430 basechar 0
Fore
570 -104 m 1,0,1
 453 -304 453 -304 367 -365 c 128,-1,2
 281 -426 281 -426 157 -426 c 2,3,-1
 10 -426 l 1,4,-1
 40 -272 l 1,5,-1
 148 -272 l 2,6,7
 224 -272 224 -272 273 -236 c 128,-1,8
 322 -200 322 -200 399 -66 c 1,9,-1
 449 18 l 1,10,-1
 210 1120 l 1,11,-1
 405 1120 l 1,12,-1
 584 244 l 1,13,-1
 999 943 l 2,0,1
 1074 1069 1074 1069 1163 1110 c 0,2,3
 1270 1160 1270 1160 1362 1112 c 2,4,-1
 1557 1011 l 1,5,-1
 1475 864 l 1,6,-1
 1298 958 l 2,7,8
 1225 997 1225 997 1183 928 c 2,9,10
 570 -104 l 1,0,1
EndSplineSet
EndChar
StartChar: uni01B5
Encoding: 437 437 437
Width: 1403
Flags: W
TeX: 117 0 0 0
AnchorPoint: "above" 852.354 1520 basechar 0
Fore
260 1493 m 1,0,-1
 1433 1493 l 1,1,-1
 1403 1339 l 1,2,-1
 907 844 l 1,3,-1
 1188 844 l 1,4,-1
 1160 700 l 1,5,-1
 763 700 l 1,6,-1
 232 170 l 1,7,-1
 1199 170 l 1,8,-1
 1166 0 l 1,9,-1
 -53 0 l 1,10,-1
 -23 154 l 1,11,-1
 524 700 l 1,12,-1
 225 700 l 1,13,-1
 253 844 l 1,14,-1
 668 844 l 1,15,-1
 1148 1323 l 1,16,-1
 227 1323 l 1,17,-1
 260 1493 l 1,0,-1
EndSplineSet
EndChar
StartChar: uni01B6
Encoding: 438 438 438
Width: 1075
Flags: W
TeX: 117 0 0 0
AnchorPoint: "above" 649.102 1147 basechar 0
Fore
222 1120 m 1,0,-1
 1096 1120 l 1,1,-1
 1063 952 l 1,2,-1
 755 660 l 1,3,-1
 949 660 l 1,4,-1
 921 516 l 1,5,-1
 604 516 l 1,6,-1
 215 147 l 1,7,-1
 907 147 l 1,8,-1
 878 0 l 1,9,-1
 -21 0 l 1,10,-1
 12 168 l 1,11,-1
 379 516 l 1,12,-1
 166 516 l 1,13,-1
 194 660 l 1,14,-1
 530 660 l 1,15,-1
 860 973 l 1,16,-1
 193 973 l 1,17,-1
 222 1120 l 1,0,-1
EndSplineSet
EndChar
StartChar: uni01B7
Encoding: 439 439 439
Width: 1364
Flags: W
TeX: 117 0 0 0
Fore
562 107 m 8,0,1
 754 107 754 107 867 182 c 0,2,3
 982 257 982 257 1010 400 c 0,4,5
 1036 534 1036 534 958 607 c 0,6,7
 879 681 879 681 714 681 c 2,8,-1
 540 681 l 1,9,-1
 573 847 l 1,10,-1
 1050 1323 l 1,11,-1
 278 1323 l 1,12,-1
 311 1493 l 1,13,-1
 1335 1493 l 1,14,-1
 1303 1325 l 1,15,-1
 799 849 l 1,16,17
 905 849 905 849 1022 793 c 0,18,19
 1112 751 1112 751 1177 642 c 0,20,21
 1238 538 1238 538 1211 400 c 0,22,23
 1181 249 1181 249 1106 164 c 2,24,-1
 1070 123 l 2,25,26
 1044 94 1044 94 992 58 c 0,27,28
 817 -63 817 -63 537 -63 c 16,29,30
 418 -63 418 -63 296 -44 c 0,31,32
 174 -26 174 -26 47 11 c 1,33,-1
 85 206 l 1,34,35
 182 157 182 157 304 132 c 0,36,37
 425 107 425 107 562 107 c 8,0,1
EndSplineSet
EndChar
StartChar: uni01B8
Encoding: 440 440 440
Width: 1364
Flags: W
TeX: 117 0 0 0
Fore
566 107 m 16,0,1
 703 107 703 107 834 132 c 0,36,37
 966 157 966 157 1081 206 c 1,34,35
 1043 11 l 1,33,-1
 902 -26 902 -26 772 -44 c 0,31,32
 644 -63 644 -63 525 -63 c 8,29,30
 245 -63 245 -63 116 58 c 0,27,28
 78 94 78 94 64 123 c 2,25,26
 44 164 l 2,24,-1
 1 249 1 249 31 400 c 0,22,23
 58 538 58 538 159 642 c 0,20,21
 266 751 266 751 372 793 c 0,18,19
 511 849 511 849 617 849 c 1,16,17
 299 1325 l 1,15,-1
 331 1493 l 1,14,-1
 1355 1493 l 1,13,-1
 1322 1323 l 1,12,-1
 550 1323 l 1,11,-1
 843 847 l 1,10,-1
 810 681 l 1,9,-1
 636 681 l 2,8,-1
 471 681 471 681 364 607 c 0,6,7
 258 534 258 534 232 400 c 0,4,5
 204 257 204 257 289 182 c 0,2,3
 374 107 374 107 566 107 c 16,0,1
EndSplineSet
EndChar
StartChar: uni01B9
Encoding: 441 441 441
Width: 1183
Flags: W
TeX: 117 0 0 0
AnchorPoint: "below" 580.938 -430 basechar 0
AnchorPoint: "above" 808.698 1143 basechar 0
Fore
629 476 m 1,0,1
 523 476 523 476 384 420 c 0,2,3
 278 378 278 378 171 269 c 0,4,5
 70 165 70 165 43 27 c 0,6,7
 7 -157 7 -157 90 -271 c 2,8,9
 117 -304 l 2,10,11
 122 -309 122 -309 128 -315 c 0,12,13
 257 -436 257 -436 537 -436 c 0,14,15
 631 -436 631 -436 733 -418 c 0,16,17
 837 -399 837 -399 950 -362 c 1,18,-1
 988 -167 l 1,19,20
 895 -216 895 -216 790 -241 c 0,21,22
 685 -266 685 -266 576 -266 c 0,23,24
 386 -266 386 -266 301 -191 c 0,25,26
 216 -116 216 -116 244 27 c 0,27,28
 269 159 269 159 376 234 c 0,29,30
 483 308 483 308 648 308 c 2,31,-1
 822 308 l 1,32,-1
 855 474 l 1,33,-1
 522 973 l 1,34,-1
 1189 973 l 1,35,-1
 1217 1120 l 1,36,-1
 343 1120 l 1,37,-1
 311 952 l 1,38,-1
 629 476 l 1,0,1
EndSplineSet
EndChar
StartChar: uni01BA
Encoding: 442 442 442
Width: 1075
Flags: W
TeX: 117 0 0 0
Fore
472 -274 m 0,0,1
 556 -274 556 -274 637 -253 c 0,2,3
 720 -232 720 -232 810 -188 c 1,4,-1
 775 -367 l 1,5,6
 681 -399 681 -399 599 -412 c 0,7,8
 510 -426 510 -426 413 -426 c 16,9,10
 -18 -426 -18 -426 -18 -199 c 0,11,12
 -18 -174 -18 -174 -12 -145 c 0,13,14
 34 93 34 93 450 146 c 0,15,16
 742 183 742 183 761 281 c 0,17,18
 763 293 763 293 763 303 c 0,19,20
 763 405 763 405 550 405 c 2,21,-1
 260 405 l 9,22,-1
 855 973 l 1,23,-1
 188 973 l 1,24,-1
 217 1120 l 1,25,-1
 1091 1120 l 1,26,-1
 1058 952 l 1,27,-1
 624 540 l 17,28,29
 951 540 951 540 951 358 c 0,30,31
 951 336 951 336 947 311 c 0,32,33
 893 35 893 35 419 -14 c 0,34,35
 189 -38 189 -38 170 -135 c 0,36,37
 168 -146 168 -146 168 -155 c 0,38,39
 168 -274 168 -274 472 -274 c 0,0,1
EndSplineSet
EndChar
StartChar: uni01BB
Encoding: 443 443 443
Width: 1303
Flags: W
TeX: 117 0 0 0
Fore
278 170 m 1,0,-1
 983 170 l 1,1,-1
 950 0 l 1,2,-1
 2 0 l 1,3,-1
 35 170 l 1,4,-1
 411 490 l 1,5,-1
 549 607 l 1,6,-1
 204 607 l 1,7,-1
 232 751 l 1,8,-1
 714 751 l 1,9,10
 831 860 831 860 882 932 c 0,11,12
 935 1008 935 1008 949 1081 c 0,13,14
 973 1200 973 1200 904 1275 c 0,15,16
 835 1350 835 1350 701 1350 c 0,17,18
 606 1350 606 1350 494 1317 c 0,19,20
 382 1284 382 1284 249 1217 c 1,21,-1
 288 1421 l 1,22,23
 420 1470 420 1470 531 1495 c 0,24,25
 642 1520 642 1520 730 1520 c 0,26,27
 962 1520 962 1520 1077 1404 c 0,28,29
 1193 1288 1193 1288 1155 1094 c 0,30,31
 1137 1002 1137 1002 1086 920 c 0,32,33
 1042 847 1042 847 949 751 c 1,34,-1
 1053 751 l 1,35,-1
 1025 607 l 1,36,-1
 789 607 l 1,37,-1
 732 558 l 1,38,-1
 278 170 l 1,0,-1
EndSplineSet
EndChar
StartChar: uni01BC
Encoding: 444 444 444
Width: 1364
Flags: W
TeX: 117 0 0 0
Fore
800 849 m 2,0,1
 904 849 904 849 1023 793 c 0,2,3
 1113 750 1113 750 1178 642 c 0,4,5
 1239 538 1239 538 1212 400 c 0,6,7
 1182 249 1182 249 1107 164 c 2,8,-1
 1071 123 l 2,9,10
 1045 94 1045 94 993 58 c 0,11,12
 818 -63 818 -63 538 -63 c 0,13,14
 246 -63 246 -63 117 58 c 0,15,16
 79 94 79 94 65 123 c 2,17,-1
 45 164 l 2,18,19
 2 249 2 249 32 400 c 1,20,-1
 233 400 l 1,21,22
 205 257 205 257 290 182 c 0,23,24
 375 107 375 107 565 107 c 0,25,26
 754 107 754 107 868 182 c 0,27,28
 983 257 983 257 1011 400 c 0,29,30
 1037 534 1037 534 959 607 c 0,31,32
 880 681 880 681 715 681 c 2,33,-1
 396 681 l 1,34,-1
 396 680 l 1,35,-1
 194 680 l 1,36,-1
 352 1493 l 1,37,-1
 1281 1493 l 1,38,-1
 1248 1323 l 1,39,-1
 521 1323 l 1,40,-1
 429 848 l 1,41,-1
 800 849 l 2,0,1
EndSplineSet
EndChar
StartChar: uni01BD
Encoding: 445 445 445
Width: 1183
Flags: W
TeX: 117 0 0 0
Fore
614 476 m 2,0,1
 719 476 719 476 837 420 c 0,2,3
 927 377 927 377 992 269 c 0,4,5
 1053 165 1053 165 1026 27 c 0,6,7
 996 -124 996 -124 921 -209 c 2,8,-1
 885 -250 l 2,9,10
 859 -279 859 -279 807 -315 c 0,11,12
 632 -436 632 -436 352 -436 c 0,13,14
 258 -436 258 -436 162 -418 c 0,15,16
 66 -399 66 -399 -33 -362 c 1,17,-1
 5 -167 l 1,18,19
 80 -216 80 -216 175 -241 c 0,20,21
 270 -266 270 -266 379 -266 c 0,22,23
 568 -266 568 -266 682 -191 c 0,24,25
 797 -116 797 -116 825 27 c 0,26,27
 851 161 851 161 773 234 c 0,28,29
 694 308 694 308 529 308 c 2,30,-1
 175 308 l 1,31,-1
 208 476 l 1,32,-1
 209 476 l 1,33,-1
 337 1120 l 1,34,-1
 1127 1120 l 1,35,-1
 1094 950 l 1,36,-1
 488 950 l 1,37,-1
 393 476 l 1,38,-1
 614 476 l 2,0,1
EndSplineSet
EndChar
StartChar: uni01BE
Encoding: 446 446 446
Width: 1045
Flags: W
TeX: 117 0 0 0
Fore
602 998 m 1,0,-1
 576 873 l 1,1,2
 740 843 740 843 829 724 c 0,3,4
 914 609 914 609 881 439 c 0,5,6
 845 253 845 253 711 128 c 0,7,8
 543 -29 543 -29 268 -29 c 0,9,10
 183 -29 183 -29 106 -11 c 0,11,12
 28 6 28 6 -41 41 c 1,13,-1
 -8 213 l 1,14,15
 58 173 58 173 137 149 c 0,16,17
 211 127 211 127 291 127 c 0,18,19
 470 127 470 127 591 241 c 0,20,21
 661 306 661 306 687 439 c 0,22,23
 706 537 706 537 663 613 c 0,24,25
 599 727 599 727 407 727 c 2,26,-1
 345 727 l 1,27,-1
 400 998 l 1,28,-1
 171 998 l 1,29,-1
 203 1162 l 1,30,-1
 432 1162 l 1,31,-1
 486 1438 l 1,32,-1
 688 1438 l 1,33,-1
 634 1162 l 1,34,-1
 865 1162 l 1,35,-1
 833 998 l 1,36,-1
 602 998 l 1,0,-1
EndSplineSet
EndChar
StartChar: uni01BF
Encoding: 447 447 447
Width: 1300
Flags: W
TeX: 117 0 0 0
Fore
233 -122 m 1,1,-1
 174 -426 l 1,2,-1
 -11 -426 l 1,3,-1
 290 1120 l 1,4,-1
 475 1120 l 1,5,-1
 442 950 l 1,6,7
 510 1020 510 1020 658 1098 c 0,8,9
 748 1147 748 1147 958 1147 c 0,10,11
 1142 1147 1142 1147 1197 1035 c 0,12,13
 1234 961 1234 961 1234 870 c 0,14,15
 1234 822 1234 822 1224 769 c 0,16,17
 1141 344 1141 344 233 -122 c 1,1,-1
269 60 m 17,19,20
 973 460 973 460 1021 709 c 0,21,22
 1031 759 1031 759 1031 799 c 0,23,24
 1031 868 1031 868 1003 908 c 0,25,26
 961 973 961 973 843 973 c 0,27,28
 839 973 l 0,29,30
 619 973 619 973 400 734 c 1,31,32
 334 397 334 397 269 60 c 17,19,20
EndSplineSet
EndChar
StartChar: uni01C0
Encoding: 448 448 448
Width: 604
Flags: W
TeX: 117 0 0 0
Fore
388 1493 m 1,0,-1
 590 1493 l 1,1,-1
 216 -426 l 1,2,-1
 14 -426 l 1,3,-1
 388 1493 l 1,0,-1
EndSplineSet
EndChar
StartChar: uni01C2
Encoding: 450 450 450
Width: 940
Flags: W
TeX: 117 0 0 0
Fore
558 1493 m 1,0,-1
 760 1493 l 1,1,-1
 640 876 l 1,2,-1
 991 876 l 1,3,-1
 958 708 l 1,4,-1
 607 708 l 1,5,-1
 560 468 l 1,6,-1
 911 468 l 1,7,-1
 878 298 l 1,8,-1
 527 298 l 1,9,-1
 386 -426 l 1,10,-1
 184 -426 l 1,11,-1
 325 298 l 1,12,-1
 -26 298 l 1,13,-1
 7 468 l 1,14,-1
 358 468 l 1,15,-1
 405 708 l 1,16,-1
 54 708 l 1,17,-1
 87 876 l 1,18,-1
 438 876 l 1,19,-1
 558 1493 l 1,0,-1
EndSplineSet
EndChar
StartChar: uni01E4
Encoding: 484 484 484
Width: 1587
Flags: W
Fore
1347 381 m 1,0,-1
 1296 123 l 1,1,2
 1163 50 1163 50 1006 10 c 128,-1,3
 849 -29 849 -29 690 -29 c 0,4,5
 409 -29 409 -29 250 127 c 128,-1,6
 92 283 92 283 92 561 c 0,7,8
 92 792 92 792 188 1000 c 128,-1,9
 285 1209 285 1209 455 1348 c 0,10,11
 562 1435 562 1435 689 1478 c 128,-1,12
 816 1520 816 1520 971 1520 c 0,13,14
 1111 1520 1111 1520 1240 1484 c 128,-1,15
 1368 1449 1368 1449 1485 1378 c 1,16,-1
 1444 1163 l 1,17,18
 1354 1257 1354 1257 1233 1306 c 128,-1,19
 1112 1356 1112 1356 975 1356 c 0,20,21
 816 1356 816 1356 695 1296 c 128,-1,22
 574 1235 574 1235 479 1108 c 0,23,24
 398 1000 398 1000 352 854 c 128,-1,25
 305 707 305 707 305 555 c 0,26,27
 305 346 305 346 412 240 c 128,-1,28
 519 135 519 135 731 135 c 0,29,30
 837 135 837 135 936 158 c 128,-1,31
 1035 180 1035 180 1118 223 c 1,32,-1
 1150 381 l 1,33,-1
 920 381 l 1,34,-1
 948 469 l 1,35,-1
 1167 469 l 1,36,-1
 1196 614 l 1,37,-1
 864 614 l 1,38,-1
 895 780 l 1,39,-1
 1425 780 l 1,40,-1
 1364 469 l 1,41,-1
 1522 469 l 1,42,-1
 1494 381 l 1,43,-1
 1347 381 l 1,0,-1
EndSplineSet
EndChar
StartChar: uni01E5
Encoding: 485 485 485
Width: 1300
Flags: W
Fore
944 709 m 0,0,1
 944 845 944 845 880 919 c 128,-1,2
 816 993 816 993 698 993 c 0,3,4
 625 993 625 993 559 964 c 128,-1,5
 493 935 493 935 446 883 c 0,6,7
 370 797 370 797 328 680 c 128,-1,8
 285 564 285 564 285 440 c 0,9,10
 285 302 285 302 350 228 c 128,-1,11
 414 154 414 154 535 154 c 0,12,13
 710 154 710 154 827 312 c 128,-1,14
 944 471 944 471 944 709 c 0,0,1
774 -84 m 1,15,16
 821 -8 821 -8 842 96 c 2,17,-1
 858 180 l 1,18,19
 781 92 781 92 679 46 c 128,-1,20
 577 0 577 0 459 0 c 0,21,22
 289 0 289 0 192 112 c 128,-1,23
 94 225 94 225 94 422 c 0,24,25
 94 577 94 577 153 726 c 128,-1,26
 212 874 212 874 319 989 c 0,27,28
 390 1065 390 1065 484 1106 c 128,-1,29
 579 1147 579 1147 682 1147 c 0,30,31
 795 1147 795 1147 879 1094 c 128,-1,32
 963 1042 963 1042 1004 946 c 1,33,-1
 1036 1120 l 1,34,-1
 1221 1120 l 1,35,-1
 1030 139 l 2,36,37
 1006 13 1006 13 962 -83 c 1,38,-1
 1134 -84 l 1,39,-1
 1101 -154 l 1,40,-1
 926 -154 l 1,41,42
 880 -231 880 -231 820 -286 c 0,43,44
 664 -426 664 -426 401 -426 c 0,45,46
 304 -426 304 -426 221 -412 c 128,-1,47
 138 -397 138 -397 66 -367 c 1,48,-1
 100 -188 l 1,49,50
 168 -232 168 -232 244 -253 c 128,-1,51
 320 -274 320 -274 406 -274 c 0,52,53
 581 -274 581 -274 694 -178 c 0,54,55
 720 -154 l 1,56,-1
 413 -154 l 1,57,-1
 447 -84 l 1,58,-1
 774 -84 l 1,15,16
EndSplineSet
EndChar
StartChar: uni01F6
Encoding: 502 502 502
Width: 2279
Flags: W
TeX: 117 0 0 0
Fore
2168 1120 m 1,0,-1
 2037 442 l 2,1,2
 1993 219 1993 219 1868 91 c 0,3,4
 1749 -29 1749 -29 1467 -29 c 0,5,6
 1192 -29 1192 -29 1112 91 c 0,7,8
 1035 209 1035 209 1081 442 c 2,9,-1
 1133 711 l 1,10,-1
 399 711 l 1,11,-1
 261 0 l 1,12,-1
 59 0 l 1,13,-1
 349 1493 l 1,14,-1
 551 1493 l 1,15,-1
 432 881 l 1,16,-1
 1166 881 l 1,17,-1
 1285 1493 l 1,18,-1
 1487 1493 l 1,19,-1
 1284 449 l 2,20,21
 1253 290 1253 290 1300 210 c 0,22,23
 1346 132 1346 132 1498 131 c 0,24,25
 1646 131 1646 131 1728 210 c 0,26,27
 1804 285 1804 285 1836 449 c 2,28,-1
 1966 1120 l 1,29,-1
 2168 1120 l 1,0,-1
EndSplineSet
EndChar
StartChar: uni01F7
Encoding: 503 503 503
Width: 1397
Flags: W
TeX: 117 0 0 0
Fore
287 156 m 1,1,-1
 174 -426 l 1,2,-1
 -28 -426 l 1,3,-1
 345 1493 l 1,4,-1
 547 1493 l 1,5,-1
 511 1308 l 1,6,7
 581 1380 581 1380 743 1467 c 0,8,9
 840 1520 840 1520 1066 1520 c 0,10,11
 1264 1520 1264 1520 1324 1400 c 0,12,13
 1363 1320 1363 1320 1363 1222 c 0,14,15
 1363 1171 1363 1171 1352 1114 c 0,16,17
 1264 657 1264 657 287 156 c 1,1,-1
325 351 m 17,18,19
 1082 781 1082 781 1134 1049 c 0,20,21
 1144 1102 1144 1102 1144 1145 c 0,22,23
 1144 1218 1144 1218 1114 1263 c 0,24,25
 1068 1333 1068 1333 939 1333 c 0,26,27
 702 1333 702 1333 466 1076 c 1,28,-1
 325 351 l 17,18,19
EndSplineSet
EndChar
StartChar: uni021C
Encoding: 540 540 540
Width: 1284
Flags: W
TeX: 117 0 0 0
Fore
-43 -270 m 1,0,1
 171 -205 171 -205 380 -118 c 0,2,3
 558 -43 558 -43 709 78 c 0,4,5
 825 172 825 172 853 314 c 0,6,7
 859 344 859 344 859 371 c 0,8,9
 859 445 859 445 815 494 c 0,10,11
 755 561 755 561 664 561 c 0,12,13
 601 561 601 561 525 530 c 2,14,-1
 264 424 l 1,15,-1
 297 595 l 1,16,-1
 566 701 l 2,17,18
 723 763 723 763 849 880 c 0,19,20
 943 966 943 966 973 1112 c 0,21,22
 979 1141 979 1141 979 1166 c 0,23,24
 979 1244 979 1244 926 1288 c 0,25,26
 854 1349 854 1349 744 1349 c 0,27,28
 637 1349 637 1349 515 1292 c 0,29,30
 449 1261 449 1261 281 1166 c 1,31,-1
 318 1356 l 1,32,33
 450 1422 450 1422 554 1464 c 0,34,35
 694 1520 694 1520 795 1520 c 0,36,37
 987 1520 987 1520 1099 1416 c 0,38,39
 1186 1336 1186 1336 1186 1212 c 0,40,41
 1186 1175 1186 1175 1178 1133 c 0,42,43
 1145 963 1145 963 1055 864 c 0,44,45
 951 751 951 751 816 674 c 1,46,47
 950 655 950 655 1010 546 c 0,48,49
 1059 457 1059 457 1059 371 c 0,50,51
 1059 342 1059 342 1054 314 c 0,52,53
 1011 95 1011 95 834 -46 c 0,54,55
 675 -173 675 -173 351 -298 c 0,56,57
 123 -386 123 -386 -74 -430 c 1,58,-1
 -43 -270 l 1,0,1
EndSplineSet
EndChar
StartChar: uni021D
Encoding: 541 541 541
Width: 1068
Flags: W
TeX: 117 0 0 0
Fore
-102 -303 m 1,0,1
 86 -252 86 -252 276 -180 c 0,2,3
 436 -120 436 -120 569 -21 c 0,4,5
 673 56 673 56 694 170 c 0,6,7
 698 192 698 192 698 212 c 0,8,9
 698 274 698 274 657 316 c 0,10,11
 602 370 602 370 520 370 c 0,12,13
 463 370 463 370 395 345 c 2,14,-1
 162 259 l 1,15,-1
 189 398 l 1,16,-1
 429 483 l 2,17,18
 562 530 562 530 680 629 c 0,19,20
 765 700 765 700 788 816 c 0,21,22
 792 837 792 837 792 856 c 0,23,24
 792 924 792 924 743 959 c 0,25,26
 674 1009 674 1009 578 1009 c 0,27,28
 486 1009 486 1009 373 962 c 0,29,30
 287 927 287 927 165 860 c 1,31,-1
 195 1014 l 1,32,33
 301 1062 301 1062 406 1101 c 0,34,35
 530 1147 530 1147 621 1147 c 0,36,37
 794 1147 794 1147 897 1062 c 0,38,39
 978 995 978 995 978 892 c 0,40,41
 978 864 978 864 972 833 c 0,42,43
 945 694 945 694 866 615 c 0,44,45
 775 524 775 524 655 461 c 1,46,47
 776 446 776 446 832 358 c 0,48,49
 879 283 879 283 879 211 c 0,50,51
 879 190 879 190 875 170 c 0,52,53
 841 -7 841 -7 683 -122 c 0,54,55
 544 -224 544 -224 253 -326 c 0,56,57
 42 -400 42 -400 -127 -433 c 1,58,-1
 -102 -303 l 1,0,1
EndSplineSet
EndChar
StartChar: uni0220
Encoding: 544 544 544
Width: 1506
Flags: W
TeX: 117 0 0 0
Fore
1332 893 m 2,0,-1
 1076 -426 l 1,1,-1
 875 -426 l 1,2,-1
 1132 895 l 2,3,4
 1149 984 1149 984 1149 1055 c 0,5,6
 1149 1153 1149 1153 1116 1216 c 0,7,8
 1061 1323 1061 1323 908 1323 c 0,9,10
 729 1323 729 1323 595 1194 c 0,11,12
 464 1068 464 1068 421 846 c 2,13,-1
 257 0 l 1,14,-1
 55 0 l 1,15,-1
 345 1493 l 1,16,-1
 547 1493 l 1,17,-1
 500 1252 l 1,18,19
 604 1387 604 1387 722 1453 c 0,20,21
 840 1520 840 1520 994 1520 c 0,22,23
 1221 1520 1221 1520 1306 1361 c 0,24,25
 1357 1267 1357 1267 1357 1122 c 0,26,27
 1357 1020 1357 1020 1332 893 c 2,0,-1
EndSplineSet
EndChar
StartChar: uni0221
Encoding: 545 545 545
Width: 1716
Flags: W
TeX: 117 0 0 0
Fore
1094 130 m 9,0,1
 1110 125 1110 125 1147 125 c 0,2,3
 1307 125 1307 125 1341 300 c 0,4,5
 1350 345 1350 345 1298 346 c 0,6,7
 1246 346 1246 346 1094 130 c 9,0,1
1038 314 m 1,8,9
 1184 498 1184 498 1320 498 c 0,10,11
 1564 498 1564 498 1524 292 c 0,12,13
 1461 -29 1461 -29 1119 -29 c 0,14,15
 1046 -29 1046 -29 996 -14 c 1,16,17
 948 -86 948 -86 913 -144 c 1,18,-1
 717 -144 l 1,19,20
 759 -75 759 -75 855 72 c 1,21,22
 818 132 818 132 825 168 c 1,23,24
 748 68 748 68 651 20 c 0,25,26
 552 -29 552 -29 428 -29 c 0,27,28
 225 -29 225 -29 129 133 c 0,29,30
 33 295 33 295 84 559 c 128,-1,31
 136 823 136 823 294 985 c 0,32,33
 454 1147 454 1147 657 1147 c 0,34,35
 781 1147 781 1147 860 1098 c 0,36,37
 939 1050 939 1050 977 950 c 1,38,-1
 1095 1556 l 1,39,-1
 1279 1556 l 1,40,-1
 1038 314 l 1,8,9
274 559 m 128,-1,42
 235 356 235 356 295 240 c 0,43,44
 357 125 357 125 503 125 c 128,-1,45
 649 125 649 125 755 240 c 0,46,47
 862 356 862 356 901 559 c 128,-1,48
 941 762 941 762 879 878 c 0,49,50
 818 993 818 993 672 993 c 128,-1,51
 526 993 526 993 419 878 c 0,52,41
 314 762 314 762 274 559 c 128,-1,42
EndSplineSet
EndChar
StartChar: uni0222
Encoding: 546 546 546
Width: 1430
Flags: W
TeX: 117 0 0 0
Fore
707 709 m 0,0,1
 523 709 523 709 402 632 c 0,2,3
 280 555 280 555 253 420 c 0,4,5
 248 390 248 390 248 363 c 0,6,7
 248 268 248 268 319 208 c 0,8,9
 410 131 410 131 594 131 c 128,-1,10
 778 131 778 131 900 208 c 0,11,12
 1022 286 1022 286 1048 420 c 0,13,14
 1054 450 1054 450 1054 478 c 0,15,16
 1054 572 1054 572 984 632 c 0,17,18
 893 709 893 709 707 709 c 0,0,1
756 1260 m 17,19,20
 625 1257 625 1257 528 1195 c 128,-1,21
 431 1133 431 1133 416 1054 c 0,22,23
 414 1044 414 1044 414 1034 c 0,24,25
 414 975 414 975 483 913 c 0,26,27
 534 868 534 868 738 868 c 0,28,29
 906 868 906 868 1013 933 c 0,30,31
 1122 998 1122 998 1148 1134 c 0,32,33
 1158 1183 1158 1183 1158 1221 c 0,34,35
 1158 1305 1158 1305 1111 1335 c 0,36,37
 1017 1412 1017 1412 889 1420 c 9,38,-1
 908 1520 l 1,39,40
 1136 1520 1136 1520 1266 1416 c 0,41,42
 1358 1341 1358 1341 1358 1214 c 0,43,44
 1358 1176 1358 1176 1350 1133 c 0,45,46
 1325 1005 1325 1005 1223 916 c 128,-1,47
 1121 827 1121 827 962 795 c 1,48,49
 1128 761 1128 761 1204 662 c 0,50,51
 1260 589 1260 589 1260 493 c 0,52,53
 1260 458 1260 458 1252 420 c 0,54,55
 1210 203 1210 203 1032 87 c 128,-1,56
 854 -29 854 -29 563 -29 c 128,-1,57
 272 -29 272 -29 140 87 c 0,58,59
 38 175 38 175 38 322 c 0,60,61
 38 368 38 368 48 420 c 0,62,63
 76 563 76 563 192 662 c 128,-1,64
 308 761 308 761 485 795 c 1,65,66
 320 826 320 826 267 896 c 0,67,68
 213 967 213 967 213 1037 c 0,69,70
 213 1055 213 1055 216 1073 c 0,71,72
 242 1203 242 1203 388 1286 c 0,73,74
 518 1360 518 1360 775 1360 c 1,75,-1
 756 1260 l 17,19,20
EndSplineSet
EndChar
StartChar: uni0223
Encoding: 547 547 547
Width: 1250
Flags: W
TeX: 117 0 0 0
Fore
649 709 m 0,0,1
 505 709 505 709 407 632 c 0,2,3
 310 555 310 555 284 420 c 0,4,5
 276 382 276 382 276 349 c 0,6,7
 276 263 276 263 325 208 c 0,8,9
 393 131 393 131 537 131 c 128,-1,10
 681 131 681 131 779 208 c 0,11,12
 877 286 877 286 903 420 c 0,13,14
 910 458 910 458 910 491 c 0,15,16
 910 576 910 576 861 632 c 0,17,18
 794 709 794 709 649 709 c 0,0,1
1168 1327 m 17,19,20
 1196 1273 1196 1273 1196 1206 c 0,21,22
 1196 1171 1196 1171 1188 1133 c 0,23,24
 1159 980 1159 980 1094 916 c 0,25,26
 1004 827 1004 827 869 795 c 1,27,28
 1008 761 1008 761 1071 662 c 0,29,30
 1113 594 1113 594 1113 505 c 0,31,32
 1113 464 1113 464 1105 420 c 0,33,34
 1063 203 1063 203 907 87 c 0,35,36
 752 -29 752 -29 505 -29 c 128,-1,37
 258 -29 258 -29 149 87 c 0,38,39
 69 171 69 171 69 308 c 0,40,41
 69 360 69 360 81 420 c 0,42,43
 109 563 109 563 210 662 c 128,-1,44
 311 761 311 761 464 795 c 1,45,46
 328 830 328 830 284 916 c 0,47,48
 263 959 263 959 263 1025 c 0,49,50
 263 1073 263 1073 274 1133 c 0,51,52
 295 1239 295 1239 375 1327 c 9,53,-1
 530 1295 l 17,54,55
 474 1230 474 1230 452 1114 c 0,56,57
 446 1082 446 1082 446 1055 c 0,58,59
 446 980 446 980 489 933 c 0,60,61
 549 868 549 868 680 868 c 0,62,63
 810 868 810 868 895 933 c 0,64,65
 982 998 982 998 1005 1114 c 0,66,67
 1014 1164 1014 1164 1014 1204 c 0,68,69
 1014 1259 1014 1259 996 1295 c 9,70,-1
 1168 1327 l 17,19,20
EndSplineSet
EndChar
StartChar: uni0224
Encoding: 548 548 548
Width: 1403
Flags: W
TeX: 117 0 0 0
Fore
1203 -20 m 2,0,1
 1147 -309 1147 -309 974 -389 c 0,2,3
 895 -426 895 -426 780 -426 c 2,4,-1
 526 -426 l 1,5,-1
 557 -270 l 1,6,-1
 790 -270 l 2,7,8
 895 -270 895 -270 942 -222 c 0,9,10
 990 -173 990 -173 1019 -20 c 2,11,-1
 1023 -0 l 1,12,-1
 -12 0 l 1,13,-1
 18 154 l 1,14,-1
 1189 1323 l 1,15,-1
 268 1323 l 1,16,-1
 302 1493 l 1,17,-1
 1475 1493 l 1,18,-1
 1445 1339 l 1,19,-1
 273 170 l 1,20,-1
 1240 170 l 1,21,-1
 1203 -20 l 2,0,1
EndSplineSet
EndChar
StartChar: uni0225
Encoding: 549 549 549
Width: 1075
Flags: W
TeX: 117 0 0 0
Fore
916 -20 m 2,0,1
 860 -309 860 -309 686 -389 c 0,2,3
 607 -426 607 -426 493 -426 c 2,4,-1
 239 -426 l 1,5,-1
 269 -270 l 1,6,-1
 502 -270 l 2,7,8
 607 -270 607 -270 654 -222 c 0,9,10
 702 -173 702 -173 732 -20 c 2,11,-1
 736 0 l 1,12,-1
 21 0 l 1,13,-1
 53 168 l 1,14,-1
 902 973 l 1,15,-1
 235 973 l 1,16,-1
 263 1120 l 1,17,-1
 1137 1120 l 1,18,-1
 1105 952 l 1,19,-1
 256 147 l 1,20,-1
 948 147 l 1,21,-1
 916 -20 l 2,0,1
EndSplineSet
EndChar
StartChar: uni0234
Encoding: 564 564 564
Width: 972
Flags: W
TeX: 117 0 0 0
AnchorPoint: "above" 428.643 1514 basechar 0
AnchorPoint: "below" 133.185 -6 basechar 0
Fore
351 130 m 9,0,0
 367 125 367 125 404 125 c 0,1,2
 564 125 564 125 598 300 c 0,3,4
 606 345 606 345 555 346 c 0,5,6
 503 346 503 346 351 130 c 9,0,0
294 314 m 1,2,-1
 440 498 440 498 576 498 c 0,3,4
 820 498 820 498 780 292 c 0,5,6
 718 -29 718 -29 376 -29 c 0,7,8
 303 -29 303 -29 253 -14 c 1,9,10
 205 -86 205 -86 169 -144 c 1,11,-1
 -27 -144 l 1,12,13
 16 -75 16 -75 111 72 c 1,14,15
 74 132 74 132 93 222 c 2,16,-1
 351 1550 l 1,17,-1
 535 1550 l 1,18,-1
 294 314 l 1,2,-1
EndSplineSet
EndChar
StartChar: uni0235
Encoding: 565 565 565
Width: 1726
Flags: W
TeX: 117 0 0 0
AnchorPoint: "above" 774.473 1147 basechar 0
AnchorPoint: "below" 580.519 0 basechar 0
Fore
1144 130 m 9,0,0
 1160 125 1160 125 1197 125 c 0,1,2
 1357 125 1357 125 1391 300 c 0,3,4
 1400 345 1400 345 1348 346 c 0,5,6
 1296 346 1296 346 1144 130 c 9,0,0
1088 314 m 1,1,-1
 1233 498 1233 498 1369 498 c 0,2,3
 1613 498 1613 498 1573 292 c 0,4,5
 1511 -29 1511 -29 1169 -29 c 0,6,7
 1096 -29 1096 -29 1046 -14 c 1,8,9
 998 -86 998 -86 963 -144 c 1,10,-1
 767 -144 l 1,11,12
 809 -75 809 -75 905 72 c 1,13,14
 867 132 867 132 886 222 c 1,15,-1
 973 670 l 1,16,17
 1004 829 1004 829 957 908 c 128,-1,19
 910 987 910 987 786 987 c 0,20,21
 637 987 637 987 533 892 c 128,-1,22
 428 797 428 797 397 633 c 2,23,-1
 274 0 l 1,24,-1
 89 0 l 1,25,-1
 306 1120 l 1,26,-1
 491 1120 l 1,27,-1
 457 946 l 1,28,29
 543 1047 543 1047 642 1097 c 0,30,31
 741 1147 741 1147 858 1147 c 0,31,32
 1051 1147 1051 1147 1127 1028 c 0,33,34
 1203 908 1203 908 1158 676 c 2,34,-1
 1088 314 l 1,1,-1
EndSplineSet
EndChar
StartChar: uni0236
Encoding: 566 566 566
Width: 977
Flags: W
TeX: 117 0 0 0
AnchorPoint: "above" 451.694 1520 basechar 0
AnchorPoint: "below" 374.236 0 basechar 0
Fore
367 130 m 9,0,0
 383 125 383 125 420 125 c 0,1,2
 580 125 580 125 614 300 c 0,3,4
 622 345 622 345 570 346 c 128,-1,5
 518 346 518 346 367 130 c 9,0,0
310 314 m 17,0,0
 456 498 456 498 592 498 c 0,1,2
 836 498 836 498 796 292 c 0,3,4
 734 -29 734 -29 392 -29 c 0,5,6
 319 -29 319 -29 268 -14 c 1,7,8
 221 -86 221 -86 185 -144 c 1,9,-1
 -11 -144 l 1,10,11
 32 -75 32 -75 127 72 c 1,12,13
 90 132 90 132 107 222 c 1,14,-1
 254 977 l 1,15,-1
 119 977 l 1,16,-1
 147 1120 l 1,17,-1
 282 1120 l 1,18,-1
 344 1438 l 1,19,-1
 529 1438 l 1,20,-1
 467 1120 l 1,21,-1
 846 1120 l 1,22,-1
 818 977 l 1,23,-1
 439 977 l 1,24,-1
 310 314 l 17,0,0
EndSplineSet
EndChar
StartChar: dotlessj
Encoding: 567 567 567
Width: 569
Flags: W
AnchorPoint: "above" 379 1147 basechar 0
Fore
297 1120 m 1,0,-1
 481 1120 l 1,1,-1
 260 -20 l 1,2,-1
 259 -25 l 2,3,4
 222 -216 222 -216 174 -287 c 0,5,6
 129 -354 129 -354 42.5 -390 c 128,-1,7
 -44 -426 -44 -426 -162 -426 c 2,8,-1
 -231 -426 l 1,9,-1
 -201 -270 l 1,10,-1
 -154 -270 l 2,11,12
 -46 -270 -46 -270 -0.5 -225 c 128,-1,13
 45 -180 45 -180 76 -20 c 2,14,-1
 297 1120 l 1,0,-1
EndSplineSet
EndChar
StartChar: uni0238
Encoding: 568 568 568
Width: 2044
Flags: W
TeX: 117 0 0 0
Fore
263 559 m 0,0,1
 224 356 224 356 285 240 c 0,2,3
 346 125 346 125 492 125 c 0,4,5
 638 125 638 125 744 240 c 0,6,7
 851 356 851 356 890 559 c 0,8,9
 930 762 930 762 868 878 c 0,10,11
 807 993 807 993 661 993 c 0,12,13
 515 993 515 993 409 878 c 0,14,15
 303 762 303 762 263 559 c 0,0,1
1151 950 m 1,16,17
 1229 1050 1229 1050 1327 1098 c 0,18,19
 1425 1147 1425 1147 1548 1147 c 0,20,21
 1752 1147 1752 1147 1848 985 c 0,22,23
 1944 823 1944 823 1892 559 c 0,24,25
 1841 295 1841 295 1682 133 c 0,26,27
 1523 -29 1523 -29 1319 -29 c 0,28,29
 1196 -29 1196 -29 1117 20 c 0,30,31
 1038 68 1038 68 999 168 c 1,32,-1
 967 0 l 1,33,-1
 966 0 l 1,34,-1
 782 0 l 1,35,-1
 814 168 l 1,36,37
 737 68 737 68 639 20 c 0,38,39
 541 -29 541 -29 417 -29 c 0,40,41
 214 -29 214 -29 118 133 c 0,42,43
 22 295 22 295 73 559 c 0,44,45
 125 823 125 823 284 985 c 0,46,47
 443 1147 443 1147 646 1147 c 0,48,49
 770 1147 770 1147 849 1098 c 0,50,51
 928 1050 928 1050 966 950 c 1,52,-1
 1084 1556 l 1,53,-1
 1268 1556 l 1,54,-1
 1269 1556 l 1,55,-1
 1151 950 l 1,16,17
1701 559 m 0,56,57
 1741 762 1741 762 1680 878 c 0,58,59
 1619 993 1619 993 1473 993 c 0,60,61
 1327 993 1327 993 1221 878 c 0,62,63
 1115 762 1115 762 1075 559 c 0,64,65
 1036 356 1036 356 1097 240 c 0,66,67
 1158 125 1158 125 1304 125 c 0,68,69
 1450 125 1450 125 1556 240 c 0,70,71
 1662 356 1662 356 1701 559 c 0,56,57
EndSplineSet
EndChar
StartChar: uni0239
Encoding: 569 569 569
Width: 2044
Flags: W
TeX: 117 0 0 0
Fore
1780 559 m 0,0,1
 1819 762 1819 762 1758 878 c 0,2,3
 1697 993 1697 993 1551 993 c 0,4,5
 1405 993 1405 993 1299 878 c 0,6,7
 1193 762 1193 762 1154 559 c 0,8,9
 1114 356 1114 356 1175 240 c 0,10,11
 1236 125 1236 125 1382 125 c 0,12,13
 1528 125 1528 125 1634 240 c 0,14,15
 1740 356 1740 356 1780 559 c 0,0,1
1078 168 m 1,16,-1
 962 -426 l 1,17,-1
 961 -426 l 1,18,-1
 777 -426 l 1,19,-1
 893 168 l 1,20,21
 815 68 815 68 717 20 c 0,22,23
 619 -29 619 -29 495 -29 c 0,24,25
 292 -29 292 -29 196 133 c 0,26,27
 100 295 100 295 152 559 c 0,28,29
 203 823 203 823 362 985 c 0,30,31
 521 1147 521 1147 724 1147 c 0,32,33
 848 1147 848 1147 927 1098 c 0,34,35
 1006 1050 1006 1050 1045 950 c 1,36,-1
 1078 1120 l 1,37,-1
 1262 1120 l 1,38,-1
 1263 1120 l 1,39,-1
 1230 950 l 1,40,41
 1307 1050 1307 1050 1405 1098 c 0,42,43
 1503 1147 1503 1147 1626 1147 c 0,44,45
 1830 1147 1830 1147 1926 985 c 0,46,47
 2022 823 2022 823 1971 559 c 0,48,49
 1919 295 1919 295 1760 133 c 0,50,51
 1601 -29 1601 -29 1397 -29 c 0,52,53
 1274 -29 1274 -29 1195 20 c 0,54,55
 1116 68 1116 68 1078 168 c 1,16,-1
342 559 m 0,56,57
 302 356 302 356 363 240 c 0,58,59
 424 125 424 125 570 125 c 0,60,61
 716 125 716 125 823 240 c 0,62,63
 929 356 929 356 969 559 c 0,64,65
 1008 762 1008 762 946 878 c 0,66,67
 885 993 885 993 739 993 c 0,68,69
 593 993 593 993 487 878 c 0,70,71
 381 762 381 762 342 559 c 0,56,57
EndSplineSet
EndChar
StartChar: uni023A
Encoding: 570 570 570
Width: 1401
Flags: W
TeX: 117 0 0 0
Fore
731 1493 m 1,0,-1
 960 1493 l 1,1,-1
 1026 1142 l 1,2,-1
 1460 1559 l 1,3,-1
 1545 1470 l 1,4,-1
 1053 997 l 1,5,-1
 1239 0 l 1,6,-1
 1029 0 l 1,7,-1
 968 383 l 1,8,-1
 413 383 l 1,9,-1
 162 142 l 1,10,-1
 84 0 l 1,11,-1
 15 -0 l 1,12,-1
 -58 -70 l 1,13,-1
 -127 -0 l 1,14,-1
 -129 0 l 1,15,-1
 -128 1 l 1,16,-1
 -144 18 l 1,17,-1
 -86 74 l 1,18,-1
 731 1493 l 1,0,-1
807 1294 m 1,19,-1
 388 551 l 1,20,-1
 411 551 l 1,21,-1
 861 984 l 1,22,-1
 807 1294 l 1,19,-1
588 551 m 1,23,-1
 937 551 l 1,24,-1
 887 838 l 1,25,-1
 588 551 l 1,23,-1
EndSplineSet
EndChar
StartChar: uni023B
Encoding: 571 571 571
Width: 1430
Flags: W
TeX: 117 0 0 0
Fore
-44 -70 m 1,0,-1
 -130 18 l 1,1,-1
 142 279 l 1,2,3
 61 466 61 466 115 745 c 0,4,5
 185 1105 185 1105 420 1312 c 0,6,7
 656 1520 656 1520 995 1520 c 0,8,9
 1129 1520 1129 1520 1240 1484 c 0,10,11
 1298 1466 1298 1466 1349 1439 c 1,12,-1
 1475 1559 l 1,13,-1
 1560 1470 l 1,14,-1
 1437 1352 l 1,15,-1
 1401 1165 l 1,16,17
 1363 1208 1363 1208 1321 1241 c 1,18,-1
 361 319 l 1,19,20
 368 306 368 306 376 294 c 0,21,22
 482 137 482 137 738 137 c 0,23,24
 868 137 868 137 993 184 c 0,25,26
 1117 231 1117 231 1238 326 c 1,27,-1
 1197 115 l 1,28,29
 1077 43 1077 43 951 7 c 0,30,31
 826 -29 826 -29 694 -29 c 0,32,33
 361 -29 361 -29 206 170 c 1,34,-1
 -44 -70 l 1,0,-1
317 447 m 1,35,-1
 1212 1307 l 1,36,-1
 1211 1307 l 2,37,38
 1104 1354 1104 1354 974 1354 c 0,39,40
 718 1354 718 1354 552 1198 c 0,41,42
 386 1041 386 1041 328 745 c 0,43,44
 295 572 295 572 317 447 c 1,35,-1
EndSplineSet
EndChar
StartChar: uni023C
Encoding: 572 572 572
Width: 1126
Flags: W
TeX: 117 0 0 0
Fore
-22 -94 m 1,0,-1
 -103 -16 l 1,1,-1
 131 214 l 1,2,3
 73 355 73 355 113 559 c 0,4,5
 166 833 166 833 347 990 c 0,6,7
 528 1147 528 1147 790 1147 c 0,8,9
 875 1147 875 1147 953 1130 c 0,10,11
 997 1120 997 1120 1039 1104 c 1,12,-1
 1149 1212 l 1,13,-1
 1229 1133 l 1,14,-1
 1083 990 l 1,15,-1
 1066 905 l 1,16,17
 1044 919 1044 919 1022 930 c 1,18,-1
 335 256 l 1,19,20
 339 248 339 248 344 240 c 0,21,22
 421 127 421 127 600 127 c 0,23,24
 680 127 680 127 763 148 c 0,25,26
 845 170 845 170 932 213 c 1,27,-1
 899 43 l 1,28,29
 815 7 815 7 729 -11 c 0,30,31
 643 -29 643 -29 550 -29 c 0,32,33
 309 -29 309 -29 191 115 c 1,34,-1
 -22 -94 l 1,0,-1
296 376 m 1,35,-1
 906 974 l 1,36,37
 839 991 839 991 768 991 c 0,38,39
 589 991 589 991 468 878 c 0,40,41
 347 764 347 764 307 559 c 0,42,43
 287 456 287 456 296 376 c 1,35,-1
EndSplineSet
EndChar
StartChar: uni023D
Encoding: 573 573 573
Width: 1141
Flags: W
TeX: 117 0 0 0
Fore
346 1493 m 1,0,-1
 548 1493 l 1,1,-1
 422 844 l 1,2,-1
 613 844 l 1,3,-1
 585 700 l 1,4,-1
 394 700 l 1,5,-1
 291 170 l 1,6,-1
 1018 170 l 1,7,-1
 985 0 l 1,8,-1
 56 0 l 1,9,-1
 192 700 l 1,10,-1
 1 700 l 1,11,-1
 29 844 l 1,12,-1
 220 844 l 1,13,-1
 346 1493 l 1,0,-1
EndSplineSet
EndChar
StartChar: uni023E
Encoding: 574 574 574
Width: 1251
Flags: W
TeX: 117 0 0 0
Fore
118 1385 m 1,0,-1
 63 1470 l 1,1,-1
 182 1559 l 1,2,-1
 225 1493 l 1,3,-1
 1402 1493 l 1,4,-1
 1369 1323 l 1,5,-1
 839 1323 l 1,6,-1
 724 729 l 1,7,-1
 1188 18 l 1,8,-1
 1068 -70 l 1,9,-1
 683 519 l 1,10,-1
 582 0 l 1,11,-1
 379 0 l 1,12,-1
 527 759 l 1,13,-1
 159 1323 l 1,14,-1
 106 1323 l 1,15,-1
 118 1385 l 1,0,-1
568 969 m 1,16,-1
 636 1323 l 1,17,-1
 336 1323 l 1,18,-1
 568 969 l 1,16,-1
EndSplineSet
EndChar
StartChar: uni023F
Encoding: 575 575 575
Width: 1067
Flags: W
TeX: 117 0 0 0
Fore
1055 1087 m 1,0,-1
 1021 913 l 1,1,2
 951 953 951 953 871 973 c 0,3,4
 791 993 791 993 701 993 c 0,5,6
 564 993 564 993 487 951 c 0,7,8
 410 909 410 909 394 825 c 0,9,10
 382 761 382 761 424 724 c 0,11,12
 465 688 465 688 607 655 c 2,13,-1
 667 641 l 2,14,15
 857 597 857 597 923 522 c 0,16,17
 990 446 990 446 964 309 c 0,18,19
 933 153 933 153 792 62 c 0,20,21
 693 -2 693 -2 558 -21 c 1,22,-1
 686 -180 l 1,23,-1
 808 -306 l 2,24,25
 843 -342 843 -342 919 -342 c 1,26,-1
 889 -496 l 1,27,-1
 850 -496 l 2,28,29
 766 -496 766 -496 664 -435 c 0,30,31
 600 -397 600 -397 529 -306 c 2,32,-1
 339 -63 l 2,33,34
 316 -33 316 -33 283 -17 c 0,35,36
 267 -14 267 -14 251 -12 c 0,37,38
 157 6 157 6 56 41 c 1,39,-1
 93 231 l 1,40,41
 177 182 177 182 263 156 c 0,42,43
 359 154 359 154 417 127 c 1,44,45
 443 125 443 125 469 125 c 0,46,47
 599 125 599 125 678 170 c 0,48,49
 756 214 756 214 772 295 c 0,50,51
 787 370 787 370 744 410 c 0,52,53
 701 450 701 450 537 487 c 2,54,-1
 476 502 l 2,55,56
 312 538 312 538 251 612 c 0,57,58
 189 687 189 687 215 817 c 0,59,60
 245 975 245 975 374 1061 c 0,61,62
 503 1147 503 1147 709 1147 c 0,63,64
 811 1147 811 1147 898 1132 c 0,65,66
 985 1117 985 1117 1055 1087 c 1,0,-1
EndSplineSet
EndChar
StartChar: uni0240
Encoding: 576 576 576
Width: 1075
Flags: W
TeX: 117 0 0 0
Fore
270 1120 m 1,0,-1
 1144 1120 l 1,1,-1
 1111 952 l 1,2,-1
 265 149 l 1,3,4
 354 133 354 133 394 84 c 2,5,-1
 606 -180 l 1,6,-1
 729 -306 l 2,7,8
 764 -342 764 -342 840 -342 c 2,9,-1
 948 -342 l 1,10,-1
 918 -496 l 1,11,-1
 771 -496 l 2,12,13
 687 -496 687 -496 585 -435 c 0,14,15
 521 -397 521 -397 450 -306 c 2,16,-1
 260 -63 l 2,17,18
 211 -0 211 -0 121 -0 c 0,19,-1
 27 0 l 1,20,-1
 58 156 l 1,21,-1
 60 168 l 1,22,-1
 908 973 l 1,23,-1
 241 973 l 1,24,-1
 270 1120 l 1,0,-1
EndSplineSet
EndChar
StartChar: uni0241
Encoding: 577 577 577
Width: 1235
Flags: W
TeX: 117 0 0 0
Fore
565 768 m 17,0,0
 806 768 l 2,15,16
 947 768 947 768 1038 841 c 128,-1,17
 1130 914 1130 914 1156 1048 c 128,-1,19
 1182 1182 1182 1182 1119 1254 c 128,-1,20
 1057 1327 1057 1327 915 1327 c 2,21,-1
 661 1327 l 0,9,10
 592 1327 592 1327 498 1305 c 0,11,12
 408 1284 408 1284 321 1241 c 1,13,-1
 357 1423 l 1,14,15
 439 1458 439 1458 524 1475 c 0,16,17
 608 1493 608 1493 693 1493 c 0,18,19
 947 1493 l 2,3,4
 1198 1493 1198 1493 1305 1380 c 128,-1,5
 1411 1268 1411 1268 1369 1048 c 128,-1,7
 1326 828 1326 828 1175 715 c 128,-1,8
 1025 602 1025 602 774 602 c 2,9,-1
 735 602 l 1,10,-1
 618 0 l 1,11,-1
 416 0 l 9,12,-1
 565 768 l 17,0,0
EndSplineSet
EndChar
StartChar: uni0242
Encoding: 578 578 578
Width: 981
Flags: W
TeX: 117 0 0 0
Fore
374 422 m 2,0,1
 515 422 515 422 606 495 c 0,2,3
 697 568 697 568 723 702 c 0,4,5
 750 843 750 843 687 908 c 0,6,7
 619 978 619 978 482 981 c 0,8,9
 416 982 416 982 319 959 c 0,10,11
 229 938 229 938 142 895 c 1,12,-1
 178 1077 l 1,13,14
 261 1112 261 1112 345 1129 c 0,15,16
 429 1147 429 1147 514 1147 c 0,17,18
 763 1147 763 1147 872 1034 c 0,19,20
 979 922 979 922 936 702 c 0,21,22
 843 298 843 298 444 260 c 1,23,-1
 394 0 l 1,24,-1
 192 0 l 1,25,-1
 274 422 l 1,26,-1
 374 422 l 2,0,1
EndSplineSet
EndChar
StartChar: uni0243
Encoding: 579 579 579
Width: 1405
Flags: W
TeX: 0 0 0 0
AnchorPoint: "above" 850.354 1520 basechar 0
AnchorPoint: "below" 554.896 0 basechar 0
Fore
346 1493 m 1,0,-1
 862 1493 l 2,1,2
 1093 1493 1093 1493 1199 1397 c 128,-1,3
 1306 1301 1306 1301 1271 1124 c 0,4,5
 1245 987 1245 987 1165 906 c 128,-1,6
 1085 825 1085 825 957 805 c 1,7,8
 1100 773 1100 773 1163 672 c 128,-1,9
 1226 570 1226 570 1196 418 c 0,10,11
 1157 218 1157 218 1000 109 c 128,-1,12
 843 0 843 0 592 0 c 2,13,-1
 56 0 l 1,14,-1
 127 368 l 1,15,-1
 -64 368 l 1,16,-1
 -36 512 l 1,17,-1
 155 512 l 1,18,-1
 346 1493 l 1,0,-1
516 1327 m 1,19,-1
 428 877 l 1,20,-1
 727 877 l 2,21,22
 875 877 875 877 959 932 c 128,-1,23
 1042 988 1042 988 1064 1102 c 0,24,25
 1086 1215 1086 1215 1024 1271 c 128,-1,26
 963 1327 963 1327 815 1327 c 2,27,-1
 516 1327 l 1,19,-1
704 512 m 1,28,-1
 676 368 l 1,29,-1
 329 368 l 1,30,-1
 290 166 l 1,31,-1
 614 166 l 2,32,33
 777 166 777 166 869 234 c 128,-1,34
 960 301 960 301 987 440 c 0,35,36
 1015 580 1015 580 949 646 c 128,-1,37
 883 713 883 713 720 713 c 2,38,-1
 396 713 l 1,39,-1
 357 512 l 1,40,-1
 704 512 l 1,28,-1
EndSplineSet
EndChar
StartChar: uni0244
Encoding: 580 580 580
Width: 1499
Flags: W
TeX: 0 0 0 0
AnchorPoint: "above" 903.172 1520 basechar 0
AnchorPoint: "below" 607.714 0 basechar 0
Fore
326 1493 m 1,0,-1
 529 1493 l 1,1,-1
 409 875 l 1,2,-1
 1146 875 l 1,3,-1
 1266 1493 l 1,4,-1
 1469 1493 l 1,5,-1
 1349 875 l 1,6,-1
 1514 875 l 1,7,-1
 1482 711 l 1,8,-1
 1317 711 l 1,9,-1
 1288 561 l 2,10,11
 1231 269 1231 269 1058 120 c 128,-1,12
 884 -29 884 -29 602 -29 c 0,13,14
 319 -29 319 -29 204 120 c 128,-1,15
 88 269 88 269 145 561 c 2,16,-1
 174 711 l 1,17,-1
 8 711 l 1,18,-1
 40 875 l 1,19,-1
 206 875 l 1,20,-1
 326 1493 l 1,0,-1
1114 711 m 1,21,-1
 377 711 l 1,22,-1
 353 586 l 2,23,24
 306 346 306 346 372 240 c 128,-1,25
 439 135 439 135 634 135 c 0,26,27
 828 135 828 135 935 240 c 128,-1,28
 1043 346 1043 346 1090 586 c 2,29,-1
 1114 711 l 1,21,-1
EndSplineSet
EndChar
StartChar: uni0246
Encoding: 582 582 582
Width: 1294
Flags: W
TeX: 0 0 0 0
AnchorPoint: "below" 523.896 0 basechar 0
AnchorPoint: "above" 819.354 1520 basechar 0
Fore
1133 1683 m 1,0,-1
 1303 1683 l 1,1,-1
 1201 1493 l 1,2,-1
 1289 1493 l 1,3,-1
 1256 1323 l 1,4,-1
 1110 1323 l 1,5,-1
 873 881 l 1,6,-1
 1139 881 l 1,7,-1
 1106 711 l 1,8,-1
 782 711 l 1,9,-1
 492 170 l 1,10,-1
 1050 170 l 1,11,-1
 1017 0 l 1,12,-1
 401 0 l 1,13,-1
 299 -190 l 1,14,-1
 129 -190 l 1,15,-1
 231 0 l 1,16,-1
 55 0 l 1,17,-1
 345 1493 l 1,18,-1
 1031 1493 l 1,19,-1
 1133 1683 l 1,0,-1
322 170 m 1,20,-1
 612 711 l 1,21,-1
 395 711 l 1,22,-1
 290 170 l 1,23,-1
 322 170 l 1,20,-1
703 881 m 1,24,-1
 940 1323 l 1,25,-1
 514 1323 l 1,26,-1
 428 881 l 1,27,-1
 703 881 l 1,24,-1
EndSplineSet
EndChar
StartChar: uni0247
Encoding: 583 583 583
Width: 1260
Flags: W
TeX: 0 0 0 0
AnchorPoint: "below" 549.147 0 basechar 0
AnchorPoint: "above" 765.102 1147 basechar 0
Fore
984 660 m 1,0,1
 993 705 993 705 993 744 c 0,0,0
 993 862 993 862 922 930 c 1,1,-1
 758 660 l 1,2,-1
 984 660 l 1,0,1
1016 1086 m 1,3,4
 1173 984 1173 984 1173 755 c 0,0,0
 1173 686 1173 686 1158 606 c 2,1,-1
 1140 516 l 1,2,-1
 671 516 l 1,3,-1
 453 155 l 1,4,5
 522 127 522 127 623 127 c 0,6,7
 826 127 826 127 1042 231 c 1,8,-1
 1008 57 l 1,9,10
 789 -29 789 -29 578 -29 c 0,11,12
 455 -29 455 -29 361 4 c 1,13,-1
 244 -190 l 1,14,-1
 74 -190 l 1,15,-1
 235 75 l 1,16,17
 94 193 94 193 94 404 c 0,0,0
 94 472 94 472 109 549 c 0,1,2
 162 824 162 824 342 985.5 c 128,-1,3
 522 1147 522 1147 774 1147 c 0,4,5
 830 1147 830 1147 878 1138 c 1,6,-1
 982 1310 l 1,7,-1
 1152 1310 l 1,8,-1
 1016 1086 l 1,3,4
588 659 m 1,9,-1
 787 989 l 1,10,11
 767 991 767 991 746 991 c 0,12,13
 592 991 592 991 482.5 904 c 128,-1,14
 373 817 373 817 328 659 c 1,15,-1
 588 659 l 1,9,-1
338 246 m 1,16,-1
 501 516 l 1,17,-1
 294 516 l 1,18,19
 289 472 289 472 289 433 c 0,0,0
 289 319 289 319 338 246 c 1,16,-1
EndSplineSet
EndChar
StartChar: uni0248
Encoding: 584 584 584
Width: 604
Flags: W
TeX: 0 0 0 0
AnchorPoint: "below" 70.1592 -430 basechar 0
AnchorPoint: "above" 449.201 1520 basechar 0
Fore
342.953 1493 m 1,0,-1
 544.953 1493 l 1,1,-1
 409.664 797 l 1,2,-1
 600.664 797 l 1,3,-1
 568.397 631 l 1,4,-1
 377.397 631 l 1,5,-1
 274.959 104 l 2,6,7
 222.476 -166 222.476 -166 96.2617 -288 c 128,-1,8
 -29.9531 -410 -29.9531 -410 -256.953 -410 c 2,9,-1
 -333.953 -410 l 1,10,-1
 -300.908 -240 l 1,11,-1
 -237.908 -240 l 2,12,13
 -103.908 -240 -103.908 -240 -34.3301 -165 c 128,-1,14
 35.249 -90 35.249 -90 72.959 104 c 2,15,-1
 175.397 631 l 1,16,-1
 -15.6025 631 l 1,17,-1
 16.6641 797 l 1,18,-1
 207.664 797 l 1,19,-1
 342.953 1493 l 1,0,-1
EndSplineSet
EndChar
StartChar: uni0249
Encoding: 585 585 585
Width: 569
Flags: W
TeX: 0 0 0 0
AnchorPoint: "above" 480.879 1583 basechar 0
AnchorPoint: "below" 89.5918 -430 basechar 0
Fore
382 1556 m 1,12,-1
 566 1556 l 1,13,-1
 520 1323 l 1,14,-1
 336 1323 l 1,15,-1
 382 1556 l 1,12,-1
297 1120 m 1,0,-1
 481 1120 l 1,1,-1
 383 616 l 1,2,-1
 546 616 l 1,3,-1
 514 452 l 1,4,-1
 351 452 l 1,5,-1
 259 -20 l 2,6,7
 218 -234 218 -234 117.5 -330 c 128,-1,8
 17 -426 17 -426 -164 -426 c 2,9,-1
 -234 -426 l 1,10,-1
 -203 -270 l 1,11,-1
 -154 -270 l 2,12,13
 -49 -270 -49 -270 -1.5 -221.5 c 128,-1,14
 46 -173 46 -173 75 -20 c 2,15,-1
 167 452 l 1,16,-1
 -14 452 l 1,17,-1
 18 616 l 1,18,-1
 199 616 l 1,19,-1
 297 1120 l 1,0,-1
EndSplineSet
EndChar
StartChar: uni024A
Encoding: 586 586 586
Width: 1600
Flags: W
TeX: 117 0 0 0
AnchorPoint: "above" 994.479 1520 basechar 0
AnchorPoint: "below" 699.021 0 basechar 0
Fore
361.835 745 m 0,0,1
 306.437 460 306.437 460 391.85 297.5 c 128,-1,2
 477.263 135 477.263 135 681.263 135 c 0,3,4
 886.263 135 886.263 135 1035.35 297.5 c 128,-1,5
 1184.44 460 1184.44 460 1239.83 745 c 0,6,7
 1295.23 1030 1295.23 1030 1209.32 1192.5 c 128,-1,8
 1123.41 1355 1123.41 1355 918.407 1355 c 0,9,10
 714.407 1355 714.407 1355 565.82 1192.5 c 128,-1,11
 417.233 1030 417.233 1030 361.835 745 c 0,0,1
1340.14 1261 m 1,12,-1
 1385.23 1493 l 1,13,-1
 1581.23 1493 l 1,14,-1
 1311.24 104 l 2,15,16
 1273.53 -90 1273.53 -90 1313.95 -165 c 128,-1,17
 1354.37 -240 1354.37 -240 1488.37 -240 c 2,18,-1
 1557.37 -240 l 1,19,-1
 1524.33 -410 l 1,20,-1
 1447.33 -410 l 2,21,22
 1220.33 -410 1220.33 -410 1141.54 -288 c 128,-1,23
 1062.75 -166 1062.75 -166 1115.24 104 c 2,24,-1
 1139.92 231 l 1,25,26
 1037.27 99 1037.27 99 906.825 35 c 128,-1,27
 776.385 -29 776.385 -29 611.385 -29 c 0,28,29
 341.385 -29 341.385 -29 212.885 184.5 c 128,-1,30
 84.3848 398 84.3848 398 152.029 746 c 0,31,32
 219.674 1094 219.674 1094 431.174 1307.5 c 128,-1,33
 642.674 1521 642.674 1521 912.674 1521 c 0,34,35
 1077.67 1521 1077.67 1521 1183.23 1457 c 128,-1,36
 1288.79 1393 1288.79 1393 1340.14 1261 c 1,12,-1
EndSplineSet
EndChar
StartChar: uni024B
Encoding: 587 587 587
Width: 1300
Flags: W
TeX: 117 0 0 0
Fore
1191.12 -426 m 1,0,-1
 1121.12 -426 l 2,1,2
 940.12 -426 940.12 -426 877.28 -330 c 128,-1,3
 814.441 -234 814.441 -234 856.038 -20 c 2,4,-1
 892.582 168 l 1,5,6
 815.144 68 815.144 68 717.217 19.5 c 128,-1,7
 619.289 -29 619.289 -29 495.289 -29 c 0,8,9
 292.289 -29 292.289 -29 196.278 133 c 128,-1,10
 100.269 295 100.269 295 151.585 559 c 0,11,12
 202.901 823 202.901 823 361.891 985 c 128,-1,13
 520.88 1147 520.88 1147 723.88 1147 c 0,14,15
 847.88 1147 847.88 1147 926.953 1098.5 c 128,-1,16
 1006.03 1050 1006.03 1050 1044.59 950 c 1,17,-1
 1077.63 1120 l 1,18,-1
 1261.63 1120 l 1,19,-1
 1040.04 -20 l 2,20,21
 1010.3 -173 1010.3 -173 1038.87 -221.5 c 128,-1,22
 1067.44 -270 1067.44 -270 1172.44 -270 c 2,23,-1
 1221.44 -270 l 1,24,-1
 1191.12 -426 l 1,0,-1
341.585 559 m 0,25,26
 302.125 356 302.125 356 363.175 240.5 c 128,-1,27
 424.224 125 424.224 125 570.224 125 c 0,28,29
 716.224 125 716.224 125 822.675 240.5 c 128,-1,30
 929.125 356 929.125 356 968.585 559 c 0,31,32
 1008.04 762 1008.04 762 946.494 877.5 c 128,-1,33
 884.945 993 884.945 993 738.945 993 c 0,34,35
 592.945 993 592.945 993 486.994 877.5 c 128,-1,36
 381.044 762 381.044 762 341.585 559 c 0,25,26
EndSplineSet
EndChar
StartChar: uni024C
Encoding: 588 588 588
Width: 1423
Flags: W
TeX: 0 0 0 0
AnchorPoint: "above" 784.632 1506 basechar 0
AnchorPoint: "below" 491.896 0 basechar 0
Fore
900 700 m 1,0,1
 961 678 961 678 1008 606 c 128,-1,2
 1056 534 1056 534 1093 408 c 1,3,-1
 1219 0 l 1,4,-1
 1002 0 l 1,5,-1
 885 383 l 1,6,7
 840 533 840 533 781 582 c 128,-1,8
 721 631 721 631 601 631 c 2,9,-1
 381 631 l 1,10,-1
 357 512 l 1,11,-1
 704 512 l 1,12,-1
 676 368 l 1,13,-1
 329 368 l 1,14,-1
 258 0 l 1,15,-1
 56 0 l 1,16,-1
 127 368 l 1,17,-1
 -64 368 l 1,18,-1
 -36 512 l 1,19,-1
 155 512 l 1,20,-1
 346 1493 l 1,21,-1
 802 1493 l 2,22,23
 1058 1493 1058 1493 1163 1386 c 128,-1,24
 1269 1279 1269 1279 1227 1063 c 0,25,26
 1199 922 1199 922 1116 829 c 128,-1,27
 1032 736 1032 736 900 700 c 1,0,1
516 1327 m 1,28,-1
 413 797 l 1,29,-1
 667 797 l 2,30,31
 813 797 813 797 900 864 c 128,-1,32
 988 932 988 932 1014 1063 c 128,-1,33
 1039 1194 1039 1194 977 1260 c 128,-1,34
 916 1327 916 1327 770 1327 c 2,35,-1
 516 1327 l 1,28,-1
EndSplineSet
EndChar
StartChar: uni024D
Encoding: 589 589 589
Width: 842
Flags: W
TeX: 0 0 0 0
AnchorPoint: "above" 646.478 1147 basechar 0
AnchorPoint: "below" 423.522 0 basechar 0
Fore
915 948 m 1,0,1
 887 966 887 966 852 974 c 128,-1,2
 818 983 818 983 774 983 c 0,3,4
 618 983 618 983 514 882 c 128,-1,5
 411 780 411 780 379 616 c 1,6,-1
 550 616 l 1,7,-1
 518 452 l 1,8,-1
 347 452 l 1,9,-1
 260 0 l 1,10,-1
 75 0 l 1,11,-1
 162 452 l 1,12,-1
 -10 452 l 1,13,-1
 22 616 l 1,14,-1
 194 616 l 1,15,-1
 292 1120 l 1,16,-1
 477 1120 l 1,17,-1
 443 946 l 1,18,19
 521 1048 521 1048 624 1098 c 128,-1,20
 726 1147 726 1147 859 1147 c 0,21,22
 878 1147 878 1147 901 1144 c 128,-1,23
 924 1142 924 1142 951 1137 c 1,24,-1
 915 948 l 1,0,1
EndSplineSet
EndChar
StartChar: uni024E
Encoding: 590 590 590
Width: 1251
Flags: W
TeX: 117 0 0 0
AnchorPoint: "below" 480.896 0 basechar 0
AnchorPoint: "above" 777.714 1527 basechar 0
Fore
141 1493 m 1,0,-1
 358 1493 l 1,1,-1
 466 1269 l 1,2,-1
 990 1269 l 1,3,-1
 1183 1493 l 1,4,-1
 1400 1493 l 1,5,-1
 1206 1269 l 1,6,-1
 1362 1269 l 1,7,-1
 1330 1105 l 1,8,-1
 1063 1105 l 1,9,-1
 720 711 l 1,10,-1
 582 0 l 1,11,-1
 379 0 l 1,12,-1
 517 711 l 1,13,-1
 328 1105 l 1,14,-1
 60 1105 l 1,15,-1
 92 1269 l 1,16,-1
 249 1269 l 1,17,-1
 141 1493 l 1,0,-1
848 1105 m 1,18,-1
 545 1105 l 1,19,-1
 653 879 l 1,20,-1
 848 1105 l 1,18,-1
EndSplineSet
EndChar
StartChar: uni024F
Encoding: 591 591 591
Width: 1212
Flags: W
TeX: 117 0 0 0
AnchorPoint: "below" 456.967 -430 basechar 0
AnchorPoint: "above" 764.865 1154 basechar 0
Fore
571 -104 m 2,0,1
 454 -304 454 -304 369 -365 c 0,2,3
 283 -426 283 -426 159 -426 c 2,4,-1
 12 -426 l 1,5,-1
 42 -272 l 1,6,-1
 150 -272 l 2,7,8
 226 -272 226 -272 275 -236 c 0,9,10
 324 -200 324 -200 401 -66 c 2,11,-1
 450 18 l 1,12,-1
 342 516 l 1,13,-1
 44 516 l 1,14,-1
 72 659 l 1,15,-1
 312 659 l 1,16,-1
 211 1120 l 1,17,-1
 406 1120 l 1,18,-1
 501 659 l 1,19,-1
 833 659 l 1,20,-1
 1106 1120 l 1,21,-1
 1301 1120 l 1,22,-1
 1027 659 l 1,23,-1
 1266 659 l 1,24,-1
 1238 516 l 1,25,-1
 941 516 l 1,26,-1
 571 -104 l 2,0,1
748 516 m 1,27,-1
 530 516 l 1,28,-1
 586 244 l 1,29,-1
 748 516 l 1,27,-1
EndSplineSet
EndChar
StartChar: uni0250
Encoding: 592 592 592
Width: 1255
Flags: W
AnchorPoint: "above" 710.296 1147 basechar 0
AnchorPoint: "below" 487.342 0 basechar 0
Fore
489 555 m 2,0,1
 712 555 712 555 808 606 c 0,2,3
 904 657 904 657 928 780 c 0,4,5
 947 878 947 878 893 936 c 0,6,7
 840 993 840 993 729 993 c 0,8,9
 576 993 576 993 463 884 c 0,10,11
 349 776 349 776 314 596 c 2,12,-1
 306 555 l 1,13,-1
 489 555 l 2,0,1
107 479 m 2,14,-1
 232 1118 l 1,15,-1
 416 1118 l 1,16,-1
 383 948 l 1,17,18
 465 1050 465 1050 569 1098 c 0,19,20
 672 1147 672 1147 808 1147 c 0,21,22
 980 1147 980 1147 1063 1050 c 0,23,24
 1146 954 1146 954 1114 792 c 0,25,26
 1078 603 1078 603 932 507 c 0,27,28
 787 411 787 411 536 411 c 2,29,-1
 278 411 l 1,30,-1
 275 393 l 2,31,32
 250 266 250 266 319 196 c 0,33,34
 390 127 390 127 541 127 c 0,35,36
 637 127 637 127 732 150 c 128,-1,37
 828 173 828 173 921 219 c 1,38,-1
 888 49 l 1,39,40
 779 10 779 10 680 -10 c 0,41,42
 582 -29 582 -29 492 -29 c 0,43,44
 249 -29 249 -29 153 97 c 0,45,46
 58 223 58 223 107 479 c 2,14,-1
EndSplineSet
EndChar
StartChar: uni0251
Encoding: 593 593 593
Width: 1300
Flags: W
TeX: 0 0 0 0
AnchorPoint: "below" 487.342 0 basechar 0
AnchorPoint: "above" 718 1147 basechar 0
Fore
1006 950 m 1,0,-1
 1039 1120 l 1,1,-1
 1223 1120 l 1,2,-1
 1005 0 l 1,3,-1
 821 0 l 1,4,-1
 854 168 l 1,5,6
 777 68 777 68 679 20 c 0,7,8
 581 -29 581 -29 457 -29 c 0,9,10
 254 -29 254 -29 157 133 c 0,11,12
 62 295 62 295 113 559 c 0,13,14
 164 823 164 823 323 985 c 0,15,16
 482 1147 482 1147 685 1147 c 0,17,18
 809 1147 809 1147 889 1098 c 0,19,20
 967 1050 967 1050 1006 950 c 1,0,-1
303 559 m 0,21,22
 264 356 264 356 324 240 c 0,23,24
 386 125 386 125 532 125 c 0,25,26
 678 125 678 125 784 240 c 0,27,28
 891 356 891 356 930 559 c 128,-1,29
 969 762 969 762 908 878 c 0,30,31
 846 993 846 993 700 993 c 128,-1,32
 554 993 554 993 448 878 c 0,33,34
 342 762 342 762 303 559 c 0,21,22
EndSplineSet
EndChar
StartChar: uni0252
Encoding: 594 594 594
Width: 1300
Flags: W
TeX: 0 0 0 0
AnchorPoint: "below" 544.342 0 basechar 0
AnchorPoint: "above" 718 1147 basechar 0
Fore
221 168 m 1,0,-1
 188 -2 l 1,1,-1
 4 -2 l 1,2,-1
 222 1118 l 1,3,-1
 406 1118 l 1,4,-1
 373 950 l 1,5,6
 450 1050 450 1050 549 1098 c 0,7,8
 646 1147 646 1147 770 1147 c 0,9,10
 973 1147 973 1147 1069 985 c 0,11,12
 1165 823 1165 823 1114 559 c 128,-1,13
 1063 295 1063 295 903 133 c 0,14,15
 745 -29 745 -29 542 -29 c 0,16,17
 418 -29 418 -29 339 20 c 0,18,19
 260 68 260 68 221 168 c 1,0,-1
924 559 m 0,20,21
 963 762 963 762 902 878 c 0,22,23
 841 993 841 993 695 993 c 128,-1,24
 549 993 549 993 443 878 c 0,25,26
 336 762 336 762 297 559 c 128,-1,27
 258 356 258 356 319 240 c 0,28,29
 381 125 381 125 527 125 c 0,30,31
 673 125 673 125 778 240 c 0,32,33
 885 356 885 356 924 559 c 0,20,21
EndSplineSet
EndChar
StartChar: uni0253
Encoding: 595 595 595
Width: 1300
Flags: W
TeX: 0 0 0 0
AnchorPoint: "above" 425.049 1520 basechar 0
AnchorPoint: "below" 504.591 0 basechar 0
Fore
957 559 m 0,0,1
 997 762 997 762 936 878 c 0,2,3
 875 993 875 993 729 993 c 128,-1,4
 583 993 583 993 476 878 c 0,5,6
 371 762 371 762 331 559 c 0,7,8
 292 356 292 356 352 240 c 0,9,10
 414 125 414 125 560 125 c 128,-1,11
 706 125 706 125 812 240 c 0,12,13
 918 356 918 356 957 559 c 0,0,1
406 950 m 1,14,15
 484 1050 484 1050 583 1098 c 0,16,17
 681 1147 681 1147 804 1147 c 0,18,19
 1008 1147 1008 1147 1103 985 c 0,20,21
 1200 823 1200 823 1148 559 c 128,-1,22
 1097 295 1097 295 937 133 c 0,23,24
 779 -29 779 -29 575 -29 c 0,25,26
 452 -29 452 -29 373 20 c 0,27,28
 294 68 294 68 255 168 c 1,29,-1
 223 0 l 1,30,-1
 38 0 l 1,31,-1
 232 1002 l 1,32,-1
 261 1150 l 2,33,34
 303 1364 303 1364 403 1460 c 0,35,36
 503 1556 503 1556 684 1556 c 2,37,-1
 938 1556 l 1,38,-1
 908 1400 l 1,39,-1
 675 1400 l 2,40,41
 566 1400 566 1400 522 1352 c 0,42,43
 474 1300 474 1300 445 1150 c 2,44,-1
 416 1002 l 1,45,-1
 406 950 l 1,14,15
EndSplineSet
EndChar
StartChar: uni0254
Encoding: 596 596 596
Width: 1126
Flags: W
AnchorPoint: "above" 606 1147 basechar 0
AnchorPoint: "below" 324.342 0 basechar 0
Fore
5.33594 41 m 1,0,-1
 42.3359 223 l 1,1,2
 108.336 175 108.336 175 182.836 151 c 128,-1,3
 257.336 127 257.336 127 337.336 127 c 0,4,5
 425.336 127 425.336 127 504.836 158 c 128,-1,6
 584.336 189 584.336 189 638.336 246 c 1,7,8
 724.336 333 724.336 333 771.336 450 c 128,-1,9
 818.336 567 818.336 567 818.336 692 c 0,10,11
 818.336 843 818.336 843 742.836 917 c 128,-1,12
 667.336 991 667.336 991 513.336 991 c 0,13,14
 437.336 991 437.336 991 351.836 968 c 128,-1,15
 266.336 945 266.336 945 173.336 899 c 1,16,-1
 208.336 1081 l 1,17,18
 288.336 1114 288.336 1114 372.836 1130.5 c 128,-1,19
 457.336 1147 457.336 1147 546.336 1147 c 0,20,21
 769.336 1147 769.336 1147 889.336 1035.5 c 128,-1,22
 1009.34 924 1009.34 924 1009.34 717 c 0,23,24
 1009.34 543 1009.34 543 946.836 396.5 c 128,-1,25
 884.336 250 884.336 250 761.336 133 c 0,26,27
 677.336 53 677.336 53 564.336 12 c 128,-1,28
 451.336 -29 451.336 -29 317.336 -29 c 0,29,30
 239.336 -29 239.336 -29 162.336 -11.5 c 128,-1,31
 85.3359 6 85.3359 6 5.33594 41 c 1,0,-1
EndSplineSet
EndChar
StartChar: uni0255
Encoding: 597 597 597
Width: 1126
Flags: W
TeX: 0 0 0 0
AnchorPoint: "below" 580.519 0 basechar 0
AnchorPoint: "above" 770 1147 basechar 0
Fore
480 146 m 1,0,1
 535 127 535 127 611 127 c 0,2,3
 757 127 757 127 768 184 c 0,4,5
 781 259 781 259 651 259 c 0,6,7
 550 259 550 259 480 146 c 1,0,1
412 -16 m 1,8,9
 395 -73 395 -73 382 -141 c 1,10,-1
 229 -144 l 1,11,12
 249 -40 249 -40 277 44 c 1,13,14
 227 79 227 79 190 130 c 0,15,16
 72 291 72 291 124 559 c 0,17,18
 177 833 177 833 359 990 c 0,19,20
 539 1147 539 1147 801 1147 c 0,21,22
 884 1147 884 1147 964 1130 c 0,23,24
 1039 1113 1039 1113 1111 1077 c 1,25,-1
 1077 905 l 1,26,27
 1011 947 1011 947 933 970 c 0,28,29
 859 991 859 991 779 991 c 0,30,31
 601 991 601 991 479 878 c 0,32,33
 358 764 358 764 318 559 c 0,34,35
 278 354 278 354 355 240 c 0,36,37
 358 235 358 235 365 226 c 1,38,39
 484 402 484 402 680 402 c 0,40,41
 978 402 978 402 932 156 c 0,42,43
 897 -33 897 -33 562 -33 c 0,44,45
 482 -33 482 -33 412 -16 c 1,8,9
EndSplineSet
EndChar
